<svg xmlns="http://www.w3.org/2000/svg" viewBox="0 0 32 38">
<rect x="24" y="1" width="1" height="1" fill="rgb(0,10,0)"/>
<rect x="25" y="1" width="5" height="1" fill="rgb(0,7,0)"/>
<rect x="30" y="1" width="1" height="1" fill="rgb(0,15,4)"/>
<rect x="23" y="2" width="1" height="1" fill="rgb(0,8,0)"/>
<rect x="24" y="2" width="1" height="1" fill="rgb(26,181,79)"/>
<rect x="25" y="2" width="5" height="1" fill="rgb(35,177,77)"/>
<rect x="30" y="2" width="1" height="1" fill="rgb(30,168,73)"/>
<rect x="31" y="2" width="1" height="1" fill="rgb(6,0,0)" fill-opacity="0.965"/>
<rect x="23" y="3" width="1" height="1" fill="rgb(0,22,0)"/>
<rect x="24" y="3" width="1" height="1" fill="rgb(35,177,79)"/>
<rect x="25" y="3" width="5" height="1" fill="rgb(35,177,77)"/>
<rect x="30" y="3" width="1" height="1" fill="rgb(42,174,75)"/>
<rect x="31" y="3" width="1" height="1" fill="rgb(0,0,5)" fill-opacity="0.969"/>
<rect x="23" y="4" width="1" height="1" fill="rgb(0,21,0)"/>
<rect x="24" y="4" width="6" height="1" fill="rgb(35,177,77)"/>
<rect x="30" y="4" width="1" height="1" fill="rgb(35,176,80)"/>
<rect x="31" y="4" width="1" height="1" fill="rgb(0,0,0)" fill-opacity="0.973"/>
<rect x="23" y="5" width="1" height="1" fill="rgb(0,21,0)"/>
<rect x="24" y="5" width="6" height="1" fill="rgb(35,177,77)"/>
<rect x="30" y="5" width="1" height="1" fill="rgb(35,176,80)"/>
<rect x="31" y="5" width="1" height="1" fill="rgb(0,0,0)" fill-opacity="0.976"/>
<rect x="23" y="6" width="1" height="1" fill="rgb(0,21,0)"/>
<rect x="24" y="6" width="6" height="1" fill="rgb(35,177,77)"/>
<rect x="30" y="6" width="1" height="1" fill="rgb(35,176,80)"/>
<rect x="31" y="6" width="1" height="1" fill="rgb(0,0,0)" fill-opacity="0.976"/>
<rect x="23" y="7" width="1" height="1" fill="rgb(0,21,0)"/>
<rect x="24" y="7" width="6" height="1" fill="rgb(35,177,77)"/>
<rect x="30" y="7" width="1" height="1" fill="rgb(35,176,80)"/>
<rect x="31" y="7" width="1" height="1" fill="rgb(0,0,0)" fill-opacity="0.976"/>
<rect x="23" y="8" width="1" height="1" fill="rgb(0,21,0)"/>
<rect x="24" y="8" width="1" height="1" fill="rgb(35,177,77)"/>
<rect x="25" y="8" width="1" height="1" fill="rgb(35,176,77)"/>
<rect x="26" y="8" width="4" height="1" fill="rgb(35,177,77)"/>
<rect x="30" y="8" width="1" height="1" fill="rgb(35,176,80)"/>
<rect x="31" y="8" width="1" height="1" fill="rgb(0,0,0)" fill-opacity="0.973"/>
<rect x="23" y="9" width="1" height="1" fill="rgb(0,21,0)"/>
<rect x="24" y="9" width="6" height="1" fill="rgb(35,177,77)"/>
<rect x="30" y="9" width="1" height="1" fill="rgb(35,176,80)"/>
<rect x="31" y="9" width="1" height="1" fill="rgb(0,0,0)" fill-opacity="0.973"/>
<rect x="23" y="10" width="1" height="1" fill="rgb(0,21,0)"/>
<rect x="24" y="10" width="6" height="1" fill="rgb(35,177,77)"/>
<rect x="30" y="10" width="1" height="1" fill="rgb(35,176,80)"/>
<rect x="31" y="10" width="1" height="1" fill="rgb(0,0,0)" fill-opacity="0.973"/>
<rect x="14" y="11" width="1" height="1" fill="rgb(0,0,7)"/>
<rect x="15" y="11" width="1" height="1" fill="rgb(0,2,0)" fill-opacity="0.98"/>
<rect x="16" y="11" width="2" height="1" fill="rgb(0,0,2)" fill-opacity="0.976"/>
<rect x="18" y="11" width="1" height="1" fill="rgb(0,0,2)" fill-opacity="0.973"/>
<rect x="19" y="11" width="1" height="1" fill="rgb(0,0,4)" fill-opacity="0.969"/>
<rect x="20" y="11" width="1" height="1" fill="rgb(0,3,6)" fill-opacity="0.961"/>
<rect x="23" y="11" width="1" height="1" fill="rgb(0,21,0)"/>
<rect x="24" y="11" width="6" height="1" fill="rgb(35,177,77)"/>
<rect x="30" y="11" width="1" height="1" fill="rgb(35,176,80)"/>
<rect x="31" y="11" width="1" height="1" fill="rgb(0,0,0)" fill-opacity="0.973"/>
<rect x="14" y="12" width="1" height="1" fill="rgb(7,0,0)"/>
<rect x="15" y="12" width="1" height="1" fill="rgb(255,243,0)"/>
<rect x="16" y="12" width="3" height="1" fill="rgb(253,245,0)"/>
<rect x="19" y="12" width="1" height="1" fill="rgb(254,243,1)"/>
<rect x="20" y="12" width="1" height="1" fill="rgb(250,240,3)"/>
<rect x="21" y="12" width="1" height="1" fill="rgb(0,1,0)" fill-opacity="0.957"/>
<rect x="23" y="12" width="1" height="1" fill="rgb(0,21,0)"/>
<rect x="24" y="12" width="4" height="1" fill="rgb(35,177,77)"/>
<rect x="28" y="12" width="1" height="1" fill="rgb(35,176,77)"/>
<rect x="29" y="12" width="1" height="1" fill="rgb(35,177,77)"/>
<rect x="30" y="12" width="1" height="1" fill="rgb(35,176,80)"/>
<rect x="31" y="12" width="1" height="1" fill="rgb(0,0,0)" fill-opacity="0.973"/>
<rect x="14" y="13" width="1" height="1" fill="rgb(0,3,0)"/>
<rect x="15" y="13" width="1" height="1" fill="rgb(252,243,0)"/>
<rect x="16" y="13" width="4" height="1" fill="rgb(254,242,0)"/>
<rect x="20" y="13" width="1" height="1" fill="rgb(248,239,0)"/>
<rect x="21" y="13" width="1" height="1" fill="rgb(255,238,0)"/>
<rect x="23" y="13" width="1" height="1" fill="rgb(0,21,0)"/>
<rect x="24" y="13" width="6" height="1" fill="rgb(35,177,77)"/>
<rect x="30" y="13" width="1" height="1" fill="rgb(35,176,80)"/>
<rect x="31" y="13" width="1" height="1" fill="rgb(0,0,0)" fill-opacity="0.973"/>
<rect x="13" y="14" width="1" height="1" fill="rgb(8,0,0)"/>
<rect x="14" y="14" width="1" height="1" fill="rgb(255,242,5)"/>
<rect x="15" y="14" width="1" height="1" fill="rgb(253,243,0)"/>
<rect x="16" y="14" width="4" height="1" fill="rgb(254,242,0)"/>
<rect x="20" y="14" width="1" height="1" fill="rgb(252,243,0)"/>
<rect x="21" y="14" width="1" height="1" fill="rgb(255,241,0)"/>
<rect x="23" y="14" width="1" height="1" fill="rgb(0,21,0)"/>
<rect x="24" y="14" width="3" height="1" fill="rgb(35,177,77)"/>
<rect x="27" y="14" width="1" height="1" fill="rgb(34,177,77)"/>
<rect x="28" y="14" width="2" height="1" fill="rgb(35,177,77)"/>
<rect x="30" y="14" width="1" height="1" fill="rgb(35,176,80)"/>
<rect x="31" y="14" width="1" height="1" fill="rgb(0,0,0)" fill-opacity="0.973"/>
<rect x="13" y="15" width="1" height="1" fill="rgb(3,4,0)"/>
<rect x="14" y="15" width="7" height="1" fill="rgb(254,242,0)"/>
<rect x="21" y="15" width="1" height="1" fill="rgb(255,240,0)"/>
<rect x="23" y="15" width="1" height="1" fill="rgb(0,21,0)"/>
<rect x="24" y="15" width="6" height="1" fill="rgb(35,177,77)"/>
<rect x="30" y="15" width="1" height="1" fill="rgb(35,176,80)"/>
<rect x="31" y="15" width="1" height="1" fill="rgb(0,0,0)" fill-opacity="0.973"/>
<rect x="13" y="16" width="1" height="1" fill="rgb(3,4,0)"/>
<rect x="14" y="16" width="7" height="1" fill="rgb(254,242,0)"/>
<rect x="21" y="16" width="1" height="1" fill="rgb(255,240,0)"/>
<rect x="23" y="16" width="1" height="1" fill="rgb(0,21,0)"/>
<rect x="24" y="16" width="6" height="1" fill="rgb(35,177,77)"/>
<rect x="30" y="16" width="1" height="1" fill="rgb(35,176,80)"/>
<rect x="31" y="16" width="1" height="1" fill="rgb(0,0,0)" fill-opacity="0.973"/>
<rect x="13" y="17" width="1" height="1" fill="rgb(3,4,0)"/>
<rect x="14" y="17" width="7" height="1" fill="rgb(254,242,0)"/>
<rect x="21" y="17" width="1" height="1" fill="rgb(255,240,0)"/>
<rect x="23" y="17" width="1" height="1" fill="rgb(0,21,0)"/>
<rect x="24" y="17" width="6" height="1" fill="rgb(35,177,77)"/>
<rect x="30" y="17" width="1" height="1" fill="rgb(35,176,80)"/>
<rect x="31" y="17" width="1" height="1" fill="rgb(0,0,0)" fill-opacity="0.973"/>
<rect x="13" y="18" width="1" height="1" fill="rgb(3,4,0)"/>
<rect x="14" y="18" width="7" height="1" fill="rgb(254,242,0)"/>
<rect x="21" y="18" width="1" height="1" fill="rgb(255,240,0)"/>
<rect x="23" y="18" width="1" height="1" fill="rgb(0,21,0)"/>
<rect x="24" y="18" width="6" height="1" fill="rgb(35,177,77)"/>
<rect x="30" y="18" width="1" height="1" fill="rgb(35,176,80)"/>
<rect x="31" y="18" width="1" height="1" fill="rgb(0,0,0)" fill-opacity="0.973"/>
<rect x="13" y="19" width="1" height="1" fill="rgb(3,4,0)"/>
<rect x="14" y="19" width="7" height="1" fill="rgb(254,242,0)"/>
<rect x="21" y="19" width="1" height="1" fill="rgb(255,240,0)"/>
<rect x="23" y="19" width="1" height="1" fill="rgb(0,21,0)"/>
<rect x="24" y="19" width="6" height="1" fill="rgb(35,177,77)"/>
<rect x="30" y="19" width="1" height="1" fill="rgb(35,176,80)"/>
<rect x="31" y="19" width="1" height="1" fill="rgb(0,0,0)" fill-opacity="0.973"/>
<rect x="13" y="20" width="1" height="1" fill="rgb(3,4,0)"/>
<rect x="14" y="20" width="7" height="1" fill="rgb(254,242,0)"/>
<rect x="21" y="20" width="1" height="1" fill="rgb(255,240,0)"/>
<rect x="23" y="20" width="1" height="1" fill="rgb(0,21,0)"/>
<rect x="24" y="20" width="6" height="1" fill="rgb(35,177,77)"/>
<rect x="30" y="20" width="1" height="1" fill="rgb(35,176,80)"/>
<rect x="31" y="20" width="1" height="1" fill="rgb(0,0,0)" fill-opacity="0.973"/>
<rect x="4" y="21" width="1" height="1" fill="rgb(3,0,2)" fill-opacity="0.969"/>
<rect x="5" y="21" width="1" height="1" fill="rgb(1,0,0)" fill-opacity="0.957"/>
<rect x="6" y="21" width="1" height="1" fill="rgb(1,0,0)" fill-opacity="0.949"/>
<rect x="7" y="21" width="1" height="1" fill="rgb(1,0,0)" fill-opacity="0.937"/>
<rect x="8" y="21" width="1" height="1" fill="rgb(1,0,0)" fill-opacity="0.906"/>
<rect x="9" y="21" width="1" height="1" fill="rgb(1,0,0)" fill-opacity="0.918"/>
<rect x="10" y="21" width="1" height="1" fill="rgb(1,0,0)" fill-opacity="0.945"/>
<rect x="11" y="21" width="1" height="1" fill="rgb(5,0,0)" fill-opacity="0.953"/>
<rect x="13" y="21" width="1" height="1" fill="rgb(3,4,0)"/>
<rect x="14" y="21" width="7" height="1" fill="rgb(254,242,0)"/>
<rect x="21" y="21" width="1" height="1" fill="rgb(255,240,0)"/>
<rect x="23" y="21" width="1" height="1" fill="rgb(0,21,0)"/>
<rect x="24" y="21" width="6" height="1" fill="rgb(35,177,77)"/>
<rect x="30" y="21" width="1" height="1" fill="rgb(35,176,80)"/>
<rect x="31" y="21" width="1" height="1" fill="rgb(0,0,0)" fill-opacity="0.973"/>
<rect x="3" y="22" width="1" height="1" fill="rgb(29,0,0)"/>
<rect x="4" y="22" width="1" height="1" fill="rgb(250,129,38)"/>
<rect x="5" y="22" width="1" height="1" fill="rgb(255,127,36)"/>
<rect x="6" y="22" width="1" height="1" fill="rgb(255,127,37)"/>
<rect x="7" y="22" width="4" height="1" fill="rgb(255,127,36)"/>
<rect x="11" y="22" width="1" height="1" fill="rgb(252,128,42)"/>
<rect x="13" y="22" width="1" height="1" fill="rgb(3,4,0)"/>
<rect x="14" y="22" width="7" height="1" fill="rgb(254,242,0)"/>
<rect x="21" y="22" width="1" height="1" fill="rgb(255,240,0)"/>
<rect x="23" y="22" width="1" height="1" fill="rgb(0,21,0)"/>
<rect x="24" y="22" width="6" height="1" fill="rgb(35,177,77)"/>
<rect x="30" y="22" width="1" height="1" fill="rgb(35,176,80)"/>
<rect x="31" y="22" width="1" height="1" fill="rgb(0,0,0)" fill-opacity="0.973"/>
<rect x="3" y="23" width="1" height="1" fill="rgb(23,0,0)"/>
<rect x="4" y="23" width="1" height="1" fill="rgb(255,128,33)"/>
<rect x="5" y="23" width="6" height="1" fill="rgb(255,127,38)"/>
<rect x="11" y="23" width="1" height="1" fill="rgb(255,126,38)"/>
<rect x="13" y="23" width="1" height="1" fill="rgb(3,4,0)"/>
<rect x="14" y="23" width="7" height="1" fill="rgb(254,242,0)"/>
<rect x="21" y="23" width="1" height="1" fill="rgb(255,240,0)"/>
<rect x="23" y="23" width="1" height="1" fill="rgb(0,21,0)"/>
<rect x="24" y="23" width="6" height="1" fill="rgb(35,177,77)"/>
<rect x="30" y="23" width="1" height="1" fill="rgb(35,176,80)"/>
<rect x="31" y="23" width="1" height="1" fill="rgb(0,0,0)" fill-opacity="0.973"/>
<rect x="3" y="24" width="1" height="1" fill="rgb(25,0,0)"/>
<rect x="4" y="24" width="1" height="1" fill="rgb(253,128,38)"/>
<rect x="5" y="24" width="7" height="1" fill="rgb(255,127,38)"/>
<rect x="13" y="24" width="1" height="1" fill="rgb(3,4,0)"/>
<rect x="14" y="24" width="7" height="1" fill="rgb(254,242,0)"/>
<rect x="21" y="24" width="1" height="1" fill="rgb(255,240,0)"/>
<rect x="23" y="24" width="1" height="1" fill="rgb(0,21,0)"/>
<rect x="24" y="24" width="6" height="1" fill="rgb(35,177,77)"/>
<rect x="30" y="24" width="1" height="1" fill="rgb(35,176,80)"/>
<rect x="31" y="24" width="1" height="1" fill="rgb(0,0,0)" fill-opacity="0.969"/>
<rect x="3" y="25" width="1" height="1" fill="rgb(25,0,0)"/>
<rect x="4" y="25" width="1" height="1" fill="rgb(253,128,38)"/>
<rect x="5" y="25" width="7" height="1" fill="rgb(255,127,38)"/>
<rect x="13" y="25" width="1" height="1" fill="rgb(3,4,0)"/>
<rect x="14" y="25" width="7" height="1" fill="rgb(254,242,0)"/>
<rect x="21" y="25" width="1" height="1" fill="rgb(255,240,0)"/>
<rect x="23" y="25" width="1" height="1" fill="rgb(0,21,0)"/>
<rect x="24" y="25" width="6" height="1" fill="rgb(35,177,77)"/>
<rect x="30" y="25" width="1" height="1" fill="rgb(35,176,80)"/>
<rect x="31" y="25" width="1" height="1" fill="rgb(0,0,0)" fill-opacity="0.969"/>
<rect x="3" y="26" width="1" height="1" fill="rgb(25,0,0)"/>
<rect x="4" y="26" width="1" height="1" fill="rgb(253,128,38)"/>
<rect x="5" y="26" width="7" height="1" fill="rgb(255,127,38)"/>
<rect x="13" y="26" width="1" height="1" fill="rgb(3,4,0)"/>
<rect x="14" y="26" width="7" height="1" fill="rgb(254,242,0)"/>
<rect x="21" y="26" width="1" height="1" fill="rgb(255,240,0)"/>
<rect x="23" y="26" width="1" height="1" fill="rgb(0,21,0)"/>
<rect x="24" y="26" width="6" height="1" fill="rgb(35,177,77)"/>
<rect x="30" y="26" width="1" height="1" fill="rgb(35,176,80)"/>
<rect x="31" y="26" width="1" height="1" fill="rgb(0,0,0)" fill-opacity="0.973"/>
<rect x="3" y="27" width="1" height="1" fill="rgb(25,0,0)"/>
<rect x="4" y="27" width="1" height="1" fill="rgb(253,128,38)"/>
<rect x="5" y="27" width="7" height="1" fill="rgb(255,127,38)"/>
<rect x="13" y="27" width="1" height="1" fill="rgb(3,4,0)"/>
<rect x="14" y="27" width="2" height="1" fill="rgb(254,242,0)"/>
<rect x="16" y="27" width="1" height="1" fill="rgb(254,242,1)"/>
<rect x="17" y="27" width="4" height="1" fill="rgb(254,242,0)"/>
<rect x="21" y="27" width="1" height="1" fill="rgb(255,240,0)"/>
<rect x="23" y="27" width="1" height="1" fill="rgb(0,21,0)"/>
<rect x="24" y="27" width="6" height="1" fill="rgb(35,177,77)"/>
<rect x="30" y="27" width="1" height="1" fill="rgb(35,176,80)"/>
<rect x="31" y="27" width="1" height="1" fill="rgb(0,0,0)" fill-opacity="0.973"/>
<rect x="3" y="28" width="1" height="1" fill="rgb(25,0,0)"/>
<rect x="4" y="28" width="1" height="1" fill="rgb(253,128,38)"/>
<rect x="5" y="28" width="7" height="1" fill="rgb(255,127,38)"/>
<rect x="13" y="28" width="1" height="1" fill="rgb(3,4,0)"/>
<rect x="14" y="28" width="7" height="1" fill="rgb(254,242,0)"/>
<rect x="21" y="28" width="1" height="1" fill="rgb(255,240,0)"/>
<rect x="23" y="28" width="1" height="1" fill="rgb(0,21,0)"/>
<rect x="24" y="28" width="6" height="1" fill="rgb(35,177,77)"/>
<rect x="30" y="28" width="1" height="1" fill="rgb(35,176,80)"/>
<rect x="31" y="28" width="1" height="1" fill="rgb(0,0,0)" fill-opacity="0.973"/>
<rect x="3" y="29" width="1" height="1" fill="rgb(25,0,0)"/>
<rect x="4" y="29" width="1" height="1" fill="rgb(253,128,38)"/>
<rect x="5" y="29" width="7" height="1" fill="rgb(255,127,38)"/>
<rect x="13" y="29" width="1" height="1" fill="rgb(3,4,0)"/>
<rect x="14" y="29" width="1" height="1" fill="rgb(254,243,0)"/>
<rect x="15" y="29" width="6" height="1" fill="rgb(254,242,0)"/>
<rect x="21" y="29" width="1" height="1" fill="rgb(255,240,0)"/>
<rect x="23" y="29" width="1" height="1" fill="rgb(0,21,0)"/>
<rect x="24" y="29" width="6" height="1" fill="rgb(35,177,77)"/>
<rect x="30" y="29" width="1" height="1" fill="rgb(35,176,80)"/>
<rect x="31" y="29" width="1" height="1" fill="rgb(0,0,0)" fill-opacity="0.976"/>
<rect x="3" y="30" width="1" height="1" fill="rgb(25,0,0)"/>
<rect x="4" y="30" width="1" height="1" fill="rgb(253,128,38)"/>
<rect x="5" y="30" width="1" height="1" fill="rgb(255,127,38)"/>
<rect x="6" y="30" width="1" height="1" fill="rgb(254,127,38)"/>
<rect x="7" y="30" width="5" height="1" fill="rgb(255,127,38)"/>
<rect x="13" y="30" width="1" height="1" fill="rgb(3,4,0)"/>
<rect x="14" y="30" width="7" height="1" fill="rgb(254,242,0)"/>
<rect x="21" y="30" width="1" height="1" fill="rgb(255,240,0)"/>
<rect x="23" y="30" width="1" height="1" fill="rgb(0,21,0)"/>
<rect x="24" y="30" width="3" height="1" fill="rgb(35,177,77)"/>
<rect x="27" y="30" width="1" height="1" fill="rgb(34,177,77)"/>
<rect x="28" y="30" width="2" height="1" fill="rgb(35,177,77)"/>
<rect x="30" y="30" width="1" height="1" fill="rgb(35,176,80)"/>
<rect x="31" y="30" width="1" height="1" fill="rgb(0,0,0)" fill-opacity="0.973"/>
<rect x="3" y="31" width="1" height="1" fill="rgb(25,0,0)"/>
<rect x="4" y="31" width="1" height="1" fill="rgb(253,128,38)"/>
<rect x="5" y="31" width="7" height="1" fill="rgb(255,127,38)"/>
<rect x="13" y="31" width="1" height="1" fill="rgb(3,4,0)"/>
<rect x="14" y="31" width="7" height="1" fill="rgb(254,242,0)"/>
<rect x="21" y="31" width="1" height="1" fill="rgb(255,240,0)"/>
<rect x="23" y="31" width="1" height="1" fill="rgb(0,21,0)"/>
<rect x="24" y="31" width="6" height="1" fill="rgb(35,177,77)"/>
<rect x="30" y="31" width="1" height="1" fill="rgb(35,176,80)"/>
<rect x="31" y="31" width="1" height="1" fill="rgb(0,0,0)" fill-opacity="0.976"/>
<rect x="3" y="32" width="1" height="1" fill="rgb(25,0,0)"/>
<rect x="4" y="32" width="1" height="1" fill="rgb(253,128,38)"/>
<rect x="5" y="32" width="7" height="1" fill="rgb(255,127,38)"/>
<rect x="13" y="32" width="1" height="1" fill="rgb(3,4,0)"/>
<rect x="14" y="32" width="7" height="1" fill="rgb(254,242,0)"/>
<rect x="21" y="32" width="1" height="1" fill="rgb(255,240,0)"/>
<rect x="23" y="32" width="1" height="1" fill="rgb(0,21,0)"/>
<rect x="24" y="32" width="6" height="1" fill="rgb(35,177,77)"/>
<rect x="30" y="32" width="1" height="1" fill="rgb(35,176,80)"/>
<rect x="31" y="32" width="1" height="1" fill="rgb(0,0,0)" fill-opacity="0.98"/>
<rect x="3" y="33" width="1" height="1" fill="rgb(25,0,0)"/>
<rect x="4" y="33" width="1" height="1" fill="rgb(253,128,38)"/>
<rect x="5" y="33" width="7" height="1" fill="rgb(255,127,38)"/>
<rect x="13" y="33" width="1" height="1" fill="rgb(3,4,0)"/>
<rect x="14" y="33" width="7" height="1" fill="rgb(254,242,0)"/>
<rect x="21" y="33" width="1" height="1" fill="rgb(255,240,0)"/>
<rect x="23" y="33" width="1" height="1" fill="rgb(0,21,0)"/>
<rect x="24" y="33" width="3" height="1" fill="rgb(35,177,77)"/>
<rect x="27" y="33" width="1" height="1" fill="rgb(35,176,77)"/>
<rect x="28" y="33" width="2" height="1" fill="rgb(35,177,77)"/>
<rect x="30" y="33" width="1" height="1" fill="rgb(35,176,80)"/>
<rect x="31" y="33" width="1" height="1" fill="rgb(0,0,0)" fill-opacity="0.98"/>
<rect x="3" y="34" width="1" height="1" fill="rgb(11,0,0)"/>
<rect x="4" y="34" width="1" height="1" fill="rgb(38,0,0)"/>
<rect x="5" y="34" width="1" height="1" fill="rgb(36,0,0)"/>
<rect x="6" y="34" width="5" height="1" fill="rgb(38,0,0)"/>
<rect x="11" y="34" width="1" height="1" fill="rgb(28,0,0)"/>
<rect x="13" y="34" width="1" height="1" fill="rgb(3,3,0)"/>
<rect x="14" y="34" width="5" height="1" fill="rgb(15,8,0)"/>
<rect x="19" y="34" width="1" height="1" fill="rgb(15,9,0)"/>
<rect x="20" y="34" width="1" height="1" fill="rgb(11,9,0)"/>
<rect x="21" y="34" width="1" height="1" fill="rgb(13,13,0)"/>
<rect x="23" y="34" width="1" height="1" fill="rgb(0,8,4)"/>
<rect x="24" y="34" width="7" height="1" fill="rgb(0,21,0)"/>
<rect x="31" y="34" width="1" height="1" fill="rgb(6,6,6)" fill-opacity="0.98"/>
<rect x="13" y="37" width="1" height="1" fill="rgb(255,255,255)" fill-opacity="0.004"/>
</svg>