<svg xmlns="http://www.w3.org/2000/svg" viewBox="0 0 32 32">
<rect x="7" y="2" width="1" height="1" fill="rgb(160,160,160)" fill-opacity="0.4"/>
<rect x="8" y="2" width="1" height="1" fill="rgb(37,45,48)"/>
<rect x="9" y="2" width="1" height="1" fill="rgb(44,51,57)"/>
<rect x="10" y="2" width="1" height="1" fill="rgb(43,50,60)"/>
<rect x="11" y="2" width="1" height="1" fill="rgb(31,32,27)"/>
<rect x="12" y="2" width="1" height="1" fill="rgb(166,166,164)" fill-opacity="0.361"/>
<rect x="13" y="2" width="1" height="1" fill="rgb(167,167,167)" fill-opacity="0.294"/>
<rect x="19" y="2" width="1" height="1" fill="rgb(155,155,155)" fill-opacity="0.29"/>
<rect x="20" y="2" width="1" height="1" fill="rgb(44,49,52)"/>
<rect x="21" y="2" width="1" height="1" fill="rgb(46,50,59)"/>
<rect x="22" y="2" width="1" height="1" fill="rgb(46,50,61)"/>
<rect x="23" y="2" width="1" height="1" fill="rgb(29,29,29)"/>
<rect x="24" y="2" width="1" height="1" fill="rgb(147,147,145)"/>
<rect x="25" y="2" width="1" height="1" fill="rgb(167,167,167)" fill-opacity="0.384"/>
<rect x="3" y="3" width="1" height="1" fill="rgb(91,91,91)" fill-opacity="0.776"/>
<rect x="4" y="3" width="1" height="1" fill="rgb(88,88,88)" fill-opacity="0.765"/>
<rect x="5" y="3" width="1" height="1" fill="rgb(88,88,88)" fill-opacity="0.773"/>
<rect x="6" y="3" width="1" height="1" fill="rgb(88,88,88)" fill-opacity="0.769"/>
<rect x="7" y="3" width="1" height="1" fill="rgb(18,18,16)"/>
<rect x="8" y="3" width="1" height="1" fill="rgb(56,73,83)"/>
<rect x="9" y="3" width="1" height="1" fill="rgb(55,71,87)"/>
<rect x="10" y="3" width="1" height="1" fill="rgb(55,72,92)"/>
<rect x="11" y="3" width="1" height="1" fill="rgb(18,17,13)"/>
<rect x="12" y="3" width="2" height="1" fill="rgb(17,17,15)"/>
<rect x="14" y="3" width="1" height="1" fill="rgb(88,88,88)" fill-opacity="0.737"/>
<rect x="15" y="3" width="1" height="1" fill="rgb(88,88,88)" fill-opacity="0.729"/>
<rect x="16" y="3" width="1" height="1" fill="rgb(89,89,89)" fill-opacity="0.733"/>
<rect x="17" y="3" width="1" height="1" fill="rgb(88,88,88)" fill-opacity="0.725"/>
<rect x="18" y="3" width="1" height="1" fill="rgb(89,89,89)" fill-opacity="0.733"/>
<rect x="19" y="3" width="1" height="1" fill="rgb(12,12,10)" fill-opacity="0.992"/>
<rect x="20" y="3" width="1" height="1" fill="rgb(58,71,87)"/>
<rect x="21" y="3" width="2" height="1" fill="rgb(56,71,90)"/>
<rect x="23" y="3" width="1" height="1" fill="rgb(17,17,19)"/>
<rect x="24" y="3" width="2" height="1" fill="rgb(17,17,15)"/>
<rect x="26" y="3" width="2" height="1" fill="rgb(88,88,88)" fill-opacity="0.776"/>
<rect x="28" y="3" width="1" height="1" fill="rgb(88,88,85)" fill-opacity="0.749"/>
<rect x="29" y="3" width="1" height="1" fill="rgb(145,145,145)" fill-opacity="0.498"/>
<rect x="3" y="4" width="1" height="1" fill="rgb(4,6,5)"/>
<rect x="4" y="4" width="1" height="1" fill="rgb(11,10,8)"/>
<rect x="5" y="4" width="1" height="1" fill="rgb(14,4,3)"/>
<rect x="6" y="4" width="1" height="1" fill="rgb(11,5,5)"/>
<rect x="7" y="4" width="1" height="1" fill="rgb(9,9,7)"/>
<rect x="8" y="4" width="1" height="1" fill="rgb(46,63,73)"/>
<rect x="9" y="4" width="1" height="1" fill="rgb(45,62,78)"/>
<rect x="10" y="4" width="1" height="1" fill="rgb(46,63,81)"/>
<rect x="11" y="4" width="1" height="1" fill="rgb(8,7,3)"/>
<rect x="12" y="4" width="1" height="1" fill="rgb(15,5,6)"/>
<rect x="13" y="4" width="1" height="1" fill="rgb(14,4,3)"/>
<rect x="14" y="4" width="5" height="1" fill="rgb(14,4,2)"/>
<rect x="19" y="4" width="1" height="1" fill="rgb(7,3,2)"/>
<rect x="20" y="4" width="1" height="1" fill="rgb(47,60,76)"/>
<rect x="21" y="4" width="1" height="1" fill="rgb(45,62,80)"/>
<rect x="22" y="4" width="1" height="1" fill="rgb(44,61,79)"/>
<rect x="23" y="4" width="1" height="1" fill="rgb(6,6,6)"/>
<rect x="24" y="4" width="1" height="1" fill="rgb(9,5,4)"/>
<rect x="25" y="4" width="1" height="1" fill="rgb(14,4,5)"/>
<rect x="26" y="4" width="1" height="1" fill="rgb(14,4,3)"/>
<rect x="27" y="4" width="1" height="1" fill="rgb(13,4,5)"/>
<rect x="28" y="4" width="1" height="1" fill="rgb(11,5,5)"/>
<rect x="29" y="4" width="1" height="1" fill="rgb(40,40,37)" fill-opacity="0.784"/>
<rect x="3" y="5" width="1" height="1" fill="rgb(5,1,0)"/>
<rect x="4" y="5" width="1" height="1" fill="rgb(62,24,11)"/>
<rect x="5" y="5" width="1" height="1" fill="rgb(221,87,49)"/>
<rect x="6" y="5" width="1" height="1" fill="rgb(211,93,65)"/>
<rect x="7" y="5" width="1" height="1" fill="rgb(19,8,2)"/>
<rect x="8" y="5" width="1" height="1" fill="rgb(46,59,75)"/>
<rect x="9" y="5" width="2" height="1" fill="rgb(44,61,79)"/>
<rect x="11" y="5" width="1" height="1" fill="rgb(2,1,0)"/>
<rect x="12" y="5" width="1" height="1" fill="rgb(216,90,50)"/>
<rect x="13" y="5" width="5" height="1" fill="rgb(223,86,50)"/>
<rect x="18" y="5" width="1" height="1" fill="rgb(219,90,51)"/>
<rect x="19" y="5" width="1" height="1" fill="rgb(29,0,0)"/>
<rect x="20" y="5" width="1" height="1" fill="rgb(50,59,76)"/>
<rect x="21" y="5" width="1" height="1" fill="rgb(41,59,79)"/>
<rect x="22" y="5" width="1" height="1" fill="rgb(43,60,80)"/>
<rect x="23" y="5" width="1" height="1" fill="rgb(0,2,1)"/>
<rect x="24" y="5" width="1" height="1" fill="rgb(173,84,52)"/>
<rect x="25" y="5" width="2" height="1" fill="rgb(223,86,50)"/>
<rect x="27" y="5" width="1" height="1" fill="rgb(221,88,47)"/>
<rect x="28" y="5" width="1" height="1" fill="rgb(218,90,51)"/>
<rect x="29" y="5" width="1" height="1" fill="rgb(28,28,27)" fill-opacity="0.808"/>
<rect x="3" y="6" width="1" height="1" fill="rgb(1,1,0)"/>
<rect x="4" y="6" width="1" height="1" fill="rgb(63,22,16)"/>
<rect x="5" y="6" width="1" height="1" fill="rgb(230,84,45)"/>
<rect x="6" y="6" width="1" height="1" fill="rgb(234,83,40)"/>
<rect x="7" y="6" width="1" height="1" fill="rgb(234,91,49)"/>
<rect x="8" y="6" width="1" height="1" fill="rgb(8,0,0)"/>
<rect x="9" y="6" width="1" height="1" fill="rgb(0,3,6)"/>
<rect x="10" y="6" width="1" height="1" fill="rgb(0,4,7)"/>
<rect x="11" y="6" width="1" height="1" fill="rgb(230,84,47)"/>
<rect x="12" y="6" width="1" height="1" fill="rgb(229,81,43)"/>
<rect x="13" y="6" width="5" height="1" fill="rgb(230,84,45)"/>
<rect x="18" y="6" width="1" height="1" fill="rgb(227,84,44)"/>
<rect x="19" y="6" width="1" height="1" fill="rgb(228,85,43)"/>
<rect x="20" y="6" width="1" height="1" fill="rgb(9,0,0)"/>
<rect x="21" y="6" width="1" height="1" fill="rgb(1,2,6)"/>
<rect x="22" y="6" width="1" height="1" fill="rgb(0,1,5)"/>
<rect x="23" y="6" width="1" height="1" fill="rgb(235,89,42)"/>
<rect x="24" y="6" width="1" height="1" fill="rgb(230,84,43)"/>
<rect x="25" y="6" width="3" height="1" fill="rgb(230,84,45)"/>
<rect x="28" y="6" width="1" height="1" fill="rgb(228,87,42)"/>
<rect x="29" y="6" width="1" height="1" fill="rgb(33,33,32)" fill-opacity="0.808"/>
<rect x="3" y="7" width="1" height="1" fill="rgb(3,5,4)"/>
<rect x="4" y="7" width="1" height="1" fill="rgb(66,21,16)"/>
<rect x="5" y="7" width="2" height="1" fill="rgb(228,86,38)"/>
<rect x="7" y="7" width="1" height="1" fill="rgb(231,90,45)"/>
<rect x="8" y="7" width="1" height="1" fill="rgb(226,90,42)"/>
<rect x="9" y="7" width="1" height="1" fill="rgb(227,85,39)"/>
<rect x="10" y="7" width="1" height="1" fill="rgb(226,83,39)"/>
<rect x="11" y="7" width="1" height="1" fill="rgb(228,83,36)"/>
<rect x="12" y="7" width="1" height="1" fill="rgb(228,87,38)"/>
<rect x="13" y="7" width="3" height="1" fill="rgb(228,86,38)"/>
<rect x="16" y="7" width="4" height="1" fill="rgb(228,86,40)"/>
<rect x="20" y="7" width="1" height="1" fill="rgb(225,89,41)"/>
<rect x="21" y="7" width="1" height="1" fill="rgb(226,83,39)"/>
<rect x="22" y="7" width="1" height="1" fill="rgb(225,84,38)"/>
<rect x="23" y="7" width="1" height="1" fill="rgb(226,88,41)"/>
<rect x="24" y="7" width="3" height="1" fill="rgb(228,86,40)"/>
<rect x="27" y="7" width="1" height="1" fill="rgb(227,86,40)"/>
<rect x="28" y="7" width="1" height="1" fill="rgb(231,82,50)"/>
<rect x="29" y="7" width="1" height="1" fill="rgb(28,28,27)" fill-opacity="0.808"/>
<rect x="3" y="8" width="1" height="1" fill="rgb(2,2,0)"/>
<rect x="4" y="8" width="1" height="1" fill="rgb(15,1,1)"/>
<rect x="5" y="8" width="23" height="1" fill="rgb(14,0,0)"/>
<rect x="28" y="8" width="1" height="1" fill="rgb(11,1,0)"/>
<rect x="29" y="8" width="1" height="1" fill="rgb(29,29,26)" fill-opacity="0.804"/>
<rect x="3" y="9" width="1" height="1" fill="rgb(2,2,0)"/>
<rect x="4" y="9" width="1" height="1" fill="rgb(2,2,4)"/>
<rect x="5" y="9" width="23" height="1" fill="rgb(1,3,2)"/>
<rect x="28" y="9" width="1" height="1" fill="rgb(3,3,1)"/>
<rect x="29" y="9" width="1" height="1" fill="rgb(28,28,26)" fill-opacity="0.808"/>
<rect x="3" y="10" width="1" height="1" fill="rgb(2,2,2)"/>
<rect x="4" y="10" width="1" height="1" fill="rgb(58,59,54)"/>
<rect x="5" y="10" width="1" height="1" fill="rgb(245,236,227)"/>
<rect x="6" y="10" width="1" height="1" fill="rgb(245,237,227)"/>
<rect x="7" y="10" width="21" height="1" fill="rgb(245,236,227)"/>
<rect x="28" y="10" width="1" height="1" fill="rgb(246,237,230)"/>
<rect x="29" y="10" width="1" height="1" fill="rgb(29,29,26)" fill-opacity="0.804"/>
<rect x="3" y="11" width="1" height="1" fill="rgb(2,2,2)"/>
<rect x="4" y="11" width="1" height="1" fill="rgb(57,59,54)"/>
<rect x="5" y="11" width="7" height="1" fill="rgb(245,236,227)"/>
<rect x="12" y="11" width="1" height="1" fill="rgb(245,237,226)"/>
<rect x="13" y="11" width="4" height="1" fill="rgb(245,236,227)"/>
<rect x="17" y="11" width="1" height="1" fill="rgb(245,236,229)"/>
<rect x="18" y="11" width="5" height="1" fill="rgb(245,236,227)"/>
<rect x="23" y="11" width="1" height="1" fill="rgb(245,237,226)"/>
<rect x="24" y="11" width="4" height="1" fill="rgb(245,236,227)"/>
<rect x="28" y="11" width="1" height="1" fill="rgb(247,236,230)"/>
<rect x="29" y="11" width="1" height="1" fill="rgb(30,30,29)" fill-opacity="0.804"/>
<rect x="3" y="12" width="1" height="1" fill="rgb(2,2,0)"/>
<rect x="4" y="12" width="1" height="1" fill="rgb(57,59,54)"/>
<rect x="5" y="12" width="1" height="1" fill="rgb(245,236,227)"/>
<rect x="6" y="12" width="1" height="1" fill="rgb(244,243,241)"/>
<rect x="7" y="12" width="1" height="1" fill="rgb(46,58,70)"/>
<rect x="8" y="12" width="1" height="1" fill="rgb(38,52,63)"/>
<rect x="9" y="12" width="1" height="1" fill="rgb(244,240,231)"/>
<rect x="10" y="12" width="2" height="1" fill="rgb(245,236,227)"/>
<rect x="12" y="12" width="1" height="1" fill="rgb(37,51,64)"/>
<rect x="13" y="12" width="1" height="1" fill="rgb(39,53,64)"/>
<rect x="14" y="12" width="1" height="1" fill="rgb(36,52,67)"/>
<rect x="15" y="12" width="1" height="1" fill="rgb(246,236,227)"/>
<rect x="16" y="12" width="1" height="1" fill="rgb(245,236,227)"/>
<rect x="17" y="12" width="1" height="1" fill="rgb(247,238,231)"/>
<rect x="18" y="12" width="1" height="1" fill="rgb(40,53,69)"/>
<rect x="19" y="12" width="1" height="1" fill="rgb(38,52,63)"/>
<rect x="20" y="12" width="1" height="1" fill="rgb(243,238,234)"/>
<rect x="21" y="12" width="2" height="1" fill="rgb(245,236,227)"/>
<rect x="23" y="12" width="1" height="1" fill="rgb(43,56,72)"/>
<rect x="24" y="12" width="1" height="1" fill="rgb(37,54,64)"/>
<rect x="25" y="12" width="1" height="1" fill="rgb(34,54,65)"/>
<rect x="26" y="12" width="1" height="1" fill="rgb(246,236,227)"/>
<rect x="27" y="12" width="1" height="1" fill="rgb(245,236,227)"/>
<rect x="28" y="12" width="1" height="1" fill="rgb(247,236,230)"/>
<rect x="29" y="12" width="1" height="1" fill="rgb(29,29,26)" fill-opacity="0.804"/>
<rect x="3" y="13" width="1" height="1" fill="rgb(2,2,0)"/>
<rect x="4" y="13" width="1" height="1" fill="rgb(57,59,54)"/>
<rect x="5" y="13" width="1" height="1" fill="rgb(245,236,227)"/>
<rect x="6" y="13" width="1" height="1" fill="rgb(247,242,238)"/>
<rect x="7" y="13" width="1" height="1" fill="rgb(48,61,69)"/>
<rect x="8" y="13" width="1" height="1" fill="rgb(37,53,68)"/>
<rect x="9" y="13" width="1" height="1" fill="rgb(246,236,234)"/>
<rect x="10" y="13" width="2" height="1" fill="rgb(245,236,227)"/>
<rect x="12" y="13" width="1" height="1" fill="rgb(36,53,69)"/>
<rect x="13" y="13" width="1" height="1" fill="rgb(37,53,68)"/>
<rect x="14" y="13" width="1" height="1" fill="rgb(37,53,69)"/>
<rect x="15" y="13" width="1" height="1" fill="rgb(245,235,226)"/>
<rect x="16" y="13" width="2" height="1" fill="rgb(245,236,227)"/>
<rect x="18" y="13" width="1" height="1" fill="rgb(38,54,69)"/>
<rect x="19" y="13" width="1" height="1" fill="rgb(37,53,68)"/>
<rect x="20" y="13" width="1" height="1" fill="rgb(243,236,230)"/>
<rect x="21" y="13" width="2" height="1" fill="rgb(245,236,227)"/>
<rect x="23" y="13" width="1" height="1" fill="rgb(36,53,69)"/>
<rect x="24" y="13" width="1" height="1" fill="rgb(37,53,68)"/>
<rect x="25" y="13" width="1" height="1" fill="rgb(40,51,71)"/>
<rect x="26" y="13" width="1" height="1" fill="rgb(245,237,226)"/>
<rect x="27" y="13" width="1" height="1" fill="rgb(245,236,227)"/>
<rect x="28" y="13" width="1" height="1" fill="rgb(247,236,230)"/>
<rect x="29" y="13" width="1" height="1" fill="rgb(27,27,26)" fill-opacity="0.8"/>
<rect x="3" y="14" width="1" height="1" fill="rgb(2,2,2)"/>
<rect x="4" y="14" width="1" height="1" fill="rgb(57,59,54)"/>
<rect x="5" y="14" width="1" height="1" fill="rgb(245,236,227)"/>
<rect x="6" y="14" width="1" height="1" fill="rgb(244,243,239)"/>
<rect x="7" y="14" width="1" height="1" fill="rgb(43,60,70)"/>
<rect x="8" y="14" width="1" height="1" fill="rgb(34,53,68)"/>
<rect x="9" y="14" width="1" height="1" fill="rgb(242,239,234)"/>
<rect x="10" y="14" width="2" height="1" fill="rgb(245,236,227)"/>
<rect x="12" y="14" width="1" height="1" fill="rgb(33,55,68)"/>
<rect x="13" y="14" width="1" height="1" fill="rgb(34,53,68)"/>
<rect x="14" y="14" width="1" height="1" fill="rgb(32,54,68)"/>
<rect x="15" y="14" width="1" height="1" fill="rgb(245,234,228)"/>
<rect x="16" y="14" width="2" height="1" fill="rgb(245,236,227)"/>
<rect x="18" y="14" width="1" height="1" fill="rgb(35,54,69)"/>
<rect x="19" y="14" width="1" height="1" fill="rgb(34,53,68)"/>
<rect x="20" y="14" width="1" height="1" fill="rgb(244,237,229)"/>
<rect x="21" y="14" width="2" height="1" fill="rgb(245,236,227)"/>
<rect x="23" y="14" width="1" height="1" fill="rgb(37,51,64)"/>
<rect x="24" y="14" width="1" height="1" fill="rgb(34,53,68)"/>
<rect x="25" y="14" width="1" height="1" fill="rgb(34,53,67)"/>
<rect x="26" y="14" width="2" height="1" fill="rgb(245,236,227)"/>
<rect x="28" y="14" width="1" height="1" fill="rgb(247,236,230)"/>
<rect x="29" y="14" width="1" height="1" fill="rgb(27,27,26)" fill-opacity="0.8"/>
<rect x="3" y="15" width="1" height="1" fill="rgb(2,2,2)"/>
<rect x="4" y="15" width="1" height="1" fill="rgb(57,59,54)"/>
<rect x="5" y="15" width="2" height="1" fill="rgb(245,236,227)"/>
<rect x="7" y="15" width="1" height="1" fill="rgb(246,238,227)"/>
<rect x="8" y="15" width="1" height="1" fill="rgb(242,238,229)"/>
<rect x="9" y="15" width="1" height="1" fill="rgb(245,236,229)"/>
<rect x="10" y="15" width="2" height="1" fill="rgb(245,236,227)"/>
<rect x="12" y="15" width="1" height="1" fill="rgb(242,237,231)"/>
<rect x="13" y="15" width="1" height="1" fill="rgb(242,238,229)"/>
<rect x="14" y="15" width="1" height="1" fill="rgb(245,237,226)"/>
<rect x="15" y="15" width="3" height="1" fill="rgb(245,236,227)"/>
<rect x="18" y="15" width="1" height="1" fill="rgb(242,237,231)"/>
<rect x="19" y="15" width="1" height="1" fill="rgb(242,238,229)"/>
<rect x="20" y="15" width="1" height="1" fill="rgb(244,238,226)"/>
<rect x="21" y="15" width="2" height="1" fill="rgb(245,236,227)"/>
<rect x="23" y="15" width="1" height="1" fill="rgb(246,235,229)"/>
<rect x="24" y="15" width="1" height="1" fill="rgb(242,238,229)"/>
<rect x="25" y="15" width="1" height="1" fill="rgb(248,235,226)"/>
<rect x="26" y="15" width="2" height="1" fill="rgb(245,236,227)"/>
<rect x="28" y="15" width="1" height="1" fill="rgb(247,236,230)"/>
<rect x="29" y="15" width="1" height="1" fill="rgb(27,27,26)" fill-opacity="0.8"/>
<rect x="3" y="16" width="1" height="1" fill="rgb(2,2,2)"/>
<rect x="4" y="16" width="1" height="1" fill="rgb(57,59,54)"/>
<rect x="5" y="16" width="23" height="1" fill="rgb(245,236,227)"/>
<rect x="28" y="16" width="1" height="1" fill="rgb(247,236,230)"/>
<rect x="29" y="16" width="1" height="1" fill="rgb(27,27,26)" fill-opacity="0.8"/>
<rect x="3" y="17" width="1" height="1" fill="rgb(2,2,2)"/>
<rect x="4" y="17" width="1" height="1" fill="rgb(57,59,54)"/>
<rect x="5" y="17" width="1" height="1" fill="rgb(245,236,227)"/>
<rect x="6" y="17" width="1" height="1" fill="rgb(246,243,238)"/>
<rect x="7" y="17" width="1" height="1" fill="rgb(46,59,65)"/>
<rect x="8" y="17" width="1" height="1" fill="rgb(40,51,71)"/>
<rect x="9" y="17" width="1" height="1" fill="rgb(244,238,224)"/>
<rect x="10" y="17" width="2" height="1" fill="rgb(245,236,227)"/>
<rect x="12" y="17" width="1" height="1" fill="rgb(39,50,70)"/>
<rect x="13" y="17" width="1" height="1" fill="rgb(34,53,70)"/>
<rect x="14" y="17" width="1" height="1" fill="rgb(34,53,68)"/>
<rect x="15" y="17" width="1" height="1" fill="rgb(245,235,226)"/>
<rect x="16" y="17" width="1" height="1" fill="rgb(245,236,227)"/>
<rect x="17" y="17" width="1" height="1" fill="rgb(242,237,231)"/>
<rect x="18" y="17" width="1" height="1" fill="rgb(36,55,72)"/>
<rect x="19" y="17" width="1" height="1" fill="rgb(34,53,70)"/>
<rect x="20" y="17" width="1" height="1" fill="rgb(241,237,226)"/>
<rect x="21" y="17" width="2" height="1" fill="rgb(245,236,227)"/>
<rect x="23" y="17" width="1" height="1" fill="rgb(31,53,74)"/>
<rect x="24" y="17" width="1" height="1" fill="rgb(34,53,70)"/>
<rect x="25" y="17" width="1" height="1" fill="rgb(34,54,65)"/>
<rect x="26" y="17" width="1" height="1" fill="rgb(246,236,226)"/>
<rect x="27" y="17" width="1" height="1" fill="rgb(245,236,227)"/>
<rect x="28" y="17" width="1" height="1" fill="rgb(247,236,230)"/>
<rect x="29" y="17" width="1" height="1" fill="rgb(27,27,26)" fill-opacity="0.8"/>
<rect x="3" y="18" width="1" height="1" fill="rgb(3,3,1)"/>
<rect x="4" y="18" width="1" height="1" fill="rgb(58,60,55)"/>
<rect x="5" y="18" width="1" height="1" fill="rgb(245,236,227)"/>
<rect x="6" y="18" width="1" height="1" fill="rgb(246,243,238)"/>
<rect x="7" y="18" width="1" height="1" fill="rgb(50,63,72)"/>
<rect x="8" y="18" width="1" height="1" fill="rgb(38,54,69)"/>
<rect x="9" y="18" width="1" height="1" fill="rgb(248,238,236)"/>
<rect x="10" y="18" width="1" height="1" fill="rgb(245,236,229)"/>
<rect x="11" y="18" width="1" height="1" fill="rgb(245,236,227)"/>
<rect x="12" y="18" width="1" height="1" fill="rgb(37,53,69)"/>
<rect x="13" y="18" width="1" height="1" fill="rgb(38,54,69)"/>
<rect x="14" y="18" width="1" height="1" fill="rgb(38,54,67)"/>
<rect x="15" y="18" width="1" height="1" fill="rgb(245,235,226)"/>
<rect x="16" y="18" width="1" height="1" fill="rgb(245,236,227)"/>
<rect x="17" y="18" width="1" height="1" fill="rgb(246,236,227)"/>
<rect x="18" y="18" width="1" height="1" fill="rgb(39,55,70)"/>
<rect x="19" y="18" width="1" height="1" fill="rgb(38,54,69)"/>
<rect x="20" y="18" width="1" height="1" fill="rgb(245,238,230)"/>
<rect x="21" y="18" width="2" height="1" fill="rgb(245,236,227)"/>
<rect x="23" y="18" width="1" height="1" fill="rgb(36,53,69)"/>
<rect x="24" y="18" width="1" height="1" fill="rgb(38,54,69)"/>
<rect x="25" y="18" width="1" height="1" fill="rgb(37,54,70)"/>
<rect x="26" y="18" width="1" height="1" fill="rgb(245,237,226)"/>
<rect x="27" y="18" width="1" height="1" fill="rgb(245,236,227)"/>
<rect x="28" y="18" width="1" height="1" fill="rgb(247,236,230)"/>
<rect x="29" y="18" width="1" height="1" fill="rgb(30,30,27)" fill-opacity="0.8"/>
<rect x="3" y="19" width="1" height="1" fill="rgb(1,1,1)"/>
<rect x="4" y="19" width="1" height="1" fill="rgb(58,60,55)"/>
<rect x="5" y="19" width="1" height="1" fill="rgb(245,236,227)"/>
<rect x="6" y="19" width="1" height="1" fill="rgb(246,243,238)"/>
<rect x="7" y="19" width="1" height="1" fill="rgb(46,60,69)"/>
<rect x="8" y="19" width="1" height="1" fill="rgb(40,53,69)"/>
<rect x="9" y="19" width="1" height="1" fill="rgb(242,235,229)"/>
<rect x="10" y="19" width="1" height="1" fill="rgb(246,237,230)"/>
<rect x="11" y="19" width="1" height="1" fill="rgb(245,236,227)"/>
<rect x="12" y="19" width="1" height="1" fill="rgb(37,53,69)"/>
<rect x="13" y="19" width="1" height="1" fill="rgb(40,53,69)"/>
<rect x="14" y="19" width="1" height="1" fill="rgb(36,56,67)"/>
<rect x="15" y="19" width="1" height="1" fill="rgb(245,235,226)"/>
<rect x="16" y="19" width="1" height="1" fill="rgb(245,236,227)"/>
<rect x="17" y="19" width="1" height="1" fill="rgb(243,240,235)"/>
<rect x="18" y="19" width="1" height="1" fill="rgb(42,55,71)"/>
<rect x="19" y="19" width="1" height="1" fill="rgb(40,53,69)"/>
<rect x="20" y="19" width="1" height="1" fill="rgb(241,236,232)"/>
<rect x="21" y="19" width="2" height="1" fill="rgb(245,236,227)"/>
<rect x="23" y="19" width="1" height="1" fill="rgb(38,55,71)"/>
<rect x="24" y="19" width="1" height="1" fill="rgb(38,54,69)"/>
<rect x="25" y="19" width="1" height="1" fill="rgb(37,53,69)"/>
<rect x="26" y="19" width="1" height="1" fill="rgb(245,237,226)"/>
<rect x="27" y="19" width="1" height="1" fill="rgb(245,236,227)"/>
<rect x="28" y="19" width="1" height="1" fill="rgb(247,236,230)"/>
<rect x="29" y="19" width="1" height="1" fill="rgb(30,30,27)" fill-opacity="0.8"/>
<rect x="3" y="20" width="1" height="1" fill="rgb(1,1,1)"/>
<rect x="4" y="20" width="1" height="1" fill="rgb(56,58,53)"/>
<rect x="5" y="20" width="23" height="1" fill="rgb(245,236,227)"/>
<rect x="28" y="20" width="1" height="1" fill="rgb(247,236,230)"/>
<rect x="29" y="20" width="1" height="1" fill="rgb(32,32,30)" fill-opacity="0.8"/>
<rect x="3" y="21" width="1" height="1" fill="rgb(2,2,0)"/>
<rect x="4" y="21" width="1" height="1" fill="rgb(57,59,54)"/>
<rect x="5" y="21" width="1" height="1" fill="rgb(245,236,227)"/>
<rect x="6" y="21" width="1" height="1" fill="rgb(244,235,226)"/>
<rect x="7" y="21" width="2" height="1" fill="rgb(245,237,226)"/>
<rect x="9" y="21" width="1" height="1" fill="rgb(243,233,223)"/>
<rect x="10" y="21" width="2" height="1" fill="rgb(245,236,227)"/>
<rect x="12" y="21" width="1" height="1" fill="rgb(244,235,226)"/>
<rect x="13" y="21" width="1" height="1" fill="rgb(245,237,226)"/>
<rect x="14" y="21" width="1" height="1" fill="rgb(244,238,226)"/>
<rect x="15" y="21" width="1" height="1" fill="rgb(245,237,226)"/>
<rect x="16" y="21" width="1" height="1" fill="rgb(245,236,227)"/>
<rect x="17" y="21" width="1" height="1" fill="rgb(246,236,226)"/>
<rect x="18" y="21" width="1" height="1" fill="rgb(244,236,225)"/>
<rect x="19" y="21" width="1" height="1" fill="rgb(245,237,226)"/>
<rect x="20" y="21" width="1" height="1" fill="rgb(249,239,229)"/>
<rect x="21" y="21" width="2" height="1" fill="rgb(245,236,227)"/>
<rect x="23" y="21" width="1" height="1" fill="rgb(248,239,230)"/>
<rect x="24" y="21" width="1" height="1" fill="rgb(245,237,226)"/>
<rect x="25" y="21" width="1" height="1" fill="rgb(244,237,229)"/>
<rect x="26" y="21" width="2" height="1" fill="rgb(245,236,227)"/>
<rect x="28" y="21" width="1" height="1" fill="rgb(247,236,230)"/>
<rect x="29" y="21" width="1" height="1" fill="rgb(29,29,27)" fill-opacity="0.8"/>
<rect x="3" y="22" width="1" height="1" fill="rgb(2,2,0)"/>
<rect x="4" y="22" width="1" height="1" fill="rgb(57,59,54)"/>
<rect x="5" y="22" width="1" height="1" fill="rgb(245,236,227)"/>
<rect x="6" y="22" width="1" height="1" fill="rgb(246,243,238)"/>
<rect x="7" y="22" width="1" height="1" fill="rgb(55,64,69)"/>
<rect x="8" y="22" width="1" height="1" fill="rgb(47,57,67)"/>
<rect x="9" y="22" width="3" height="1" fill="rgb(245,236,227)"/>
<rect x="12" y="22" width="1" height="1" fill="rgb(45,57,69)"/>
<rect x="13" y="22" width="2" height="1" fill="rgb(47,57,67)"/>
<rect x="15" y="22" width="1" height="1" fill="rgb(245,237,226)"/>
<rect x="16" y="22" width="1" height="1" fill="rgb(245,236,227)"/>
<rect x="17" y="22" width="1" height="1" fill="rgb(247,237,228)"/>
<rect x="18" y="22" width="1" height="1" fill="rgb(48,58,67)"/>
<rect x="19" y="22" width="1" height="1" fill="rgb(47,57,67)"/>
<rect x="20" y="22" width="1" height="1" fill="rgb(243,236,228)"/>
<rect x="21" y="22" width="2" height="1" fill="rgb(245,236,227)"/>
<rect x="23" y="22" width="1" height="1" fill="rgb(44,56,68)"/>
<rect x="24" y="22" width="1" height="1" fill="rgb(47,57,67)"/>
<rect x="25" y="22" width="1" height="1" fill="rgb(42,59,67)"/>
<rect x="26" y="22" width="1" height="1" fill="rgb(246,236,227)"/>
<rect x="27" y="22" width="1" height="1" fill="rgb(245,236,227)"/>
<rect x="28" y="22" width="1" height="1" fill="rgb(247,236,230)"/>
<rect x="29" y="22" width="1" height="1" fill="rgb(28,28,26)" fill-opacity="0.796"/>
<rect x="3" y="23" width="1" height="1" fill="rgb(2,2,0)"/>
<rect x="4" y="23" width="1" height="1" fill="rgb(57,59,54)"/>
<rect x="5" y="23" width="1" height="1" fill="rgb(245,236,227)"/>
<rect x="6" y="23" width="1" height="1" fill="rgb(246,243,238)"/>
<rect x="7" y="23" width="1" height="1" fill="rgb(48,61,70)"/>
<rect x="8" y="23" width="1" height="1" fill="rgb(37,53,68)"/>
<rect x="9" y="23" width="1" height="1" fill="rgb(246,236,234)"/>
<rect x="10" y="23" width="1" height="1" fill="rgb(245,236,229)"/>
<rect x="11" y="23" width="1" height="1" fill="rgb(245,236,227)"/>
<rect x="12" y="23" width="1" height="1" fill="rgb(37,53,69)"/>
<rect x="13" y="23" width="1" height="1" fill="rgb(37,53,68)"/>
<rect x="14" y="23" width="1" height="1" fill="rgb(37,53,66)"/>
<rect x="15" y="23" width="1" height="1" fill="rgb(245,235,226)"/>
<rect x="16" y="23" width="1" height="1" fill="rgb(245,236,227)"/>
<rect x="17" y="23" width="1" height="1" fill="rgb(246,236,227)"/>
<rect x="18" y="23" width="1" height="1" fill="rgb(38,54,69)"/>
<rect x="19" y="23" width="1" height="1" fill="rgb(37,53,68)"/>
<rect x="20" y="23" width="1" height="1" fill="rgb(243,236,228)"/>
<rect x="21" y="23" width="2" height="1" fill="rgb(245,236,227)"/>
<rect x="23" y="23" width="1" height="1" fill="rgb(36,52,68)"/>
<rect x="24" y="23" width="1" height="1" fill="rgb(37,53,68)"/>
<rect x="25" y="23" width="1" height="1" fill="rgb(37,53,69)"/>
<rect x="26" y="23" width="2" height="1" fill="rgb(245,236,227)"/>
<rect x="28" y="23" width="1" height="1" fill="rgb(247,236,230)"/>
<rect x="29" y="23" width="1" height="1" fill="rgb(27,27,26)" fill-opacity="0.8"/>
<rect x="3" y="24" width="1" height="1" fill="rgb(0,0,0)"/>
<rect x="4" y="24" width="1" height="1" fill="rgb(57,59,54)"/>
<rect x="5" y="24" width="1" height="1" fill="rgb(245,236,227)"/>
<rect x="6" y="24" width="1" height="1" fill="rgb(246,243,238)"/>
<rect x="7" y="24" width="1" height="1" fill="rgb(50,57,65)"/>
<rect x="8" y="24" width="1" height="1" fill="rgb(34,50,66)"/>
<rect x="9" y="24" width="1" height="1" fill="rgb(245,236,229)"/>
<rect x="10" y="24" width="2" height="1" fill="rgb(245,236,227)"/>
<rect x="12" y="24" width="1" height="1" fill="rgb(35,51,67)"/>
<rect x="13" y="24" width="1" height="1" fill="rgb(34,50,66)"/>
<rect x="14" y="24" width="1" height="1" fill="rgb(39,49,61)"/>
<rect x="15" y="24" width="1" height="1" fill="rgb(244,235,226)"/>
<rect x="16" y="24" width="1" height="1" fill="rgb(245,236,227)"/>
<rect x="17" y="24" width="1" height="1" fill="rgb(242,237,231)"/>
<rect x="18" y="24" width="1" height="1" fill="rgb(35,51,67)"/>
<rect x="19" y="24" width="1" height="1" fill="rgb(34,50,66)"/>
<rect x="20" y="24" width="1" height="1" fill="rgb(241,234,228)"/>
<rect x="21" y="24" width="2" height="1" fill="rgb(245,236,227)"/>
<rect x="23" y="24" width="1" height="1" fill="rgb(35,48,65)"/>
<rect x="24" y="24" width="1" height="1" fill="rgb(34,50,66)"/>
<rect x="25" y="24" width="1" height="1" fill="rgb(40,48,61)"/>
<rect x="26" y="24" width="1" height="1" fill="rgb(246,237,228)"/>
<rect x="27" y="24" width="1" height="1" fill="rgb(245,236,227)"/>
<rect x="28" y="24" width="1" height="1" fill="rgb(247,236,230)"/>
<rect x="29" y="24" width="1" height="1" fill="rgb(27,27,26)" fill-opacity="0.8"/>
<rect x="3" y="25" width="1" height="1" fill="rgb(1,1,1)"/>
<rect x="4" y="25" width="1" height="1" fill="rgb(57,59,54)"/>
<rect x="5" y="25" width="18" height="1" fill="rgb(245,236,227)"/>
<rect x="23" y="25" width="1" height="1" fill="rgb(245,236,229)"/>
<rect x="24" y="25" width="3" height="1" fill="rgb(245,236,227)"/>
<rect x="27" y="25" width="1" height="1" fill="rgb(248,239,232)"/>
<rect x="28" y="25" width="1" height="1" fill="rgb(245,242,237)"/>
<rect x="29" y="25" width="1" height="1" fill="rgb(27,27,26)" fill-opacity="0.8"/>
<rect x="3" y="26" width="1" height="1" fill="rgb(5,5,3)"/>
<rect x="4" y="26" width="1" height="1" fill="rgb(61,62,57)"/>
<rect x="5" y="26" width="21" height="1" fill="rgb(244,240,231)"/>
<rect x="26" y="26" width="1" height="1" fill="rgb(246,239,231)"/>
<rect x="27" y="26" width="1" height="1" fill="rgb(173,175,174)"/>
<rect x="28" y="26" width="1" height="1" fill="rgb(176,180,179)"/>
<rect x="29" y="26" width="1" height="1" fill="rgb(29,29,28)" fill-opacity="0.78"/>
<rect x="3" y="27" width="1" height="1" fill="rgb(22,22,20)"/>
<rect x="4" y="27" width="1" height="1" fill="rgb(60,62,59)"/>
<rect x="5" y="27" width="22" height="1" fill="rgb(189,191,190)"/>
<rect x="27" y="27" width="1" height="1" fill="rgb(179,185,185)"/>
<rect x="28" y="27" width="1" height="1" fill="rgb(180,184,185)"/>
<rect x="29" y="27" width="1" height="1" fill="rgb(39,39,38)" fill-opacity="0.737"/>
<rect x="3" y="28" width="1" height="1" fill="rgb(255,255,255)" fill-opacity="0.004"/>
<rect x="4" y="28" width="1" height="1" fill="rgb(13,15,14)"/>
<rect x="5" y="28" width="23" height="1" fill="rgb(10,12,11)"/>
<rect x="28" y="28" width="1" height="1" fill="rgb(11,13,12)"/>
<rect x="29" y="28" width="1" height="1" fill="rgb(38,38,36)" fill-opacity="0.773"/>
</svg>