<svg xmlns="http://www.w3.org/2000/svg" viewBox="0 0 48 48">
<rect x="22" y="9" width="1" height="1" fill="rgb(24,24,24)" fill-opacity="0.988"/>
<rect x="23" y="9" width="2" height="1" fill="rgb(24,24,24)" fill-opacity="0.984"/>
<rect x="25" y="9" width="1" height="1" fill="rgb(24,24,24)" fill-opacity="0.976"/>
<rect x="26" y="9" width="1" height="1" fill="rgb(23,25,24)" fill-opacity="0.965"/>
<rect x="27" y="9" width="1" height="1" fill="rgb(17,19,18)" fill-opacity="0.976"/>
<rect x="20" y="10" width="1" height="1" fill="rgb(0,0,0)"/>
<rect x="21" y="10" width="1" height="1" fill="rgb(2,2,2)"/>
<rect x="22" y="10" width="5" height="1" fill="rgb(0,2,1)"/>
<rect x="27" y="10" width="2" height="1" fill="rgb(0,0,0)"/>
<rect x="29" y="10" width="1" height="1" fill="rgb(8,9,11)"/>
<rect x="18" y="11" width="1" height="1" fill="rgb(7,7,9)"/>
<rect x="19" y="11" width="1" height="1" fill="rgb(0,0,0)"/>
<rect x="20" y="11" width="1" height="1" fill="rgb(8,9,11)"/>
<rect x="21" y="11" width="1" height="1" fill="rgb(7,10,17)"/>
<rect x="22" y="11" width="4" height="1" fill="rgb(217,224,234)"/>
<rect x="26" y="11" width="1" height="1" fill="rgb(217,224,232)"/>
<rect x="27" y="11" width="1" height="1" fill="rgb(224,229,235)"/>
<rect x="28" y="11" width="1" height="1" fill="rgb(8,9,13)"/>
<rect x="29" y="11" width="1" height="1" fill="rgb(9,10,14)"/>
<rect x="30" y="11" width="1" height="1" fill="rgb(2,1,0)"/>
<rect x="16" y="12" width="1" height="1" fill="rgb(0,2,1)"/>
<rect x="17" y="12" width="1" height="1" fill="rgb(0,0,0)"/>
<rect x="18" y="12" width="1" height="1" fill="rgb(220,223,232)"/>
<rect x="19" y="12" width="1" height="1" fill="rgb(217,224,234)"/>
<rect x="20" y="12" width="1" height="1" fill="rgb(215,222,238)"/>
<rect x="21" y="12" width="1" height="1" fill="rgb(214,223,230)"/>
<rect x="22" y="12" width="1" height="1" fill="rgb(217,224,234)"/>
<rect x="23" y="12" width="1" height="1" fill="rgb(216,222,234)"/>
<rect x="24" y="12" width="1" height="1" fill="rgb(218,224,236)"/>
<rect x="25" y="12" width="1" height="1" fill="rgb(217,224,232)"/>
<rect x="26" y="12" width="1" height="1" fill="rgb(217,223,235)"/>
<rect x="27" y="12" width="1" height="1" fill="rgb(216,224,235)"/>
<rect x="28" y="12" width="1" height="1" fill="rgb(217,223,235)"/>
<rect x="29" y="12" width="1" height="1" fill="rgb(217,224,234)"/>
<rect x="30" y="12" width="1" height="1" fill="rgb(217,224,232)"/>
<rect x="31" y="12" width="1" height="1" fill="rgb(1,2,6)"/>
<rect x="32" y="12" width="1" height="1" fill="rgb(2,2,4)"/>
<rect x="15" y="13" width="1" height="1" fill="rgb(0,0,0)"/>
<rect x="16" y="13" width="1" height="1" fill="rgb(4,8,11)"/>
<rect x="17" y="13" width="1" height="1" fill="rgb(216,223,233)"/>
<rect x="18" y="13" width="1" height="1" fill="rgb(180,186,208)"/>
<rect x="19" y="13" width="1" height="1" fill="rgb(180,185,207)"/>
<rect x="20" y="13" width="1" height="1" fill="rgb(181,186,208)"/>
<rect x="21" y="13" width="1" height="1" fill="rgb(181,185,212)"/>
<rect x="22" y="13" width="1" height="1" fill="rgb(217,223,235)"/>
<rect x="23" y="13" width="1" height="1" fill="rgb(180,185,207)"/>
<rect x="24" y="13" width="1" height="1" fill="rgb(176,181,200)"/>
<rect x="25" y="13" width="2" height="1" fill="rgb(217,224,234)"/>
<rect x="27" y="13" width="1" height="1" fill="rgb(217,224,232)"/>
<rect x="28" y="13" width="1" height="1" fill="rgb(217,224,234)"/>
<rect x="29" y="13" width="1" height="1" fill="rgb(219,223,232)"/>
<rect x="30" y="13" width="1" height="1" fill="rgb(217,224,234)"/>
<rect x="31" y="13" width="1" height="1" fill="rgb(218,225,235)"/>
<rect x="32" y="13" width="1" height="1" fill="rgb(219,224,230)"/>
<rect x="33" y="13" width="2" height="1" fill="rgb(0,1,3)"/>
<rect x="13" y="14" width="1" height="1" fill="rgb(100,100,102)" fill-opacity="0.541"/>
<rect x="14" y="14" width="1" height="1" fill="rgb(0,0,0)"/>
<rect x="15" y="14" width="1" height="1" fill="rgb(159,162,167)"/>
<rect x="16" y="14" width="1" height="1" fill="rgb(222,226,238)"/>
<rect x="17" y="14" width="1" height="1" fill="rgb(192,196,221)"/>
<rect x="18" y="14" width="1" height="1" fill="rgb(219,225,237)"/>
<rect x="19" y="14" width="1" height="1" fill="rgb(200,205,225)"/>
<rect x="20" y="14" width="1" height="1" fill="rgb(180,184,211)"/>
<rect x="21" y="14" width="1" height="1" fill="rgb(181,185,212)"/>
<rect x="22" y="14" width="1" height="1" fill="rgb(180,184,209)"/>
<rect x="23" y="14" width="1" height="1" fill="rgb(180,184,211)"/>
<rect x="24" y="14" width="1" height="1" fill="rgb(194,199,221)"/>
<rect x="25" y="14" width="1" height="1" fill="rgb(216,222,238)"/>
<rect x="26" y="14" width="2" height="1" fill="rgb(217,224,234)"/>
<rect x="28" y="14" width="1" height="1" fill="rgb(217,223,235)"/>
<rect x="29" y="14" width="1" height="1" fill="rgb(125,133,144)"/>
<rect x="30" y="14" width="1" height="1" fill="rgb(139,146,164)"/>
<rect x="31" y="14" width="1" height="1" fill="rgb(209,217,230)"/>
<rect x="32" y="14" width="1" height="1" fill="rgb(216,223,233)"/>
<rect x="33" y="14" width="1" height="1" fill="rgb(158,161,170)"/>
<rect x="34" y="14" width="1" height="1" fill="rgb(0,0,2)"/>
<rect x="35" y="14" width="1" height="1" fill="rgb(18,18,18)" fill-opacity="0.949"/>
<rect x="13" y="15" width="1" height="1" fill="rgb(0,1,0)"/>
<rect x="14" y="15" width="1" height="1" fill="rgb(12,13,17)"/>
<rect x="15" y="15" width="1" height="1" fill="rgb(179,184,204)"/>
<rect x="16" y="15" width="1" height="1" fill="rgb(217,224,234)"/>
<rect x="17" y="15" width="1" height="1" fill="rgb(217,223,237)"/>
<rect x="18" y="15" width="1" height="1" fill="rgb(114,120,144)"/>
<rect x="19" y="15" width="1" height="1" fill="rgb(114,121,140)"/>
<rect x="20" y="15" width="2" height="1" fill="rgb(180,184,209)"/>
<rect x="22" y="15" width="2" height="1" fill="rgb(180,184,211)"/>
<rect x="24" y="15" width="1" height="1" fill="rgb(177,182,204)"/>
<rect x="25" y="15" width="1" height="1" fill="rgb(217,223,235)"/>
<rect x="26" y="15" width="1" height="1" fill="rgb(217,224,232)"/>
<rect x="27" y="15" width="1" height="1" fill="rgb(217,223,235)"/>
<rect x="28" y="15" width="1" height="1" fill="rgb(78,84,98)"/>
<rect x="29" y="15" width="1" height="1" fill="rgb(108,116,135)"/>
<rect x="30" y="15" width="1" height="1" fill="rgb(144,152,175)"/>
<rect x="31" y="15" width="1" height="1" fill="rgb(113,119,141)"/>
<rect x="32" y="15" width="1" height="1" fill="rgb(217,224,232)"/>
<rect x="33" y="15" width="1" height="1" fill="rgb(213,222,231)"/>
<rect x="34" y="15" width="1" height="1" fill="rgb(222,225,232)"/>
<rect x="35" y="15" width="1" height="1" fill="rgb(0,0,0)"/>
<rect x="12" y="16" width="1" height="1" fill="rgb(32,32,32)" fill-opacity="0.886"/>
<rect x="13" y="16" width="1" height="1" fill="rgb(3,7,10)"/>
<rect x="14" y="16" width="1" height="1" fill="rgb(218,222,233)"/>
<rect x="15" y="16" width="1" height="1" fill="rgb(181,185,210)"/>
<rect x="16" y="16" width="1" height="1" fill="rgb(178,183,205)"/>
<rect x="17" y="16" width="1" height="1" fill="rgb(161,166,185)"/>
<rect x="18" y="16" width="1" height="1" fill="rgb(143,150,178)"/>
<rect x="19" y="16" width="1" height="1" fill="rgb(138,143,172)"/>
<rect x="20" y="16" width="4" height="1" fill="rgb(180,184,211)"/>
<rect x="24" y="16" width="1" height="1" fill="rgb(178,182,207)"/>
<rect x="25" y="16" width="1" height="1" fill="rgb(179,183,208)"/>
<rect x="26" y="16" width="1" height="1" fill="rgb(221,227,243)"/>
<rect x="27" y="16" width="1" height="1" fill="rgb(217,224,232)"/>
<rect x="28" y="16" width="1" height="1" fill="rgb(112,118,140)"/>
<rect x="29" y="16" width="1" height="1" fill="rgb(108,115,141)"/>
<rect x="30" y="16" width="1" height="1" fill="rgb(178,184,208)"/>
<rect x="31" y="16" width="1" height="1" fill="rgb(142,149,175)"/>
<rect x="32" y="16" width="1" height="1" fill="rgb(220,226,242)"/>
<rect x="33" y="16" width="1" height="1" fill="rgb(217,224,234)"/>
<rect x="34" y="16" width="1" height="1" fill="rgb(211,218,228)"/>
<rect x="35" y="16" width="1" height="1" fill="rgb(211,214,221)"/>
<rect x="36" y="16" width="1" height="1" fill="rgb(0,0,2)"/>
<rect x="12" y="17" width="1" height="1" fill="rgb(1,1,3)"/>
<rect x="13" y="17" width="1" height="1" fill="rgb(218,224,236)"/>
<rect x="14" y="17" width="1" height="1" fill="rgb(219,225,241)"/>
<rect x="15" y="17" width="1" height="1" fill="rgb(180,184,211)"/>
<rect x="16" y="17" width="1" height="1" fill="rgb(180,184,213)"/>
<rect x="17" y="17" width="1" height="1" fill="rgb(175,179,208)"/>
<rect x="18" y="17" width="1" height="1" fill="rgb(169,176,204)"/>
<rect x="19" y="17" width="1" height="1" fill="rgb(180,184,209)"/>
<rect x="20" y="17" width="5" height="1" fill="rgb(180,184,211)"/>
<rect x="25" y="17" width="1" height="1" fill="rgb(181,185,212)"/>
<rect x="26" y="17" width="1" height="1" fill="rgb(207,212,232)"/>
<rect x="27" y="17" width="1" height="1" fill="rgb(190,195,215)"/>
<rect x="28" y="17" width="1" height="1" fill="rgb(190,197,215)"/>
<rect x="29" y="17" width="1" height="1" fill="rgb(180,184,209)"/>
<rect x="30" y="17" width="1" height="1" fill="rgb(166,172,198)"/>
<rect x="31" y="17" width="1" height="1" fill="rgb(168,175,201)"/>
<rect x="32" y="17" width="1" height="1" fill="rgb(181,186,208)"/>
<rect x="33" y="17" width="1" height="1" fill="rgb(218,225,235)"/>
<rect x="34" y="17" width="1" height="1" fill="rgb(217,224,234)"/>
<rect x="35" y="17" width="1" height="1" fill="rgb(216,225,234)"/>
<rect x="36" y="17" width="1" height="1" fill="rgb(4,5,9)"/>
<rect x="37" y="17" width="1" height="1" fill="rgb(1,1,1)"/>
<rect x="11" y="18" width="1" height="1" fill="rgb(0,0,0)"/>
<rect x="12" y="18" width="1" height="1" fill="rgb(220,223,230)"/>
<rect x="13" y="18" width="1" height="1" fill="rgb(72,84,98)"/>
<rect x="14" y="18" width="1" height="1" fill="rgb(70,78,91)"/>
<rect x="15" y="18" width="1" height="1" fill="rgb(183,185,210)"/>
<rect x="16" y="18" width="1" height="1" fill="rgb(178,182,207)"/>
<rect x="17" y="18" width="1" height="1" fill="rgb(179,184,213)"/>
<rect x="18" y="18" width="1" height="1" fill="rgb(180,184,211)"/>
<rect x="19" y="18" width="1" height="1" fill="rgb(178,183,205)"/>
<rect x="20" y="18" width="2" height="1" fill="rgb(217,223,235)"/>
<rect x="22" y="18" width="1" height="1" fill="rgb(213,219,235)"/>
<rect x="23" y="18" width="3" height="1" fill="rgb(180,184,211)"/>
<rect x="26" y="18" width="1" height="1" fill="rgb(177,181,208)"/>
<rect x="27" y="18" width="3" height="1" fill="rgb(180,184,211)"/>
<rect x="30" y="18" width="1" height="1" fill="rgb(179,183,210)"/>
<rect x="31" y="18" width="1" height="1" fill="rgb(180,184,211)"/>
<rect x="32" y="18" width="1" height="1" fill="rgb(182,186,213)"/>
<rect x="33" y="18" width="1" height="1" fill="rgb(179,183,208)"/>
<rect x="34" y="18" width="1" height="1" fill="rgb(218,224,238)"/>
<rect x="35" y="18" width="1" height="1" fill="rgb(217,224,232)"/>
<rect x="36" y="18" width="1" height="1" fill="rgb(223,229,241)"/>
<rect x="37" y="18" width="1" height="1" fill="rgb(6,4,5)"/>
<rect x="38" y="18" width="1" height="1" fill="rgb(219,219,219)" fill-opacity="0.027"/>
<rect x="11" y="19" width="1" height="1" fill="rgb(2,2,4)"/>
<rect x="12" y="19" width="1" height="1" fill="rgb(111,118,136)"/>
<rect x="13" y="19" width="1" height="1" fill="rgb(109,116,142)"/>
<rect x="14" y="19" width="1" height="1" fill="rgb(112,120,143)"/>
<rect x="15" y="19" width="1" height="1" fill="rgb(214,220,234)"/>
<rect x="16" y="19" width="1" height="1" fill="rgb(183,187,212)"/>
<rect x="17" y="19" width="1" height="1" fill="rgb(180,184,211)"/>
<rect x="18" y="19" width="1" height="1" fill="rgb(178,183,205)"/>
<rect x="19" y="19" width="1" height="1" fill="rgb(216,223,239)"/>
<rect x="20" y="19" width="1" height="1" fill="rgb(75,84,101)"/>
<rect x="21" y="19" width="1" height="1" fill="rgb(75,84,99)"/>
<rect x="22" y="19" width="1" height="1" fill="rgb(83,90,106)"/>
<rect x="23" y="19" width="1" height="1" fill="rgb(182,187,206)"/>
<rect x="24" y="19" width="9" height="1" fill="rgb(180,184,211)"/>
<rect x="33" y="19" width="1" height="1" fill="rgb(180,184,213)"/>
<rect x="34" y="19" width="1" height="1" fill="rgb(180,185,207)"/>
<rect x="35" y="19" width="1" height="1" fill="rgb(218,224,236)"/>
<rect x="36" y="19" width="1" height="1" fill="rgb(214,221,231)"/>
<rect x="37" y="19" width="1" height="1" fill="rgb(16,17,21)"/>
<rect x="38" y="19" width="1" height="1" fill="rgb(219,219,219)" fill-opacity="0.027"/>
<rect x="10" y="20" width="1" height="1" fill="rgb(2,2,4)"/>
<rect x="11" y="20" width="1" height="1" fill="rgb(0,0,4)"/>
<rect x="12" y="20" width="1" height="1" fill="rgb(107,113,135)"/>
<rect x="13" y="20" width="1" height="1" fill="rgb(109,116,144)"/>
<rect x="14" y="20" width="1" height="1" fill="rgb(105,112,138)"/>
<rect x="15" y="20" width="1" height="1" fill="rgb(75,84,99)"/>
<rect x="16" y="20" width="1" height="1" fill="rgb(180,186,212)"/>
<rect x="17" y="20" width="1" height="1" fill="rgb(180,184,211)"/>
<rect x="18" y="20" width="1" height="1" fill="rgb(130,138,161)"/>
<rect x="19" y="20" width="1" height="1" fill="rgb(104,112,135)"/>
<rect x="20" y="20" width="2" height="1" fill="rgb(109,116,142)"/>
<rect x="22" y="20" width="1" height="1" fill="rgb(107,114,140)"/>
<rect x="23" y="20" width="1" height="1" fill="rgb(97,104,122)"/>
<rect x="24" y="20" width="1" height="1" fill="rgb(179,183,210)"/>
<rect x="25" y="20" width="1" height="1" fill="rgb(180,184,209)"/>
<rect x="26" y="20" width="5" height="1" fill="rgb(180,184,211)"/>
<rect x="31" y="20" width="1" height="1" fill="rgb(181,184,209)"/>
<rect x="32" y="20" width="1" height="1" fill="rgb(180,184,211)"/>
<rect x="33" y="20" width="1" height="1" fill="rgb(180,184,209)"/>
<rect x="34" y="20" width="1" height="1" fill="rgb(181,185,212)"/>
<rect x="35" y="20" width="1" height="1" fill="rgb(186,192,208)"/>
<rect x="36" y="20" width="1" height="1" fill="rgb(218,224,236)"/>
<rect x="37" y="20" width="1" height="1" fill="rgb(224,228,237)"/>
<rect x="38" y="20" width="1" height="1" fill="rgb(1,1,3)"/>
<rect x="10" y="21" width="1" height="1" fill="rgb(2,2,4)"/>
<rect x="11" y="21" width="1" height="1" fill="rgb(0,1,2)"/>
<rect x="12" y="21" width="1" height="1" fill="rgb(111,119,138)"/>
<rect x="13" y="21" width="1" height="1" fill="rgb(109,116,144)"/>
<rect x="14" y="21" width="1" height="1" fill="rgb(109,116,142)"/>
<rect x="15" y="21" width="1" height="1" fill="rgb(180,186,210)"/>
<rect x="16" y="21" width="1" height="1" fill="rgb(178,184,210)"/>
<rect x="17" y="21" width="1" height="1" fill="rgb(180,185,207)"/>
<rect x="18" y="21" width="1" height="1" fill="rgb(109,116,142)"/>
<rect x="19" y="21" width="1" height="1" fill="rgb(110,117,143)"/>
<rect x="20" y="21" width="3" height="1" fill="rgb(109,116,142)"/>
<rect x="23" y="21" width="1" height="1" fill="rgb(72,79,98)"/>
<rect x="24" y="21" width="1" height="1" fill="rgb(222,228,244)"/>
<rect x="25" y="21" width="1" height="1" fill="rgb(180,184,209)"/>
<rect x="26" y="21" width="1" height="1" fill="rgb(180,183,214)"/>
<rect x="27" y="21" width="4" height="1" fill="rgb(180,184,211)"/>
<rect x="31" y="21" width="1" height="1" fill="rgb(179,185,211)"/>
<rect x="32" y="21" width="1" height="1" fill="rgb(180,184,209)"/>
<rect x="33" y="21" width="1" height="1" fill="rgb(180,184,213)"/>
<rect x="34" y="21" width="1" height="1" fill="rgb(179,184,204)"/>
<rect x="35" y="21" width="1" height="1" fill="rgb(219,225,239)"/>
<rect x="36" y="21" width="1" height="1" fill="rgb(213,220,228)"/>
<rect x="37" y="21" width="1" height="1" fill="rgb(224,228,239)"/>
<rect x="38" y="21" width="1" height="1" fill="rgb(1,1,1)"/>
<rect x="9" y="22" width="1" height="1" fill="rgb(196,196,196)" fill-opacity="0.051"/>
<rect x="10" y="22" width="1" height="1" fill="rgb(4,4,6)"/>
<rect x="11" y="22" width="1" height="1" fill="rgb(186,191,220)"/>
<rect x="12" y="22" width="1" height="1" fill="rgb(179,185,211)"/>
<rect x="13" y="22" width="1" height="1" fill="rgb(107,114,140)"/>
<rect x="14" y="22" width="1" height="1" fill="rgb(103,110,136)"/>
<rect x="15" y="22" width="2" height="1" fill="rgb(180,184,211)"/>
<rect x="17" y="22" width="1" height="1" fill="rgb(180,184,213)"/>
<rect x="18" y="22" width="1" height="1" fill="rgb(110,117,143)"/>
<rect x="19" y="22" width="4" height="1" fill="rgb(109,116,142)"/>
<rect x="23" y="22" width="1" height="1" fill="rgb(75,82,100)"/>
<rect x="24" y="22" width="1" height="1" fill="rgb(217,223,235)"/>
<rect x="25" y="22" width="1" height="1" fill="rgb(180,184,211)"/>
<rect x="26" y="22" width="1" height="1" fill="rgb(180,184,213)"/>
<rect x="27" y="22" width="4" height="1" fill="rgb(180,184,211)"/>
<rect x="31" y="22" width="1" height="1" fill="rgb(135,145,170)"/>
<rect x="32" y="22" width="1" height="1" fill="rgb(220,227,237)"/>
<rect x="33" y="22" width="1" height="1" fill="rgb(222,229,239)"/>
<rect x="34" y="22" width="1" height="1" fill="rgb(220,226,240)"/>
<rect x="35" y="22" width="1" height="1" fill="rgb(182,187,207)"/>
<rect x="36" y="22" width="1" height="1" fill="rgb(218,225,235)"/>
<rect x="37" y="22" width="1" height="1" fill="rgb(175,179,204)"/>
<rect x="38" y="22" width="1" height="1" fill="rgb(41,42,47)"/>
<rect x="39" y="22" width="1" height="1" fill="rgb(3,1,2)"/>
<rect x="9" y="23" width="1" height="1" fill="rgb(200,200,200)" fill-opacity="0.055"/>
<rect x="10" y="23" width="1" height="1" fill="rgb(0,0,0)"/>
<rect x="11" y="23" width="1" height="1" fill="rgb(184,190,216)"/>
<rect x="12" y="23" width="1" height="1" fill="rgb(150,157,185)"/>
<rect x="13" y="23" width="1" height="1" fill="rgb(172,179,205)"/>
<rect x="14" y="23" width="1" height="1" fill="rgb(153,160,186)"/>
<rect x="15" y="23" width="1" height="1" fill="rgb(179,183,210)"/>
<rect x="16" y="23" width="2" height="1" fill="rgb(180,184,211)"/>
<rect x="18" y="23" width="1" height="1" fill="rgb(173,179,205)"/>
<rect x="19" y="23" width="1" height="1" fill="rgb(106,113,139)"/>
<rect x="20" y="23" width="2" height="1" fill="rgb(109,116,142)"/>
<rect x="22" y="23" width="1" height="1" fill="rgb(102,110,131)"/>
<rect x="23" y="23" width="1" height="1" fill="rgb(205,215,227)"/>
<rect x="24" y="23" width="1" height="1" fill="rgb(187,192,214)"/>
<rect x="25" y="23" width="1" height="1" fill="rgb(180,184,213)"/>
<rect x="26" y="23" width="1" height="1" fill="rgb(180,185,207)"/>
<rect x="27" y="23" width="3" height="1" fill="rgb(180,184,211)"/>
<rect x="30" y="23" width="1" height="1" fill="rgb(198,203,225)"/>
<rect x="31" y="23" width="1" height="1" fill="rgb(213,219,233)"/>
<rect x="32" y="23" width="1" height="1" fill="rgb(87,95,108)"/>
<rect x="33" y="23" width="1" height="1" fill="rgb(102,110,131)"/>
<rect x="34" y="23" width="1" height="1" fill="rgb(121,128,146)"/>
<rect x="35" y="23" width="1" height="1" fill="rgb(220,226,238)"/>
<rect x="36" y="23" width="1" height="1" fill="rgb(182,187,209)"/>
<rect x="37" y="23" width="1" height="1" fill="rgb(178,182,207)"/>
<rect x="38" y="23" width="1" height="1" fill="rgb(42,43,48)"/>
<rect x="39" y="23" width="1" height="1" fill="rgb(1,0,0)"/>
<rect x="9" y="24" width="1" height="1" fill="rgb(204,204,204)" fill-opacity="0.059"/>
<rect x="10" y="24" width="1" height="1" fill="rgb(1,1,0)"/>
<rect x="11" y="24" width="1" height="1" fill="rgb(184,188,215)"/>
<rect x="12" y="24" width="1" height="1" fill="rgb(143,150,178)"/>
<rect x="13" y="24" width="1" height="1" fill="rgb(141,148,176)"/>
<rect x="14" y="24" width="1" height="1" fill="rgb(143,150,178)"/>
<rect x="15" y="24" width="1" height="1" fill="rgb(142,148,174)"/>
<rect x="16" y="24" width="1" height="1" fill="rgb(177,183,209)"/>
<rect x="17" y="24" width="1" height="1" fill="rgb(158,164,190)"/>
<rect x="18" y="24" width="1" height="1" fill="rgb(141,147,173)"/>
<rect x="19" y="24" width="1" height="1" fill="rgb(180,187,213)"/>
<rect x="20" y="24" width="1" height="1" fill="rgb(110,117,145)"/>
<rect x="21" y="24" width="1" height="1" fill="rgb(110,118,141)"/>
<rect x="22" y="24" width="1" height="1" fill="rgb(88,96,109)"/>
<rect x="23" y="24" width="1" height="1" fill="rgb(180,182,203)"/>
<rect x="24" y="24" width="5" height="1" fill="rgb(180,184,211)"/>
<rect x="29" y="24" width="1" height="1" fill="rgb(180,184,212)"/>
<rect x="30" y="24" width="1" height="1" fill="rgb(199,205,221)"/>
<rect x="31" y="24" width="1" height="1" fill="rgb(86,94,107)"/>
<rect x="32" y="24" width="1" height="1" fill="rgb(112,120,143)"/>
<rect x="33" y="24" width="1" height="1" fill="rgb(106,113,139)"/>
<rect x="34" y="24" width="1" height="1" fill="rgb(107,114,140)"/>
<rect x="35" y="24" width="1" height="1" fill="rgb(118,124,138)"/>
<rect x="36" y="24" width="1" height="1" fill="rgb(178,183,205)"/>
<rect x="37" y="24" width="1" height="1" fill="rgb(178,182,207)"/>
<rect x="38" y="24" width="1" height="1" fill="rgb(42,43,48)"/>
<rect x="39" y="24" width="1" height="1" fill="rgb(1,0,0)"/>
<rect x="9" y="25" width="1" height="1" fill="rgb(204,204,204)" fill-opacity="0.059"/>
<rect x="10" y="25" width="1" height="1" fill="rgb(0,0,0)"/>
<rect x="11" y="25" width="1" height="1" fill="rgb(182,186,213)"/>
<rect x="12" y="25" width="1" height="1" fill="rgb(142,149,177)"/>
<rect x="13" y="25" width="1" height="1" fill="rgb(140,147,175)"/>
<rect x="14" y="25" width="2" height="1" fill="rgb(141,148,176)"/>
<rect x="16" y="25" width="1" height="1" fill="rgb(140,147,175)"/>
<rect x="17" y="25" width="1" height="1" fill="rgb(141,148,176)"/>
<rect x="18" y="25" width="1" height="1" fill="rgb(140,147,175)"/>
<rect x="19" y="25" width="1" height="1" fill="rgb(141,148,176)"/>
<rect x="20" y="25" width="1" height="1" fill="rgb(140,147,175)"/>
<rect x="21" y="25" width="1" height="1" fill="rgb(180,185,214)"/>
<rect x="22" y="25" width="1" height="1" fill="rgb(179,185,211)"/>
<rect x="23" y="25" width="7" height="1" fill="rgb(180,184,211)"/>
<rect x="30" y="25" width="1" height="1" fill="rgb(200,205,224)" fill-opacity="0.996"/>
<rect x="31" y="25" width="1" height="1" fill="rgb(70,78,91)"/>
<rect x="32" y="25" width="1" height="1" fill="rgb(111,119,140)"/>
<rect x="33" y="25" width="1" height="1" fill="rgb(109,116,142)"/>
<rect x="34" y="25" width="1" height="1" fill="rgb(108,115,143)"/>
<rect x="35" y="25" width="1" height="1" fill="rgb(116,120,147)"/>
<rect x="36" y="25" width="1" height="1" fill="rgb(182,186,213)"/>
<rect x="37" y="25" width="1" height="1" fill="rgb(180,184,209)"/>
<rect x="38" y="25" width="1" height="1" fill="rgb(43,46,53)"/>
<rect x="39" y="25" width="1" height="1" fill="rgb(0,0,0)"/>
<rect x="9" y="26" width="1" height="1" fill="rgb(204,204,204)" fill-opacity="0.059"/>
<rect x="10" y="26" width="1" height="1" fill="rgb(0,0,0)"/>
<rect x="11" y="26" width="1" height="1" fill="rgb(115,122,148)"/>
<rect x="12" y="26" width="2" height="1" fill="rgb(140,147,175)"/>
<rect x="14" y="26" width="1" height="1" fill="rgb(138,145,173)"/>
<rect x="15" y="26" width="1" height="1" fill="rgb(136,143,171)"/>
<rect x="16" y="26" width="5" height="1" fill="rgb(140,147,175)"/>
<rect x="21" y="26" width="1" height="1" fill="rgb(182,187,216)"/>
<rect x="22" y="26" width="1" height="1" fill="rgb(149,155,181)"/>
<rect x="23" y="26" width="7" height="1" fill="rgb(180,184,211)"/>
<rect x="30" y="26" width="1" height="1" fill="rgb(180,184,213)"/>
<rect x="31" y="26" width="1" height="1" fill="rgb(176,181,203)"/>
<rect x="32" y="26" width="1" height="1" fill="rgb(176,183,201)"/>
<rect x="33" y="26" width="1" height="1" fill="rgb(138,144,166)"/>
<rect x="34" y="26" width="1" height="1" fill="rgb(175,180,209)"/>
<rect x="35" y="26" width="1" height="1" fill="rgb(177,181,208)"/>
<rect x="36" y="26" width="1" height="1" fill="rgb(184,188,215)"/>
<rect x="37" y="26" width="1" height="1" fill="rgb(182,186,213)"/>
<rect x="38" y="26" width="1" height="1" fill="rgb(19,21,34)"/>
<rect x="39" y="26" width="1" height="1" fill="rgb(0,0,0)"/>
<rect x="9" y="27" width="1" height="1" fill="rgb(195,195,195)" fill-opacity="0.067"/>
<rect x="10" y="27" width="1" height="1" fill="rgb(2,2,2)"/>
<rect x="11" y="27" width="1" height="1" fill="rgb(69,80,98)"/>
<rect x="12" y="27" width="1" height="1" fill="rgb(139,146,174)"/>
<rect x="13" y="27" width="1" height="1" fill="rgb(142,149,175)"/>
<rect x="14" y="27" width="1" height="1" fill="rgb(135,142,171)"/>
<rect x="15" y="27" width="1" height="1" fill="rgb(140,147,176)"/>
<rect x="16" y="27" width="1" height="1" fill="rgb(140,147,175)"/>
<rect x="17" y="27" width="1" height="1" fill="rgb(140,147,173)"/>
<rect x="18" y="27" width="3" height="1" fill="rgb(140,147,175)"/>
<rect x="21" y="27" width="1" height="1" fill="rgb(143,150,178)"/>
<rect x="22" y="27" width="1" height="1" fill="rgb(184,185,213)"/>
<rect x="23" y="27" width="3" height="1" fill="rgb(182,183,211)"/>
<rect x="26" y="27" width="1" height="1" fill="rgb(184,188,215)"/>
<rect x="27" y="27" width="1" height="1" fill="rgb(177,183,209)"/>
<rect x="28" y="27" width="1" height="1" fill="rgb(179,185,211)"/>
<rect x="29" y="27" width="2" height="1" fill="rgb(180,184,211)"/>
<rect x="31" y="27" width="2" height="1" fill="rgb(179,185,211)"/>
<rect x="33" y="27" width="1" height="1" fill="rgb(180,184,213)"/>
<rect x="34" y="27" width="1" height="1" fill="rgb(181,185,214)"/>
<rect x="35" y="27" width="1" height="1" fill="rgb(177,182,211)"/>
<rect x="36" y="27" width="1" height="1" fill="rgb(179,186,214)"/>
<rect x="37" y="27" width="1" height="1" fill="rgb(140,147,176)"/>
<rect x="38" y="27" width="1" height="1" fill="rgb(19,24,30)"/>
<rect x="39" y="27" width="1" height="1" fill="rgb(0,0,0)"/>
<rect x="10" y="28" width="1" height="1" fill="rgb(0,0,2)"/>
<rect x="11" y="28" width="1" height="1" fill="rgb(79,85,97)"/>
<rect x="12" y="28" width="1" height="1" fill="rgb(140,148,171)"/>
<rect x="13" y="28" width="1" height="1" fill="rgb(109,116,138)"/>
<rect x="14" y="28" width="1" height="1" fill="rgb(72,81,96)"/>
<rect x="15" y="28" width="1" height="1" fill="rgb(142,150,173)"/>
<rect x="16" y="28" width="1" height="1" fill="rgb(141,148,176)"/>
<rect x="17" y="28" width="1" height="1" fill="rgb(140,147,173)"/>
<rect x="18" y="28" width="4" height="1" fill="rgb(140,147,175)"/>
<rect x="22" y="28" width="1" height="1" fill="rgb(150,155,184)"/>
<rect x="23" y="28" width="1" height="1" fill="rgb(181,186,215)"/>
<rect x="24" y="28" width="1" height="1" fill="rgb(181,187,213)"/>
<rect x="25" y="28" width="1" height="1" fill="rgb(139,145,171)"/>
<rect x="26" y="28" width="1" height="1" fill="rgb(183,189,215)"/>
<rect x="27" y="28" width="1" height="1" fill="rgb(140,146,172)"/>
<rect x="28" y="28" width="1" height="1" fill="rgb(181,187,213)"/>
<rect x="29" y="28" width="1" height="1" fill="rgb(177,183,209)"/>
<rect x="30" y="28" width="1" height="1" fill="rgb(180,186,212)"/>
<rect x="31" y="28" width="1" height="1" fill="rgb(180,184,211)"/>
<rect x="32" y="28" width="1" height="1" fill="rgb(179,183,208)"/>
<rect x="33" y="28" width="1" height="1" fill="rgb(185,191,213)"/>
<rect x="34" y="28" width="1" height="1" fill="rgb(177,183,209)"/>
<rect x="35" y="28" width="1" height="1" fill="rgb(139,146,174)"/>
<rect x="36" y="28" width="1" height="1" fill="rgb(141,148,176)"/>
<rect x="37" y="28" width="1" height="1" fill="rgb(112,120,143)"/>
<rect x="38" y="28" width="1" height="1" fill="rgb(19,20,24)"/>
<rect x="10" y="29" width="1" height="1" fill="rgb(1,1,3)"/>
<rect x="11" y="29" width="1" height="1" fill="rgb(0,1,6)"/>
<rect x="12" y="29" width="1" height="1" fill="rgb(76,85,102)"/>
<rect x="13" y="29" width="1" height="1" fill="rgb(70,79,94)"/>
<rect x="14" y="29" width="1" height="1" fill="rgb(110,117,145)"/>
<rect x="15" y="29" width="1" height="1" fill="rgb(76,85,102)"/>
<rect x="16" y="29" width="6" height="1" fill="rgb(140,147,175)"/>
<rect x="22" y="29" width="1" height="1" fill="rgb(138,145,173)"/>
<rect x="23" y="29" width="2" height="1" fill="rgb(140,147,175)"/>
<rect x="25" y="29" width="1" height="1" fill="rgb(145,152,180)"/>
<rect x="26" y="29" width="1" height="1" fill="rgb(143,150,178)"/>
<rect x="27" y="29" width="1" height="1" fill="rgb(141,148,176)"/>
<rect x="28" y="29" width="1" height="1" fill="rgb(180,187,215)"/>
<rect x="29" y="29" width="1" height="1" fill="rgb(136,142,168)"/>
<rect x="30" y="29" width="1" height="1" fill="rgb(162,168,194)"/>
<rect x="31" y="29" width="1" height="1" fill="rgb(141,148,174)"/>
<rect x="32" y="29" width="1" height="1" fill="rgb(73,81,100)"/>
<rect x="33" y="29" width="1" height="1" fill="rgb(107,115,134)"/>
<rect x="34" y="29" width="1" height="1" fill="rgb(74,82,105)"/>
<rect x="35" y="29" width="1" height="1" fill="rgb(142,149,177)"/>
<rect x="36" y="29" width="1" height="1" fill="rgb(109,116,142)"/>
<rect x="37" y="29" width="1" height="1" fill="rgb(79,86,102)"/>
<rect x="38" y="29" width="1" height="1" fill="rgb(0,0,0)"/>
<rect x="11" y="30" width="1" height="1" fill="rgb(2,4,1)"/>
<rect x="12" y="30" width="1" height="1" fill="rgb(72,79,89)"/>
<rect x="13" y="30" width="1" height="1" fill="rgb(75,85,97)"/>
<rect x="14" y="30" width="1" height="1" fill="rgb(73,82,99)"/>
<rect x="15" y="30" width="1" height="1" fill="rgb(141,149,172)"/>
<rect x="16" y="30" width="1" height="1" fill="rgb(140,147,176)"/>
<rect x="17" y="30" width="1" height="1" fill="rgb(126,133,159)"/>
<rect x="18" y="30" width="1" height="1" fill="rgb(143,150,178)"/>
<rect x="19" y="30" width="3" height="1" fill="rgb(140,147,175)"/>
<rect x="22" y="30" width="1" height="1" fill="rgb(140,147,176)"/>
<rect x="23" y="30" width="3" height="1" fill="rgb(140,147,175)"/>
<rect x="26" y="30" width="1" height="1" fill="rgb(140,146,178)"/>
<rect x="27" y="30" width="2" height="1" fill="rgb(140,147,175)"/>
<rect x="29" y="30" width="1" height="1" fill="rgb(178,185,213)"/>
<rect x="30" y="30" width="1" height="1" fill="rgb(158,165,193)"/>
<rect x="31" y="30" width="1" height="1" fill="rgb(140,147,176)"/>
<rect x="32" y="30" width="1" height="1" fill="rgb(74,83,100)"/>
<rect x="33" y="30" width="1" height="1" fill="rgb(111,119,142)"/>
<rect x="34" y="30" width="1" height="1" fill="rgb(110,118,139)"/>
<rect x="35" y="30" width="1" height="1" fill="rgb(136,146,171)"/>
<rect x="36" y="30" width="1" height="1" fill="rgb(107,114,142)"/>
<rect x="37" y="30" width="1" height="1" fill="rgb(0,1,0)"/>
<rect x="38" y="30" width="1" height="1" fill="rgb(219,219,219)" fill-opacity="0.027"/>
<rect x="11" y="31" width="1" height="1" fill="rgb(1,1,3)"/>
<rect x="12" y="31" width="1" height="1" fill="rgb(81,81,89)"/>
<rect x="13" y="31" width="1" height="1" fill="rgb(75,84,101)"/>
<rect x="14" y="31" width="1" height="1" fill="rgb(76,85,102)"/>
<rect x="15" y="31" width="1" height="1" fill="rgb(140,147,173)"/>
<rect x="16" y="31" width="1" height="1" fill="rgb(140,147,175)"/>
<rect x="17" y="31" width="1" height="1" fill="rgb(124,132,155)"/>
<rect x="18" y="31" width="1" height="1" fill="rgb(106,113,139)"/>
<rect x="19" y="31" width="1" height="1" fill="rgb(109,116,142)"/>
<rect x="20" y="31" width="1" height="1" fill="rgb(140,147,175)"/>
<rect x="21" y="31" width="1" height="1" fill="rgb(143,150,178)"/>
<rect x="22" y="31" width="1" height="1" fill="rgb(142,149,175)"/>
<rect x="23" y="31" width="2" height="1" fill="rgb(74,83,100)"/>
<rect x="25" y="31" width="1" height="1" fill="rgb(71,80,95)"/>
<rect x="26" y="31" width="1" height="1" fill="rgb(140,148,169)"/>
<rect x="27" y="31" width="1" height="1" fill="rgb(141,148,176)"/>
<rect x="28" y="31" width="1" height="1" fill="rgb(140,147,176)"/>
<rect x="29" y="31" width="2" height="1" fill="rgb(139,146,174)"/>
<rect x="31" y="31" width="1" height="1" fill="rgb(138,145,173)"/>
<rect x="32" y="31" width="1" height="1" fill="rgb(141,149,170)"/>
<rect x="33" y="31" width="1" height="1" fill="rgb(109,117,140)"/>
<rect x="34" y="31" width="1" height="1" fill="rgb(110,117,143)"/>
<rect x="35" y="31" width="1" height="1" fill="rgb(110,115,144)"/>
<rect x="36" y="31" width="1" height="1" fill="rgb(78,86,99)"/>
<rect x="37" y="31" width="1" height="1" fill="rgb(2,2,2)"/>
<rect x="38" y="31" width="1" height="1" fill="rgb(198,198,198)" fill-opacity="0.035"/>
<rect x="12" y="32" width="1" height="1" fill="rgb(0,0,0)"/>
<rect x="13" y="32" width="1" height="1" fill="rgb(76,83,99)"/>
<rect x="14" y="32" width="1" height="1" fill="rgb(71,82,100)"/>
<rect x="15" y="32" width="3" height="1" fill="rgb(110,117,143)"/>
<rect x="18" y="32" width="1" height="1" fill="rgb(109,116,142)"/>
<rect x="19" y="32" width="1" height="1" fill="rgb(111,118,144)"/>
<rect x="20" y="32" width="1" height="1" fill="rgb(112,119,147)"/>
<rect x="21" y="32" width="1" height="1" fill="rgb(141,148,174)"/>
<rect x="22" y="32" width="1" height="1" fill="rgb(77,85,104)"/>
<rect x="23" y="32" width="1" height="1" fill="rgb(108,116,135)"/>
<rect x="24" y="32" width="1" height="1" fill="rgb(109,116,144)"/>
<rect x="25" y="32" width="1" height="1" fill="rgb(110,118,139)"/>
<rect x="26" y="32" width="1" height="1" fill="rgb(76,85,102)"/>
<rect x="27" y="32" width="1" height="1" fill="rgb(74,82,103)"/>
<rect x="28" y="32" width="3" height="1" fill="rgb(140,147,175)"/>
<rect x="31" y="32" width="1" height="1" fill="rgb(141,148,176)"/>
<rect x="32" y="32" width="1" height="1" fill="rgb(107,114,142)"/>
<rect x="33" y="32" width="1" height="1" fill="rgb(105,112,138)"/>
<rect x="34" y="32" width="1" height="1" fill="rgb(109,116,142)"/>
<rect x="35" y="32" width="1" height="1" fill="rgb(105,112,138)"/>
<rect x="36" y="32" width="1" height="1" fill="rgb(0,0,5)"/>
<rect x="37" y="32" width="1" height="1" fill="rgb(1,1,1)"/>
<rect x="12" y="33" width="1" height="1" fill="rgb(23,23,23)" fill-opacity="0.918"/>
<rect x="13" y="33" width="1" height="1" fill="rgb(0,1,4)"/>
<rect x="14" y="33" width="1" height="1" fill="rgb(76,84,95)"/>
<rect x="15" y="33" width="1" height="1" fill="rgb(105,113,132)"/>
<rect x="16" y="33" width="1" height="1" fill="rgb(111,119,142)"/>
<rect x="17" y="33" width="1" height="1" fill="rgb(109,116,144)"/>
<rect x="18" y="33" width="1" height="1" fill="rgb(109,116,142)"/>
<rect x="19" y="33" width="1" height="1" fill="rgb(111,118,144)"/>
<rect x="20" y="33" width="1" height="1" fill="rgb(142,149,177)"/>
<rect x="21" y="33" width="1" height="1" fill="rgb(111,119,142)"/>
<rect x="22" y="33" width="1" height="1" fill="rgb(78,87,104)"/>
<rect x="23" y="33" width="2" height="1" fill="rgb(109,116,142)"/>
<rect x="25" y="33" width="1" height="1" fill="rgb(110,117,143)"/>
<rect x="26" y="33" width="1" height="1" fill="rgb(109,116,142)"/>
<rect x="27" y="33" width="1" height="1" fill="rgb(71,80,97)"/>
<rect x="28" y="33" width="1" height="1" fill="rgb(140,147,175)"/>
<rect x="29" y="33" width="1" height="1" fill="rgb(141,148,176)"/>
<rect x="30" y="33" width="1" height="1" fill="rgb(126,133,161)"/>
<rect x="31" y="33" width="1" height="1" fill="rgb(111,118,144)"/>
<rect x="32" y="33" width="2" height="1" fill="rgb(109,116,142)"/>
<rect x="34" y="33" width="1" height="1" fill="rgb(111,117,139)"/>
<rect x="35" y="33" width="1" height="1" fill="rgb(76,81,87)"/>
<rect x="36" y="33" width="1" height="1" fill="rgb(4,4,6)"/>
<rect x="13" y="34" width="1" height="1" fill="rgb(0,0,0)"/>
<rect x="14" y="34" width="1" height="1" fill="rgb(0,0,4)"/>
<rect x="15" y="34" width="1" height="1" fill="rgb(76,83,99)"/>
<rect x="16" y="34" width="1" height="1" fill="rgb(109,120,140)"/>
<rect x="17" y="34" width="1" height="1" fill="rgb(111,117,139)"/>
<rect x="18" y="34" width="3" height="1" fill="rgb(109,116,142)"/>
<rect x="21" y="34" width="1" height="1" fill="rgb(141,148,174)"/>
<rect x="22" y="34" width="1" height="1" fill="rgb(109,116,144)"/>
<rect x="23" y="34" width="2" height="1" fill="rgb(109,116,142)"/>
<rect x="25" y="34" width="1" height="1" fill="rgb(109,116,143)"/>
<rect x="26" y="34" width="1" height="1" fill="rgb(109,117,140)"/>
<rect x="27" y="34" width="1" height="1" fill="rgb(75,83,102)"/>
<rect x="28" y="34" width="1" height="1" fill="rgb(109,116,144)"/>
<rect x="29" y="34" width="1" height="1" fill="rgb(110,117,143)"/>
<rect x="30" y="34" width="1" height="1" fill="rgb(110,118,139)"/>
<rect x="31" y="34" width="1" height="1" fill="rgb(108,115,141)"/>
<rect x="32" y="34" width="1" height="1" fill="rgb(110,117,143)"/>
<rect x="33" y="34" width="1" height="1" fill="rgb(112,120,141)"/>
<rect x="34" y="34" width="1" height="1" fill="rgb(80,87,95)"/>
<rect x="35" y="34" width="1" height="1" fill="rgb(0,1,0)"/>
<rect x="14" y="35" width="1" height="1" fill="rgb(1,0,0)"/>
<rect x="15" y="35" width="1" height="1" fill="rgb(0,3,8)"/>
<rect x="16" y="35" width="1" height="1" fill="rgb(75,85,97)"/>
<rect x="17" y="35" width="1" height="1" fill="rgb(71,80,95)"/>
<rect x="18" y="35" width="1" height="1" fill="rgb(74,83,100)"/>
<rect x="19" y="35" width="1" height="1" fill="rgb(73,82,99)"/>
<rect x="20" y="35" width="1" height="1" fill="rgb(106,114,137)"/>
<rect x="21" y="35" width="1" height="1" fill="rgb(110,117,143)"/>
<rect x="22" y="35" width="1" height="1" fill="rgb(108,115,141)"/>
<rect x="23" y="35" width="4" height="1" fill="rgb(109,116,142)"/>
<rect x="27" y="35" width="1" height="1" fill="rgb(109,116,144)"/>
<rect x="28" y="35" width="1" height="1" fill="rgb(105,112,138)"/>
<rect x="29" y="35" width="1" height="1" fill="rgb(75,83,102)"/>
<rect x="30" y="35" width="1" height="1" fill="rgb(94,102,121)"/>
<rect x="31" y="35" width="1" height="1" fill="rgb(73,81,102)"/>
<rect x="32" y="35" width="1" height="1" fill="rgb(76,84,103)"/>
<rect x="33" y="35" width="1" height="1" fill="rgb(0,1,9)"/>
<rect x="34" y="35" width="1" height="1" fill="rgb(0,1,0)"/>
<rect x="35" y="35" width="1" height="1" fill="rgb(41,42,42)" fill-opacity="0.824"/>
<rect x="15" y="36" width="1" height="1" fill="rgb(2,2,0)"/>
<rect x="16" y="36" width="1" height="1" fill="rgb(3,7,10)"/>
<rect x="17" y="36" width="1" height="1" fill="rgb(77,85,96)"/>
<rect x="18" y="36" width="1" height="1" fill="rgb(74,83,100)"/>
<rect x="19" y="36" width="1" height="1" fill="rgb(75,84,101)"/>
<rect x="20" y="36" width="1" height="1" fill="rgb(108,118,145)"/>
<rect x="21" y="36" width="1" height="1" fill="rgb(108,115,141)"/>
<rect x="22" y="36" width="1" height="1" fill="rgb(80,88,107)"/>
<rect x="23" y="36" width="1" height="1" fill="rgb(110,117,143)"/>
<rect x="24" y="36" width="1" height="1" fill="rgb(109,116,145)"/>
<rect x="25" y="36" width="1" height="1" fill="rgb(107,114,140)"/>
<rect x="26" y="36" width="1" height="1" fill="rgb(113,121,144)"/>
<rect x="27" y="36" width="1" height="1" fill="rgb(110,117,143)"/>
<rect x="28" y="36" width="1" height="1" fill="rgb(75,82,98)"/>
<rect x="29" y="36" width="1" height="1" fill="rgb(108,116,137)"/>
<rect x="30" y="36" width="1" height="1" fill="rgb(74,86,98)"/>
<rect x="31" y="36" width="1" height="1" fill="rgb(79,85,99)"/>
<rect x="32" y="36" width="1" height="1" fill="rgb(0,0,0)"/>
<rect x="33" y="36" width="1" height="1" fill="rgb(4,5,7)"/>
<rect x="34" y="36" width="1" height="1" fill="rgb(9,10,12)"/>
<rect x="16" y="37" width="1" height="1" fill="rgb(157,157,157)" fill-opacity="0.275"/>
<rect x="17" y="37" width="1" height="1" fill="rgb(3,2,0)"/>
<rect x="18" y="37" width="1" height="1" fill="rgb(37,40,47)"/>
<rect x="19" y="37" width="1" height="1" fill="rgb(32,41,50)"/>
<rect x="20" y="37" width="2" height="1" fill="rgb(85,96,114)"/>
<rect x="22" y="37" width="1" height="1" fill="rgb(75,85,97)"/>
<rect x="23" y="37" width="1" height="1" fill="rgb(88,97,114)"/>
<rect x="24" y="37" width="1" height="1" fill="rgb(89,98,115)"/>
<rect x="25" y="37" width="1" height="1" fill="rgb(90,99,116)"/>
<rect x="26" y="37" width="1" height="1" fill="rgb(74,83,98)"/>
<rect x="27" y="37" width="1" height="1" fill="rgb(75,84,99)"/>
<rect x="28" y="37" width="1" height="1" fill="rgb(73,85,101)"/>
<rect x="29" y="37" width="1" height="1" fill="rgb(75,84,101)"/>
<rect x="30" y="37" width="1" height="1" fill="rgb(35,40,44)"/>
<rect x="31" y="37" width="1" height="1" fill="rgb(0,0,0)"/>
<rect x="32" y="37" width="1" height="1" fill="rgb(1,0,0)"/>
<rect x="18" y="38" width="1" height="1" fill="rgb(3,3,3)"/>
<rect x="19" y="38" width="2" height="1" fill="rgb(0,1,0)"/>
<rect x="21" y="38" width="1" height="1" fill="rgb(0,1,4)"/>
<rect x="22" y="38" width="1" height="1" fill="rgb(75,84,99)"/>
<rect x="23" y="38" width="1" height="1" fill="rgb(76,86,98)"/>
<rect x="24" y="38" width="1" height="1" fill="rgb(75,85,97)"/>
<rect x="25" y="38" width="1" height="1" fill="rgb(75,84,99)"/>
<rect x="26" y="38" width="1" height="1" fill="rgb(76,85,100)"/>
<rect x="27" y="38" width="1" height="1" fill="rgb(81,90,97)"/>
<rect x="28" y="38" width="3" height="1" fill="rgb(0,0,2)"/>
<rect x="31" y="38" width="1" height="1" fill="rgb(191,191,191)" fill-opacity="0.016"/>
<rect x="16" y="39" width="1" height="1" fill="rgb(255,255,255)" fill-opacity="0.004"/>
<rect x="20" y="39" width="1" height="1" fill="rgb(2,2,4)"/>
<rect x="21" y="39" width="1" height="1" fill="rgb(0,0,0)"/>
<rect x="22" y="39" width="4" height="1" fill="rgb(1,0,0)"/>
<rect x="26" y="39" width="2" height="1" fill="rgb(0,0,0)"/>
<rect x="28" y="39" width="1" height="1" fill="rgb(2,2,2)"/>
<rect x="29" y="39" width="1" height="1" fill="rgb(0,0,2)"/>
<rect x="22" y="40" width="1" height="1" fill="rgb(161,161,166)" fill-opacity="0.235"/>
<rect x="23" y="40" width="2" height="1" fill="rgb(160,164,164)" fill-opacity="0.231"/>
<rect x="25" y="40" width="1" height="1" fill="rgb(161,161,166)" fill-opacity="0.235"/>
<rect x="26" y="40" width="1" height="1" fill="rgb(163,163,163)" fill-opacity="0.239"/>
<rect x="27" y="40" width="1" height="1" fill="rgb(154,158,158)" fill-opacity="0.247"/>
</svg>