<svg xmlns="http://www.w3.org/2000/svg" viewBox="0 0 32 32">
<rect x="9" y="6" width="1" height="1" fill="rgb(1,164,232)"/>
<rect x="10" y="6" width="1" height="1" fill="rgb(0,164,230)"/>
<rect x="11" y="6" width="1" height="1" fill="rgb(0,163,232)"/>
<rect x="12" y="6" width="1" height="1" fill="rgb(4,161,232)"/>
<rect x="19" y="6" width="1" height="1" fill="rgb(66,156,94)"/>
<rect x="20" y="6" width="2" height="1" fill="rgb(67,157,95)"/>
<rect x="22" y="6" width="1" height="1" fill="rgb(63,152,86)"/>
<rect x="9" y="7" width="1" height="1" fill="rgb(1,162,232)"/>
<rect x="10" y="7" width="3" height="1" fill="rgb(0,163,232)"/>
<rect x="19" y="7" width="3" height="1" fill="rgb(35,177,77)"/>
<rect x="22" y="7" width="1" height="1" fill="rgb(39,175,73)"/>
<rect x="9" y="8" width="1" height="1" fill="rgb(0,164,232)"/>
<rect x="10" y="8" width="3" height="1" fill="rgb(0,163,232)"/>
<rect x="13" y="8" width="1" height="1" fill="rgb(9,158,224)"/>
<rect x="14" y="8" width="1" height="1" fill="rgb(5,163,224)"/>
<rect x="19" y="8" width="3" height="1" fill="rgb(35,177,77)"/>
<rect x="22" y="8" width="1" height="1" fill="rgb(36,176,77)"/>
<rect x="23" y="8" width="1" height="1" fill="rgb(31,176,71)"/>
<rect x="24" y="8" width="1" height="1" fill="rgb(32,174,76)"/>
<rect x="7" y="9" width="7" height="1" fill="rgb(0,163,232)"/>
<rect x="14" y="9" width="1" height="1" fill="rgb(0,164,234)"/>
<rect x="17" y="9" width="7" height="1" fill="rgb(35,177,77)"/>
<rect x="24" y="9" width="1" height="1" fill="rgb(33,177,79)"/>
<rect x="7" y="10" width="1" height="1" fill="rgb(0,163,235)"/>
<rect x="8" y="10" width="6" height="1" fill="rgb(0,163,232)"/>
<rect x="14" y="10" width="1" height="1" fill="rgb(0,164,234)"/>
<rect x="17" y="10" width="7" height="1" fill="rgb(35,177,77)"/>
<rect x="24" y="10" width="1" height="1" fill="rgb(33,177,79)"/>
<rect x="5" y="11" width="1" height="1" fill="rgb(255,255,255)" fill-opacity="0.004"/>
<rect x="7" y="11" width="1" height="1" fill="rgb(0,164,232)"/>
<rect x="8" y="11" width="6" height="1" fill="rgb(0,163,232)"/>
<rect x="14" y="11" width="1" height="1" fill="rgb(0,164,235)"/>
<rect x="17" y="11" width="6" height="1" fill="rgb(35,177,77)"/>
<rect x="7" y="12" width="1" height="1" fill="rgb(0,164,232)"/>
<rect x="8" y="12" width="6" height="1" fill="rgb(0,163,232)"/>
<rect x="14" y="12" width="1" height="1" fill="rgb(0,164,235)"/>
<rect x="17" y="12" width="5" height="1" fill="rgb(35,177,77)"/>
<rect x="22" y="12" width="1" height="1" fill="rgb(32,178,77)"/>
<rect x="7" y="13" width="7" height="1" fill="rgb(0,163,232)"/>
<rect x="14" y="13" width="1" height="1" fill="rgb(0,164,235)"/>
<rect x="7" y="14" width="1" height="1" fill="rgb(0,164,234)"/>
<rect x="8" y="14" width="1" height="1" fill="rgb(0,163,228)"/>
<rect x="9" y="14" width="5" height="1" fill="rgb(0,163,232)"/>
<rect x="14" y="14" width="1" height="1" fill="rgb(0,164,235)"/>
<rect x="7" y="15" width="1" height="1" fill="rgb(0,38,65)" fill-opacity="0.929"/>
<rect x="8" y="15" width="1" height="1" fill="rgb(0,40,64)" fill-opacity="0.941"/>
<rect x="9" y="15" width="1" height="1" fill="rgb(0,163,230)"/>
<rect x="10" y="15" width="4" height="1" fill="rgb(0,163,232)"/>
<rect x="14" y="15" width="1" height="1" fill="rgb(0,164,234)"/>
<rect x="17" y="15" width="3" height="1" fill="rgb(255,127,38)"/>
<rect x="20" y="15" width="2" height="1" fill="rgb(255,127,40)"/>
<rect x="22" y="15" width="1" height="1" fill="rgb(255,123,36)"/>
<rect x="9" y="16" width="1" height="1" fill="rgb(0,163,232)"/>
<rect x="10" y="16" width="3" height="1" fill="rgb(1,162,232)"/>
<rect x="13" y="16" width="1" height="1" fill="rgb(3,162,230)"/>
<rect x="14" y="16" width="1" height="1" fill="rgb(0,163,235)"/>
<rect x="17" y="16" width="5" height="1" fill="rgb(255,127,38)"/>
<rect x="22" y="16" width="1" height="1" fill="rgb(255,124,36)"/>
<rect x="9" y="17" width="4" height="1" fill="rgb(0,163,230)"/>
<rect x="13" y="17" width="1" height="1" fill="rgb(11,161,222)"/>
<rect x="14" y="17" width="1" height="1" fill="rgb(11,152,219)"/>
<rect x="17" y="17" width="5" height="1" fill="rgb(255,127,38)"/>
<rect x="22" y="17" width="1" height="1" fill="rgb(255,126,43)"/>
<rect x="17" y="18" width="3" height="1" fill="rgb(255,127,38)"/>
<rect x="20" y="18" width="1" height="1" fill="rgb(255,126,38)"/>
<rect x="21" y="18" width="2" height="1" fill="rgb(255,127,38)"/>
<rect x="23" y="18" width="1" height="1" fill="rgb(255,127,39)"/>
<rect x="24" y="18" width="1" height="1" fill="rgb(253,127,42)"/>
<rect x="17" y="19" width="7" height="1" fill="rgb(255,127,38)"/>
<rect x="24" y="19" width="1" height="1" fill="rgb(254,128,43)"/>
<rect x="9" y="20" width="1" height="1" fill="rgb(166,73,164)"/>
<rect x="10" y="20" width="3" height="1" fill="rgb(163,73,163)"/>
<rect x="13" y="20" width="1" height="1" fill="rgb(164,74,164)"/>
<rect x="14" y="20" width="1" height="1" fill="rgb(162,73,165)"/>
<rect x="17" y="20" width="7" height="1" fill="rgb(255,127,38)"/>
<rect x="24" y="20" width="1" height="1" fill="rgb(253,128,38)"/>
<rect x="9" y="21" width="1" height="1" fill="rgb(165,72,163)"/>
<rect x="10" y="21" width="4" height="1" fill="rgb(163,73,163)"/>
<rect x="14" y="21" width="1" height="1" fill="rgb(162,73,165)"/>
<rect x="17" y="21" width="7" height="1" fill="rgb(255,127,38)"/>
<rect x="24" y="21" width="1" height="1" fill="rgb(254,129,39)"/>
<rect x="7" y="22" width="1" height="1" fill="rgb(165,71,167)"/>
<rect x="8" y="22" width="1" height="1" fill="rgb(166,72,166)"/>
<rect x="9" y="22" width="5" height="1" fill="rgb(163,73,163)"/>
<rect x="14" y="22" width="1" height="1" fill="rgb(162,73,165)"/>
<rect x="17" y="22" width="7" height="1" fill="rgb(255,127,38)"/>
<rect x="24" y="22" width="1" height="1" fill="rgb(253,127,42)"/>
<rect x="7" y="23" width="1" height="1" fill="rgb(165,72,163)"/>
<rect x="8" y="23" width="1" height="1" fill="rgb(162,73,165)"/>
<rect x="9" y="23" width="4" height="1" fill="rgb(163,73,163)"/>
<rect x="13" y="23" width="1" height="1" fill="rgb(162,73,163)"/>
<rect x="14" y="23" width="1" height="1" fill="rgb(163,74,158)"/>
<rect x="17" y="23" width="1" height="1" fill="rgb(255,125,38)"/>
<rect x="18" y="23" width="1" height="1" fill="rgb(255,124,35)"/>
<rect x="19" y="23" width="3" height="1" fill="rgb(255,127,38)"/>
<rect x="22" y="23" width="1" height="1" fill="rgb(253,128,38)"/>
<rect x="23" y="23" width="1" height="1" fill="rgb(255,127,38)"/>
<rect x="24" y="23" width="1" height="1" fill="rgb(249,129,42)"/>
<rect x="7" y="24" width="1" height="1" fill="rgb(57,21,57)" fill-opacity="0.98"/>
<rect x="8" y="24" width="1" height="1" fill="rgb(55,15,52)" fill-opacity="0.961"/>
<rect x="9" y="24" width="1" height="1" fill="rgb(163,72,165)"/>
<rect x="10" y="24" width="3" height="1" fill="rgb(163,73,163)"/>
<rect x="13" y="24" width="1" height="1" fill="rgb(52,12,47)" fill-opacity="0.961"/>
<rect x="14" y="24" width="1" height="1" fill="rgb(54,18,54)" fill-opacity="0.957"/>
<rect x="17" y="24" width="1" height="1" fill="rgb(78,26,4)"/>
<rect x="18" y="24" width="1" height="1" fill="rgb(78,34,0)"/>
<rect x="19" y="24" width="3" height="1" fill="rgb(255,127,38)"/>
<rect x="22" y="24" width="1" height="1" fill="rgb(255,126,38)"/>
<rect x="23" y="24" width="1" height="1" fill="rgb(87,33,0)"/>
<rect x="24" y="24" width="1" height="1" fill="rgb(75,29,0)"/>
<rect x="9" y="25" width="1" height="1" fill="rgb(162,73,165)"/>
<rect x="10" y="25" width="3" height="1" fill="rgb(160,73,167)"/>
<rect x="19" y="25" width="1" height="1" fill="rgb(255,127,35)"/>
<rect x="20" y="25" width="2" height="1" fill="rgb(255,127,36)"/>
<rect x="22" y="25" width="1" height="1" fill="rgb(255,127,35)"/>
<rect x="9" y="26" width="1" height="1" fill="rgb(165,71,165)"/>
<rect x="10" y="26" width="3" height="1" fill="rgb(163,72,167)"/>
<rect x="19" y="26" width="1" height="1" fill="rgb(240,130,51)"/>
<rect x="20" y="26" width="2" height="1" fill="rgb(242,132,55)"/>
<rect x="22" y="26" width="1" height="1" fill="rgb(243,126,46)"/>
</svg>