<svg xmlns="http://www.w3.org/2000/svg" viewBox="0 0 34 32">
<rect x="11" y="8" width="1" height="1" fill="rgb(96,53,99)"/>
<rect x="12" y="8" width="1" height="1" fill="rgb(96,53,96)"/>
<rect x="13" y="8" width="1" height="1" fill="rgb(98,53,96)"/>
<rect x="14" y="8" width="1" height="1" fill="rgb(96,53,96)"/>
<rect x="15" y="8" width="1" height="1" fill="rgb(93,58,100)"/>
<rect x="10" y="9" width="1" height="1" fill="rgb(101,60,94)"/>
<rect x="11" y="9" width="1" height="1" fill="rgb(251,243,168)"/>
<rect x="12" y="9" width="1" height="1" fill="rgb(250,242,169)"/>
<rect x="13" y="9" width="1" height="1" fill="rgb(250,239,185)"/>
<rect x="14" y="9" width="1" height="1" fill="rgb(250,240,181)"/>
<rect x="15" y="9" width="1" height="1" fill="rgb(246,239,161)"/>
<rect x="9" y="10" width="1" height="1" fill="rgb(95,51,100)"/>
<rect x="10" y="10" width="1" height="1" fill="rgb(255,217,90)"/>
<rect x="11" y="10" width="1" height="1" fill="rgb(228,158,166)"/>
<rect x="12" y="10" width="1" height="1" fill="rgb(231,144,195)"/>
<rect x="13" y="10" width="1" height="1" fill="rgb(255,213,107)"/>
<rect x="14" y="10" width="1" height="1" fill="rgb(253,218,88)"/>
<rect x="15" y="10" width="1" height="1" fill="rgb(231,143,193)"/>
<rect x="16" y="10" width="1" height="1" fill="rgb(103,54,99)"/>
<rect x="17" y="10" width="7" height="1" fill="rgb(98,56,96)"/>
<rect x="24" y="10" width="1" height="1" fill="rgb(97,54,97)"/>
<rect x="8" y="11" width="1" height="1" fill="rgb(99,54,97)"/>
<rect x="9" y="11" width="1" height="1" fill="rgb(249,246,165)"/>
<rect x="10" y="11" width="1" height="1" fill="rgb(255,242,155)"/>
<rect x="11" y="11" width="1" height="1" fill="rgb(255,242,154)"/>
<rect x="12" y="11" width="5" height="1" fill="rgb(255,242,155)"/>
<rect x="17" y="11" width="1" height="1" fill="rgb(255,242,154)"/>
<rect x="18" y="11" width="5" height="1" fill="rgb(255,242,155)"/>
<rect x="23" y="11" width="1" height="1" fill="rgb(255,242,154)"/>
<rect x="24" y="11" width="1" height="1" fill="rgb(221,154,171)"/>
<rect x="25" y="11" width="1" height="1" fill="rgb(109,47,94)"/>
<rect x="8" y="12" width="1" height="1" fill="rgb(99,54,97)"/>
<rect x="9" y="12" width="1" height="1" fill="rgb(253,243,154)"/>
<rect x="10" y="12" width="14" height="1" fill="rgb(255,219,89)"/>
<rect x="24" y="12" width="1" height="1" fill="rgb(227,152,156)"/>
<rect x="25" y="12" width="1" height="1" fill="rgb(104,10,62)"/>
<rect x="8" y="13" width="1" height="1" fill="rgb(99,54,97)"/>
<rect x="9" y="13" width="1" height="1" fill="rgb(253,243,154)"/>
<rect x="10" y="13" width="14" height="1" fill="rgb(255,219,89)"/>
<rect x="24" y="13" width="1" height="1" fill="rgb(227,152,156)"/>
<rect x="25" y="13" width="1" height="1" fill="rgb(104,10,62)"/>
<rect x="8" y="14" width="1" height="1" fill="rgb(99,54,97)"/>
<rect x="9" y="14" width="1" height="1" fill="rgb(253,243,154)"/>
<rect x="10" y="14" width="14" height="1" fill="rgb(255,219,89)"/>
<rect x="24" y="14" width="1" height="1" fill="rgb(227,152,156)"/>
<rect x="25" y="14" width="1" height="1" fill="rgb(104,10,62)"/>
<rect x="8" y="15" width="1" height="1" fill="rgb(99,54,97)"/>
<rect x="9" y="15" width="1" height="1" fill="rgb(253,243,154)"/>
<rect x="10" y="15" width="14" height="1" fill="rgb(255,219,89)"/>
<rect x="24" y="15" width="1" height="1" fill="rgb(227,152,156)"/>
<rect x="25" y="15" width="1" height="1" fill="rgb(104,10,62)"/>
<rect x="8" y="16" width="1" height="1" fill="rgb(99,54,97)"/>
<rect x="9" y="16" width="1" height="1" fill="rgb(253,243,154)"/>
<rect x="10" y="16" width="14" height="1" fill="rgb(255,219,89)"/>
<rect x="24" y="16" width="1" height="1" fill="rgb(227,152,156)"/>
<rect x="25" y="16" width="1" height="1" fill="rgb(104,10,62)"/>
<rect x="8" y="17" width="1" height="1" fill="rgb(99,54,97)"/>
<rect x="9" y="17" width="1" height="1" fill="rgb(253,243,154)"/>
<rect x="10" y="17" width="14" height="1" fill="rgb(255,219,89)"/>
<rect x="24" y="17" width="1" height="1" fill="rgb(227,152,156)"/>
<rect x="25" y="17" width="1" height="1" fill="rgb(104,10,62)"/>
<rect x="8" y="18" width="1" height="1" fill="rgb(99,54,97)"/>
<rect x="9" y="18" width="1" height="1" fill="rgb(253,243,154)"/>
<rect x="10" y="18" width="14" height="1" fill="rgb(255,219,89)"/>
<rect x="24" y="18" width="1" height="1" fill="rgb(227,152,156)"/>
<rect x="25" y="18" width="1" height="1" fill="rgb(104,10,62)"/>
<rect x="8" y="19" width="1" height="1" fill="rgb(99,54,97)"/>
<rect x="9" y="19" width="1" height="1" fill="rgb(253,243,154)"/>
<rect x="10" y="19" width="14" height="1" fill="rgb(255,219,89)"/>
<rect x="24" y="19" width="1" height="1" fill="rgb(227,152,156)"/>
<rect x="25" y="19" width="1" height="1" fill="rgb(104,10,62)"/>
<rect x="8" y="20" width="1" height="1" fill="rgb(99,54,97)"/>
<rect x="9" y="20" width="1" height="1" fill="rgb(255,242,154)"/>
<rect x="10" y="20" width="14" height="1" fill="rgb(255,219,89)"/>
<rect x="24" y="20" width="1" height="1" fill="rgb(227,152,156)"/>
<rect x="25" y="20" width="1" height="1" fill="rgb(104,10,62)"/>
<rect x="8" y="21" width="1" height="1" fill="rgb(99,54,97)"/>
<rect x="9" y="21" width="1" height="1" fill="rgb(255,241,156)"/>
<rect x="10" y="21" width="1" height="1" fill="rgb(255,219,89)"/>
<rect x="11" y="21" width="2" height="1" fill="rgb(254,219,89)"/>
<rect x="13" y="21" width="1" height="1" fill="rgb(255,219,89)"/>
<rect x="14" y="21" width="2" height="1" fill="rgb(254,219,89)"/>
<rect x="16" y="21" width="1" height="1" fill="rgb(255,219,89)"/>
<rect x="17" y="21" width="1" height="1" fill="rgb(254,219,89)"/>
<rect x="18" y="21" width="2" height="1" fill="rgb(255,219,89)"/>
<rect x="20" y="21" width="1" height="1" fill="rgb(254,219,89)"/>
<rect x="21" y="21" width="2" height="1" fill="rgb(255,219,89)"/>
<rect x="23" y="21" width="1" height="1" fill="rgb(254,219,89)"/>
<rect x="24" y="21" width="1" height="1" fill="rgb(225,154,152)"/>
<rect x="25" y="21" width="1" height="1" fill="rgb(104,10,62)"/>
<rect x="9" y="22" width="1" height="1" fill="rgb(103,23,52)"/>
<rect x="10" y="22" width="1" height="1" fill="rgb(107,13,63)"/>
<rect x="11" y="22" width="13" height="1" fill="rgb(103,15,65)"/>
<rect x="24" y="22" width="1" height="1" fill="rgb(102,16,65)"/>
</svg>