<svg xmlns="http://www.w3.org/2000/svg" viewBox="0 0 48 48">
<rect x="24" y="5" width="1" height="1" fill="rgb(120,120,120)" fill-opacity="0.333"/>
<rect x="23" y="6" width="1" height="1" fill="rgb(26,10,10)" fill-opacity="0.988"/>
<rect x="24" y="6" width="1" height="1" fill="rgb(178,155,75)" fill-opacity="0.996"/>
<rect x="22" y="7" width="1" height="1" fill="rgb(37,14,24)"/>
<rect x="23" y="7" width="1" height="1" fill="rgb(237,200,57)"/>
<rect x="24" y="7" width="1" height="1" fill="rgb(237,197,48)"/>
<rect x="25" y="7" width="1" height="1" fill="rgb(68,43,0)"/>
<rect x="31" y="7" width="1" height="1" fill="rgb(34,15,19)"/>
<rect x="32" y="7" width="1" height="1" fill="rgb(78,71,73)" fill-opacity="0.424"/>
<rect x="16" y="8" width="1" height="1" fill="rgb(37,14,20)"/>
<rect x="17" y="8" width="1" height="1" fill="rgb(229,224,224)" fill-opacity="0.192"/>
<rect x="22" y="8" width="1" height="1" fill="rgb(37,15,18)"/>
<rect x="23" y="8" width="1" height="1" fill="rgb(237,197,50)"/>
<rect x="24" y="8" width="1" height="1" fill="rgb(235,197,50)"/>
<rect x="25" y="8" width="1" height="1" fill="rgb(235,198,48)"/>
<rect x="26" y="8" width="1" height="1" fill="rgb(36,11,6)"/>
<rect x="29" y="8" width="1" height="1" fill="rgb(36,13,21)"/>
<rect x="30" y="8" width="1" height="1" fill="rgb(38,16,19)"/>
<rect x="31" y="8" width="1" height="1" fill="rgb(240,205,87)"/>
<rect x="32" y="8" width="1" height="1" fill="rgb(71,66,68)" fill-opacity="0.439"/>
<rect x="15" y="9" width="1" height="1" fill="rgb(39,13,16)"/>
<rect x="16" y="9" width="1" height="1" fill="rgb(234,198,52)"/>
<rect x="17" y="9" width="1" height="1" fill="rgb(235,199,49)"/>
<rect x="18" y="9" width="1" height="1" fill="rgb(22,2,0)" fill-opacity="0.992"/>
<rect x="19" y="9" width="1" height="1" fill="rgb(32,13,15)"/>
<rect x="21" y="9" width="1" height="1" fill="rgb(31,5,16)"/>
<rect x="22" y="9" width="1" height="1" fill="rgb(240,194,56)"/>
<rect x="23" y="9" width="2" height="1" fill="rgb(237,196,52)"/>
<rect x="25" y="9" width="1" height="1" fill="rgb(237,197,50)"/>
<rect x="26" y="9" width="1" height="1" fill="rgb(240,195,54)"/>
<rect x="27" y="9" width="1" height="1" fill="rgb(36,13,19)"/>
<rect x="28" y="9" width="1" height="1" fill="rgb(29,13,16)"/>
<rect x="29" y="9" width="2" height="1" fill="rgb(235,197,52)"/>
<rect x="31" y="9" width="1" height="1" fill="rgb(237,196,52)"/>
<rect x="32" y="9" width="1" height="1" fill="rgb(194,165,85)"/>
<rect x="33" y="9" width="1" height="1" fill="rgb(244,244,244)" fill-opacity="0.094"/>
<rect x="15" y="10" width="1" height="1" fill="rgb(39,13,16)"/>
<rect x="16" y="10" width="1" height="1" fill="rgb(234,198,52)"/>
<rect x="17" y="10" width="1" height="1" fill="rgb(237,197,50)"/>
<rect x="18" y="10" width="1" height="1" fill="rgb(237,196,52)"/>
<rect x="19" y="10" width="1" height="1" fill="rgb(235,197,52)"/>
<rect x="20" y="10" width="1" height="1" fill="rgb(235,197,50)"/>
<rect x="21" y="10" width="1" height="1" fill="rgb(237,196,54)"/>
<rect x="22" y="10" width="1" height="1" fill="rgb(235,198,47)"/>
<rect x="23" y="10" width="1" height="1" fill="rgb(233,195,58)"/>
<rect x="24" y="10" width="1" height="1" fill="rgb(234,196,59)"/>
<rect x="25" y="10" width="1" height="1" fill="rgb(233,197,57)"/>
<rect x="26" y="10" width="1" height="1" fill="rgb(233,198,56)"/>
<rect x="27" y="10" width="1" height="1" fill="rgb(237,196,56)"/>
<rect x="28" y="10" width="1" height="1" fill="rgb(238,195,54)"/>
<rect x="29" y="10" width="3" height="1" fill="rgb(237,196,52)"/>
<rect x="32" y="10" width="1" height="1" fill="rgb(193,164,84)"/>
<rect x="33" y="10" width="1" height="1" fill="rgb(243,243,243)" fill-opacity="0.086"/>
<rect x="15" y="11" width="1" height="1" fill="rgb(39,13,16)"/>
<rect x="16" y="11" width="1" height="1" fill="rgb(234,198,52)"/>
<rect x="17" y="11" width="1" height="1" fill="rgb(237,196,52)"/>
<rect x="18" y="11" width="1" height="1" fill="rgb(237,196,54)"/>
<rect x="19" y="11" width="1" height="1" fill="rgb(228,197,70)"/>
<rect x="20" y="11" width="1" height="1" fill="rgb(234,196,61)"/>
<rect x="21" y="11" width="1" height="1" fill="rgb(241,196,55)"/>
<rect x="22" y="11" width="1" height="1" fill="rgb(235,194,54)"/>
<rect x="23" y="11" width="2" height="1" fill="rgb(42,12,10)"/>
<rect x="25" y="11" width="1" height="1" fill="rgb(41,13,12)"/>
<rect x="26" y="11" width="1" height="1" fill="rgb(45,8,16)"/>
<rect x="27" y="11" width="1" height="1" fill="rgb(242,197,46)"/>
<rect x="28" y="11" width="1" height="1" fill="rgb(231,197,64)"/>
<rect x="29" y="11" width="1" height="1" fill="rgb(228,199,63)"/>
<rect x="30" y="11" width="1" height="1" fill="rgb(235,196,56)"/>
<rect x="31" y="11" width="1" height="1" fill="rgb(237,197,50)"/>
<rect x="32" y="11" width="1" height="1" fill="rgb(193,164,86)"/>
<rect x="33" y="11" width="1" height="1" fill="rgb(244,244,244)" fill-opacity="0.09"/>
<rect x="15" y="12" width="1" height="1" fill="rgb(38,14,12)"/>
<rect x="16" y="12" width="1" height="1" fill="rgb(234,197,54)"/>
<rect x="17" y="12" width="1" height="1" fill="rgb(237,197,47)"/>
<rect x="18" y="12" width="1" height="1" fill="rgb(146,115,48)"/>
<rect x="19" y="12" width="1" height="1" fill="rgb(123,60,9)"/>
<rect x="20" y="12" width="1" height="1" fill="rgb(122,60,21)"/>
<rect x="21" y="12" width="1" height="1" fill="rgb(251,132,30)"/>
<rect x="22" y="12" width="1" height="1" fill="rgb(245,128,32)"/>
<rect x="23" y="12" width="4" height="1" fill="rgb(243,129,30)"/>
<rect x="27" y="12" width="1" height="1" fill="rgb(243,129,33)"/>
<rect x="28" y="12" width="1" height="1" fill="rgb(120,61,19)"/>
<rect x="29" y="12" width="1" height="1" fill="rgb(129,56,11)"/>
<rect x="30" y="12" width="1" height="1" fill="rgb(146,116,54)"/>
<rect x="31" y="12" width="1" height="1" fill="rgb(148,115,34)"/>
<rect x="32" y="12" width="1" height="1" fill="rgb(213,177,65)"/>
<rect x="33" y="12" width="1" height="1" fill="rgb(255,245,191)" fill-opacity="0.204"/>
<rect x="34" y="12" width="1" height="1" fill="rgb(255,255,221)" fill-opacity="0.059"/>
<rect x="35" y="12" width="1" height="1" fill="rgb(165,165,165)" fill-opacity="0.122"/>
<rect x="36" y="12" width="1" height="1" fill="rgb(170,170,170)" fill-opacity="0.118"/>
<rect x="37" y="12" width="1" height="1" fill="rgb(173,164,173)" fill-opacity="0.11"/>
<rect x="38" y="12" width="1" height="1" fill="rgb(170,170,170)" fill-opacity="0.106"/>
<rect x="9" y="13" width="1" height="1" fill="rgb(219,219,219)" fill-opacity="0.027"/>
<rect x="10" y="13" width="1" height="1" fill="rgb(20,9,15)" fill-opacity="0.878"/>
<rect x="11" y="13" width="1" height="1" fill="rgb(20,9,15)" fill-opacity="0.894"/>
<rect x="12" y="13" width="1" height="1" fill="rgb(22,12,3)" fill-opacity="0.91"/>
<rect x="13" y="13" width="1" height="1" fill="rgb(229,211,128)" fill-opacity="0.612"/>
<rect x="14" y="13" width="1" height="1" fill="rgb(233,212,127)" fill-opacity="0.553"/>
<rect x="15" y="13" width="1" height="1" fill="rgb(252,221,130)"/>
<rect x="16" y="13" width="1" height="1" fill="rgb(233,197,83)"/>
<rect x="17" y="13" width="1" height="1" fill="rgb(185,125,39)"/>
<rect x="18" y="13" width="1" height="1" fill="rgb(220,134,57)"/>
<rect x="19" y="13" width="1" height="1" fill="rgb(242,132,37)"/>
<rect x="20" y="13" width="1" height="1" fill="rgb(246,127,33)"/>
<rect x="21" y="13" width="1" height="1" fill="rgb(245,127,37)"/>
<rect x="22" y="13" width="1" height="1" fill="rgb(255,174,56)"/>
<rect x="23" y="13" width="3" height="1" fill="rgb(255,172,56)"/>
<rect x="26" y="13" width="1" height="1" fill="rgb(255,173,54)"/>
<rect x="27" y="13" width="1" height="1" fill="rgb(244,127,31)"/>
<rect x="28" y="13" width="1" height="1" fill="rgb(243,128,35)"/>
<rect x="29" y="13" width="1" height="1" fill="rgb(244,126,16)"/>
<rect x="30" y="13" width="1" height="1" fill="rgb(220,136,66)"/>
<rect x="31" y="13" width="1" height="1" fill="rgb(225,150,93)"/>
<rect x="32" y="13" width="1" height="1" fill="rgb(83,52,0)"/>
<rect x="33" y="13" width="1" height="1" fill="rgb(233,199,50)"/>
<rect x="34" y="13" width="1" height="1" fill="rgb(234,197,57)"/>
<rect x="35" y="13" width="1" height="1" fill="rgb(230,194,98)"/>
<rect x="36" y="13" width="1" height="1" fill="rgb(231,194,103)"/>
<rect x="37" y="13" width="1" height="1" fill="rgb(229,198,92)"/>
<rect x="38" y="13" width="1" height="1" fill="rgb(33,16,24)"/>
<rect x="9" y="14" width="1" height="1" fill="rgb(255,223,223)" fill-opacity="0.031"/>
<rect x="10" y="14" width="1" height="1" fill="rgb(233,204,78)"/>
<rect x="11" y="14" width="1" height="1" fill="rgb(237,197,48)"/>
<rect x="12" y="14" width="1" height="1" fill="rgb(231,196,54)"/>
<rect x="13" y="14" width="1" height="1" fill="rgb(237,197,50)"/>
<rect x="14" y="14" width="1" height="1" fill="rgb(238,195,54)"/>
<rect x="15" y="14" width="1" height="1" fill="rgb(225,190,60)"/>
<rect x="16" y="14" width="1" height="1" fill="rgb(39,5,0)"/>
<rect x="17" y="14" width="1" height="1" fill="rgb(244,122,23)"/>
<rect x="18" y="14" width="1" height="1" fill="rgb(245,128,33)"/>
<rect x="19" y="14" width="1" height="1" fill="rgb(243,129,32)"/>
<rect x="20" y="14" width="1" height="1" fill="rgb(253,178,53)"/>
<rect x="21" y="14" width="1" height="1" fill="rgb(255,177,53)"/>
<rect x="22" y="14" width="4" height="1" fill="rgb(252,179,51)"/>
<rect x="26" y="14" width="1" height="1" fill="rgb(253,178,50)"/>
<rect x="27" y="14" width="2" height="1" fill="rgb(255,177,53)"/>
<rect x="29" y="14" width="1" height="1" fill="rgb(251,177,52)"/>
<rect x="30" y="14" width="1" height="1" fill="rgb(246,127,35)"/>
<rect x="31" y="14" width="1" height="1" fill="rgb(244,122,21)"/>
<rect x="32" y="14" width="1" height="1" fill="rgb(191,110,65)"/>
<rect x="33" y="14" width="1" height="1" fill="rgb(195,172,76)"/>
<rect x="34" y="14" width="1" height="1" fill="rgb(237,197,50)"/>
<rect x="35" y="14" width="2" height="1" fill="rgb(237,196,52)"/>
<rect x="37" y="14" width="1" height="1" fill="rgb(32,12,21)"/>
<rect x="10" y="15" width="1" height="1" fill="rgb(18,5,12)"/>
<rect x="11" y="15" width="1" height="1" fill="rgb(233,197,51)"/>
<rect x="12" y="15" width="1" height="1" fill="rgb(237,196,52)"/>
<rect x="13" y="15" width="1" height="1" fill="rgb(235,197,52)"/>
<rect x="14" y="15" width="1" height="1" fill="rgb(238,198,51)"/>
<rect x="15" y="15" width="1" height="1" fill="rgb(43,14,10)"/>
<rect x="16" y="15" width="1" height="1" fill="rgb(240,130,32)"/>
<rect x="17" y="15" width="1" height="1" fill="rgb(246,128,32)"/>
<rect x="18" y="15" width="1" height="1" fill="rgb(243,128,35)"/>
<rect x="19" y="15" width="1" height="1" fill="rgb(250,180,50)"/>
<rect x="20" y="15" width="10" height="1" fill="rgb(252,179,51)"/>
<rect x="30" y="15" width="1" height="1" fill="rgb(251,178,50)"/>
<rect x="31" y="15" width="1" height="1" fill="rgb(241,132,27)"/>
<rect x="32" y="15" width="1" height="1" fill="rgb(246,128,32)"/>
<rect x="33" y="15" width="1" height="1" fill="rgb(93,29,2)"/>
<rect x="34" y="15" width="1" height="1" fill="rgb(237,194,55)"/>
<rect x="35" y="15" width="1" height="1" fill="rgb(237,196,56)"/>
<rect x="36" y="15" width="1" height="1" fill="rgb(237,196,52)"/>
<rect x="37" y="15" width="1" height="1" fill="rgb(38,10,22)"/>
<rect x="10" y="16" width="1" height="1" fill="rgb(18,5,12)"/>
<rect x="11" y="16" width="1" height="1" fill="rgb(234,196,51)"/>
<rect x="12" y="16" width="1" height="1" fill="rgb(237,196,52)"/>
<rect x="13" y="16" width="1" height="1" fill="rgb(235,197,52)"/>
<rect x="14" y="16" width="1" height="1" fill="rgb(35,16,20)"/>
<rect x="15" y="16" width="1" height="1" fill="rgb(250,128,19)"/>
<rect x="16" y="16" width="1" height="1" fill="rgb(255,163,59)"/>
<rect x="17" y="16" width="1" height="1" fill="rgb(255,172,56)"/>
<rect x="18" y="16" width="1" height="1" fill="rgb(255,171,60)"/>
<rect x="19" y="16" width="12" height="1" fill="rgb(252,179,51)"/>
<rect x="31" y="16" width="1" height="1" fill="rgb(250,179,53)"/>
<rect x="32" y="16" width="1" height="1" fill="rgb(247,126,35)"/>
<rect x="33" y="16" width="1" height="1" fill="rgb(249,126,33)"/>
<rect x="34" y="16" width="1" height="1" fill="rgb(35,11,33)"/>
<rect x="35" y="16" width="1" height="1" fill="rgb(237,196,56)"/>
<rect x="36" y="16" width="1" height="1" fill="rgb(237,196,52)"/>
<rect x="37" y="16" width="1" height="1" fill="rgb(38,10,22)"/>
<rect x="10" y="17" width="1" height="1" fill="rgb(16,6,14)"/>
<rect x="11" y="17" width="1" height="1" fill="rgb(234,195,56)"/>
<rect x="12" y="17" width="1" height="1" fill="rgb(237,196,52)"/>
<rect x="13" y="17" width="1" height="1" fill="rgb(234,200,41)"/>
<rect x="14" y="17" width="1" height="1" fill="rgb(34,11,27)"/>
<rect x="15" y="17" width="1" height="1" fill="rgb(242,130,30)"/>
<rect x="16" y="17" width="1" height="1" fill="rgb(255,169,52)"/>
<rect x="17" y="17" width="15" height="1" fill="rgb(252,179,51)"/>
<rect x="32" y="17" width="1" height="1" fill="rgb(243,148,40)"/>
<rect x="33" y="17" width="1" height="1" fill="rgb(247,144,39)"/>
<rect x="34" y="17" width="1" height="1" fill="rgb(242,127,38)"/>
<rect x="35" y="17" width="1" height="1" fill="rgb(32,12,21)"/>
<rect x="36" y="17" width="1" height="1" fill="rgb(234,197,47)"/>
<rect x="37" y="17" width="1" height="1" fill="rgb(37,11,20)"/>
<rect x="11" y="18" width="1" height="1" fill="rgb(35,15,24)"/>
<rect x="12" y="18" width="1" height="1" fill="rgb(237,196,56)"/>
<rect x="13" y="18" width="1" height="1" fill="rgb(31,17,16)"/>
<rect x="14" y="18" width="1" height="1" fill="rgb(245,128,33)"/>
<rect x="15" y="18" width="1" height="1" fill="rgb(242,130,28)"/>
<rect x="16" y="18" width="1" height="1" fill="rgb(253,178,51)"/>
<rect x="17" y="18" width="16" height="1" fill="rgb(252,179,51)"/>
<rect x="33" y="18" width="1" height="1" fill="rgb(255,175,59)"/>
<rect x="34" y="18" width="1" height="1" fill="rgb(241,127,30)"/>
<rect x="35" y="18" width="1" height="1" fill="rgb(37,13,26)"/>
<rect x="36" y="18" width="1" height="1" fill="rgb(242,195,57)"/>
<rect x="37" y="18" width="1" height="1" fill="rgb(47,18,22)"/>
<rect x="38" y="18" width="1" height="1" fill="rgb(36,15,20)"/>
<rect x="10" y="19" width="1" height="1" fill="rgb(40,14,0)"/>
<rect x="11" y="19" width="1" height="1" fill="rgb(239,197,63)"/>
<rect x="12" y="19" width="1" height="1" fill="rgb(233,197,49)"/>
<rect x="13" y="19" width="1" height="1" fill="rgb(55,9,0)"/>
<rect x="14" y="19" width="1" height="1" fill="rgb(250,134,35)"/>
<rect x="15" y="19" width="1" height="1" fill="rgb(240,131,26)"/>
<rect x="16" y="19" width="1" height="1" fill="rgb(253,178,53)"/>
<rect x="17" y="19" width="15" height="1" fill="rgb(252,179,51)"/>
<rect x="32" y="19" width="1" height="1" fill="rgb(253,178,51)"/>
<rect x="33" y="19" width="1" height="1" fill="rgb(250,180,50)"/>
<rect x="34" y="19" width="1" height="1" fill="rgb(245,128,35)"/>
<rect x="35" y="19" width="1" height="1" fill="rgb(240,132,24)"/>
<rect x="36" y="19" width="1" height="1" fill="rgb(34,15,17)"/>
<rect x="37" y="19" width="1" height="1" fill="rgb(233,195,62)"/>
<rect x="38" y="19" width="1" height="1" fill="rgb(234,196,63)"/>
<rect x="39" y="19" width="1" height="1" fill="rgb(47,13,0)"/>
<rect x="40" y="19" width="1" height="1" fill="rgb(55,45,20)" fill-opacity="0.667"/>
<rect x="8" y="20" width="1" height="1" fill="rgb(92,94,97)" fill-opacity="0.588"/>
<rect x="9" y="20" width="1" height="1" fill="rgb(114,102,82)" fill-opacity="0.608"/>
<rect x="10" y="20" width="1" height="1" fill="rgb(232,199,66)"/>
<rect x="11" y="20" width="1" height="1" fill="rgb(238,196,52)"/>
<rect x="12" y="20" width="1" height="1" fill="rgb(107,78,20)"/>
<rect x="13" y="20" width="1" height="1" fill="rgb(246,128,28)"/>
<rect x="14" y="20" width="1" height="1" fill="rgb(245,129,30)"/>
<rect x="15" y="20" width="1" height="1" fill="rgb(247,158,40)"/>
<rect x="16" y="20" width="1" height="1" fill="rgb(255,177,51)"/>
<rect x="17" y="20" width="17" height="1" fill="rgb(252,179,51)"/>
<rect x="34" y="20" width="1" height="1" fill="rgb(240,131,30)"/>
<rect x="35" y="20" width="1" height="1" fill="rgb(243,128,35)"/>
<rect x="36" y="20" width="1" height="1" fill="rgb(35,15,17)"/>
<rect x="37" y="20" width="1" height="1" fill="rgb(230,198,55)"/>
<rect x="38" y="20" width="2" height="1" fill="rgb(237,196,52)"/>
<rect x="40" y="20" width="1" height="1" fill="rgb(223,185,76)"/>
<rect x="41" y="20" width="1" height="1" fill="rgb(90,90,84)" fill-opacity="0.486"/>
<rect x="7" y="21" width="1" height="1" fill="rgb(15,9,11)" fill-opacity="0.91"/>
<rect x="8" y="21" width="1" height="1" fill="rgb(237,199,102)"/>
<rect x="9" y="21" width="1" height="1" fill="rgb(235,200,84)"/>
<rect x="10" y="21" width="1" height="1" fill="rgb(238,197,47)"/>
<rect x="11" y="21" width="1" height="1" fill="rgb(238,196,52)"/>
<rect x="12" y="21" width="1" height="1" fill="rgb(36,14,16)"/>
<rect x="13" y="21" width="1" height="1" fill="rgb(247,126,37)"/>
<rect x="14" y="21" width="1" height="1" fill="rgb(240,131,28)"/>
<rect x="15" y="21" width="1" height="1" fill="rgb(253,178,51)"/>
<rect x="16" y="21" width="1" height="1" fill="rgb(249,180,50)"/>
<rect x="17" y="21" width="17" height="1" fill="rgb(252,179,51)"/>
<rect x="34" y="21" width="1" height="1" fill="rgb(254,179,51)"/>
<rect x="35" y="21" width="1" height="1" fill="rgb(255,176,59)"/>
<rect x="36" y="21" width="1" height="1" fill="rgb(226,139,59)"/>
<rect x="37" y="21" width="1" height="1" fill="rgb(235,199,53)"/>
<rect x="38" y="21" width="2" height="1" fill="rgb(237,196,52)"/>
<rect x="40" y="21" width="1" height="1" fill="rgb(203,167,71)"/>
<rect x="8" y="22" width="1" height="1" fill="rgb(36,10,0)"/>
<rect x="9" y="22" width="2" height="1" fill="rgb(237,196,52)"/>
<rect x="11" y="22" width="1" height="1" fill="rgb(234,197,56)"/>
<rect x="12" y="22" width="1" height="1" fill="rgb(36,15,20)"/>
<rect x="13" y="22" width="1" height="1" fill="rgb(247,126,33)"/>
<rect x="14" y="22" width="1" height="1" fill="rgb(243,130,28)"/>
<rect x="15" y="22" width="20" height="1" fill="rgb(252,179,51)"/>
<rect x="35" y="22" width="1" height="1" fill="rgb(255,177,55)"/>
<rect x="36" y="22" width="1" height="1" fill="rgb(246,127,33)"/>
<rect x="37" y="22" width="1" height="1" fill="rgb(239,194,49)"/>
<rect x="38" y="22" width="1" height="1" fill="rgb(240,194,56)"/>
<rect x="39" y="22" width="1" height="1" fill="rgb(235,197,96)"/>
<rect x="40" y="22" width="1" height="1" fill="rgb(54,47,54)" fill-opacity="0.667"/>
<rect x="9" y="23" width="1" height="1" fill="rgb(70,44,0)"/>
<rect x="10" y="23" width="1" height="1" fill="rgb(233,198,52)"/>
<rect x="11" y="23" width="1" height="1" fill="rgb(234,197,56)"/>
<rect x="12" y="23" width="1" height="1" fill="rgb(36,15,20)"/>
<rect x="13" y="23" width="1" height="1" fill="rgb(247,126,33)"/>
<rect x="14" y="23" width="1" height="1" fill="rgb(243,130,28)"/>
<rect x="15" y="23" width="1" height="1" fill="rgb(252,179,51)"/>
<rect x="16" y="23" width="1" height="1" fill="rgb(252,178,53)"/>
<rect x="17" y="23" width="18" height="1" fill="rgb(252,179,51)"/>
<rect x="35" y="23" width="1" height="1" fill="rgb(255,178,55)"/>
<rect x="36" y="23" width="1" height="1" fill="rgb(243,129,32)"/>
<rect x="37" y="23" width="1" height="1" fill="rgb(235,197,54)"/>
<rect x="38" y="23" width="1" height="1" fill="rgb(221,185,62)"/>
<rect x="39" y="23" width="1" height="1" fill="rgb(4,0,5)"/>
<rect x="9" y="24" width="1" height="1" fill="rgb(223,223,255)" fill-opacity="0.031"/>
<rect x="10" y="24" width="1" height="1" fill="rgb(236,202,79)"/>
<rect x="11" y="24" width="1" height="1" fill="rgb(235,197,54)"/>
<rect x="12" y="24" width="1" height="1" fill="rgb(36,15,20)"/>
<rect x="13" y="24" width="1" height="1" fill="rgb(247,126,33)"/>
<rect x="14" y="24" width="1" height="1" fill="rgb(243,130,28)"/>
<rect x="15" y="24" width="1" height="1" fill="rgb(252,179,51)"/>
<rect x="16" y="24" width="1" height="1" fill="rgb(252,179,50)"/>
<rect x="17" y="24" width="18" height="1" fill="rgb(252,179,51)"/>
<rect x="35" y="24" width="1" height="1" fill="rgb(255,178,57)"/>
<rect x="36" y="24" width="1" height="1" fill="rgb(245,128,32)"/>
<rect x="37" y="24" width="1" height="1" fill="rgb(233,198,46)"/>
<rect x="38" y="24" width="1" height="1" fill="rgb(36,22,19)"/>
<rect x="10" y="25" width="1" height="1" fill="rgb(18,4,17)"/>
<rect x="11" y="25" width="1" height="1" fill="rgb(237,195,49)"/>
<rect x="12" y="25" width="1" height="1" fill="rgb(36,15,20)"/>
<rect x="13" y="25" width="1" height="1" fill="rgb(247,126,33)"/>
<rect x="14" y="25" width="1" height="1" fill="rgb(243,130,28)"/>
<rect x="15" y="25" width="1" height="1" fill="rgb(252,178,53)"/>
<rect x="16" y="25" width="1" height="1" fill="rgb(252,179,48)"/>
<rect x="17" y="25" width="18" height="1" fill="rgb(252,179,51)"/>
<rect x="35" y="25" width="1" height="1" fill="rgb(255,177,52)"/>
<rect x="36" y="25" width="1" height="1" fill="rgb(246,129,24)"/>
<rect x="37" y="25" width="1" height="1" fill="rgb(234,194,45)"/>
<rect x="38" y="25" width="1" height="1" fill="rgb(230,193,53)"/>
<rect x="39" y="25" width="1" height="1" fill="rgb(15,4,12)"/>
<rect x="10" y="26" width="1" height="1" fill="rgb(24,4,0)"/>
<rect x="11" y="26" width="1" height="1" fill="rgb(230,191,51)"/>
<rect x="12" y="26" width="1" height="1" fill="rgb(36,16,18)"/>
<rect x="13" y="26" width="1" height="1" fill="rgb(252,125,32)"/>
<rect x="14" y="26" width="1" height="1" fill="rgb(245,128,32)"/>
<rect x="15" y="26" width="1" height="1" fill="rgb(250,179,51)"/>
<rect x="16" y="26" width="1" height="1" fill="rgb(252,179,50)"/>
<rect x="17" y="26" width="15" height="1" fill="rgb(252,179,51)"/>
<rect x="32" y="26" width="2" height="1" fill="rgb(250,179,51)"/>
<rect x="34" y="26" width="1" height="1" fill="rgb(255,177,51)"/>
<rect x="35" y="26" width="1" height="1" fill="rgb(255,176,57)"/>
<rect x="36" y="26" width="1" height="1" fill="rgb(36,13,19)"/>
<rect x="37" y="26" width="1" height="1" fill="rgb(232,197,51)"/>
<rect x="38" y="26" width="1" height="1" fill="rgb(237,196,56)"/>
<rect x="39" y="26" width="1" height="1" fill="rgb(235,202,86)"/>
<rect x="40" y="26" width="1" height="1" fill="rgb(52,51,55)" fill-opacity="0.631"/>
<rect x="9" y="27" width="1" height="1" fill="rgb(255,223,223)" fill-opacity="0.031"/>
<rect x="10" y="27" width="1" height="1" fill="rgb(229,202,59)"/>
<rect x="11" y="27" width="1" height="1" fill="rgb(238,196,50)"/>
<rect x="12" y="27" width="1" height="1" fill="rgb(59,36,0)"/>
<rect x="13" y="27" width="1" height="1" fill="rgb(199,117,77)"/>
<rect x="14" y="27" width="1" height="1" fill="rgb(238,120,24)"/>
<rect x="15" y="27" width="1" height="1" fill="rgb(246,166,43)"/>
<rect x="16" y="27" width="16" height="1" fill="rgb(252,179,51)"/>
<rect x="32" y="27" width="1" height="1" fill="rgb(251,175,53)"/>
<rect x="33" y="27" width="1" height="1" fill="rgb(255,179,57)"/>
<rect x="34" y="27" width="1" height="1" fill="rgb(254,174,53)"/>
<rect x="35" y="27" width="1" height="1" fill="rgb(255,170,51)"/>
<rect x="36" y="27" width="1" height="1" fill="rgb(36,13,19)"/>
<rect x="37" y="27" width="1" height="1" fill="rgb(232,197,51)"/>
<rect x="38" y="27" width="1" height="1" fill="rgb(238,196,50)"/>
<rect x="39" y="27" width="1" height="1" fill="rgb(231,198,67)"/>
<rect x="40" y="27" width="1" height="1" fill="rgb(67,61,32)" fill-opacity="0.722"/>
<rect x="9" y="28" width="1" height="1" fill="rgb(103,85,58)" fill-opacity="0.725"/>
<rect x="10" y="28" width="1" height="1" fill="rgb(232,197,55)"/>
<rect x="11" y="28" width="1" height="1" fill="rgb(237,196,52)"/>
<rect x="12" y="28" width="1" height="1" fill="rgb(239,197,51)"/>
<rect x="13" y="28" width="1" height="1" fill="rgb(35,15,17)"/>
<rect x="14" y="28" width="1" height="1" fill="rgb(246,128,30)"/>
<rect x="15" y="28" width="1" height="1" fill="rgb(240,131,30)"/>
<rect x="16" y="28" width="1" height="1" fill="rgb(253,178,51)"/>
<rect x="17" y="28" width="15" height="1" fill="rgb(252,179,51)"/>
<rect x="32" y="28" width="1" height="1" fill="rgb(243,146,39)"/>
<rect x="33" y="28" width="1" height="1" fill="rgb(233,146,33)"/>
<rect x="34" y="28" width="1" height="1" fill="rgb(240,131,28)"/>
<rect x="35" y="28" width="1" height="1" fill="rgb(84,30,4)"/>
<rect x="36" y="28" width="1" height="1" fill="rgb(196,163,68)"/>
<rect x="37" y="28" width="1" height="1" fill="rgb(237,194,55)"/>
<rect x="38" y="28" width="2" height="1" fill="rgb(237,196,52)"/>
<rect x="40" y="28" width="1" height="1" fill="rgb(197,167,79)"/>
<rect x="9" y="29" width="1" height="1" fill="rgb(65,41,0)"/>
<rect x="10" y="29" width="2" height="1" fill="rgb(234,197,54)"/>
<rect x="12" y="29" width="1" height="1" fill="rgb(237,197,48)"/>
<rect x="13" y="29" width="1" height="1" fill="rgb(232,195,62)"/>
<rect x="14" y="29" width="1" height="1" fill="rgb(39,10,12)"/>
<rect x="15" y="29" width="1" height="1" fill="rgb(248,128,31)"/>
<rect x="16" y="29" width="1" height="1" fill="rgb(235,130,21)"/>
<rect x="17" y="29" width="1" height="1" fill="rgb(250,179,53)"/>
<rect x="18" y="29" width="13" height="1" fill="rgb(252,179,51)"/>
<rect x="31" y="29" width="1" height="1" fill="rgb(253,178,53)"/>
<rect x="32" y="29" width="1" height="1" fill="rgb(252,169,49)"/>
<rect x="33" y="29" width="1" height="1" fill="rgb(242,130,32)"/>
<rect x="34" y="29" width="1" height="1" fill="rgb(242,128,39)"/>
<rect x="35" y="29" width="1" height="1" fill="rgb(41,10,25)"/>
<rect x="36" y="29" width="1" height="1" fill="rgb(235,196,56)"/>
<rect x="37" y="29" width="1" height="1" fill="rgb(237,196,56)"/>
<rect x="38" y="29" width="2" height="1" fill="rgb(33,12,17)"/>
<rect x="40" y="29" width="1" height="1" fill="rgb(58,45,55)" fill-opacity="0.616"/>
<rect x="9" y="30" width="1" height="1" fill="rgb(219,219,219)" fill-opacity="0.027"/>
<rect x="10" y="30" width="1" height="1" fill="rgb(36,14,17)"/>
<rect x="11" y="30" width="1" height="1" fill="rgb(35,14,19)"/>
<rect x="12" y="30" width="1" height="1" fill="rgb(237,197,50)"/>
<rect x="13" y="30" width="1" height="1" fill="rgb(235,197,54)"/>
<rect x="14" y="30" width="1" height="1" fill="rgb(35,12,18)"/>
<rect x="15" y="30" width="1" height="1" fill="rgb(243,129,30)"/>
<rect x="16" y="30" width="1" height="1" fill="rgb(245,131,34)"/>
<rect x="17" y="30" width="1" height="1" fill="rgb(252,167,50)"/>
<rect x="18" y="30" width="13" height="1" fill="rgb(252,179,51)"/>
<rect x="31" y="30" width="1" height="1" fill="rgb(255,178,58)"/>
<rect x="32" y="30" width="1" height="1" fill="rgb(243,131,33)"/>
<rect x="33" y="30" width="1" height="1" fill="rgb(246,128,32)"/>
<rect x="34" y="30" width="1" height="1" fill="rgb(40,12,26)"/>
<rect x="35" y="30" width="1" height="1" fill="rgb(238,195,54)"/>
<rect x="36" y="30" width="1" height="1" fill="rgb(35,14,21)"/>
<rect x="37" y="30" width="1" height="1" fill="rgb(35,11,25)"/>
<rect x="12" y="31" width="1" height="1" fill="rgb(32,13,17)"/>
<rect x="13" y="31" width="1" height="1" fill="rgb(34,13,18)"/>
<rect x="14" y="31" width="1" height="1" fill="rgb(234,198,48)"/>
<rect x="15" y="31" width="1" height="1" fill="rgb(42,19,11)"/>
<rect x="16" y="31" width="1" height="1" fill="rgb(242,131,23)"/>
<rect x="17" y="31" width="1" height="1" fill="rgb(247,126,37)"/>
<rect x="18" y="31" width="1" height="1" fill="rgb(255,177,52)"/>
<rect x="19" y="31" width="1" height="1" fill="rgb(252,179,50)"/>
<rect x="20" y="31" width="1" height="1" fill="rgb(251,180,52)"/>
<rect x="21" y="31" width="1" height="1" fill="rgb(253,178,51)"/>
<rect x="22" y="31" width="7" height="1" fill="rgb(252,179,51)"/>
<rect x="29" y="31" width="1" height="1" fill="rgb(251,178,49)"/>
<rect x="30" y="31" width="1" height="1" fill="rgb(247,180,50)"/>
<rect x="31" y="31" width="1" height="1" fill="rgb(249,126,32)"/>
<rect x="32" y="31" width="1" height="1" fill="rgb(245,131,34)"/>
<rect x="33" y="31" width="1" height="1" fill="rgb(82,27,7)"/>
<rect x="34" y="31" width="1" height="1" fill="rgb(231,198,57)"/>
<rect x="35" y="31" width="1" height="1" fill="rgb(238,197,53)"/>
<rect x="36" y="31" width="1" height="1" fill="rgb(34,15,19)"/>
<rect x="13" y="32" width="1" height="1" fill="rgb(35,14,21)"/>
<rect x="14" y="32" width="1" height="1" fill="rgb(236,198,51)"/>
<rect x="15" y="32" width="1" height="1" fill="rgb(234,192,71)"/>
<rect x="16" y="32" width="1" height="1" fill="rgb(41,0,0)"/>
<rect x="17" y="32" width="1" height="1" fill="rgb(241,128,24)"/>
<rect x="18" y="32" width="1" height="1" fill="rgb(245,128,32)"/>
<rect x="19" y="32" width="1" height="1" fill="rgb(247,126,33)"/>
<rect x="20" y="32" width="1" height="1" fill="rgb(246,179,49)"/>
<rect x="21" y="32" width="1" height="1" fill="rgb(247,178,49)"/>
<rect x="22" y="32" width="1" height="1" fill="rgb(255,177,51)"/>
<rect x="23" y="32" width="3" height="1" fill="rgb(252,179,51)"/>
<rect x="26" y="32" width="1" height="1" fill="rgb(253,178,51)"/>
<rect x="27" y="32" width="1" height="1" fill="rgb(252,179,50)"/>
<rect x="28" y="32" width="1" height="1" fill="rgb(251,178,50)"/>
<rect x="29" y="32" width="1" height="1" fill="rgb(250,181,52)"/>
<rect x="30" y="32" width="1" height="1" fill="rgb(247,127,32)"/>
<rect x="31" y="32" width="1" height="1" fill="rgb(252,129,36)"/>
<rect x="32" y="32" width="1" height="1" fill="rgb(189,110,54)"/>
<rect x="33" y="32" width="1" height="1" fill="rgb(35,14,23)"/>
<rect x="34" y="32" width="1" height="1" fill="rgb(235,203,58)"/>
<rect x="35" y="32" width="1" height="1" fill="rgb(238,197,53)"/>
<rect x="36" y="32" width="1" height="1" fill="rgb(34,15,19)"/>
<rect x="13" y="33" width="1" height="1" fill="rgb(36,15,22)"/>
<rect x="14" y="33" width="1" height="1" fill="rgb(236,198,51)"/>
<rect x="15" y="33" width="1" height="1" fill="rgb(241,194,54)"/>
<rect x="16" y="33" width="1" height="1" fill="rgb(233,190,88)"/>
<rect x="17" y="33" width="1" height="1" fill="rgb(195,126,67)"/>
<rect x="18" y="33" width="1" height="1" fill="rgb(242,132,37)"/>
<rect x="19" y="33" width="1" height="1" fill="rgb(247,131,32)"/>
<rect x="20" y="33" width="2" height="1" fill="rgb(246,128,32)"/>
<rect x="22" y="33" width="5" height="1" fill="rgb(251,176,51)"/>
<rect x="27" y="33" width="1" height="1" fill="rgb(241,135,33)"/>
<rect x="28" y="33" width="1" height="1" fill="rgb(245,129,30)"/>
<rect x="29" y="33" width="2" height="1" fill="rgb(245,128,32)"/>
<rect x="31" y="33" width="1" height="1" fill="rgb(229,135,65)"/>
<rect x="32" y="33" width="1" height="1" fill="rgb(77,40,0)"/>
<rect x="33" y="33" width="2" height="1" fill="rgb(237,197,48)"/>
<rect x="35" y="33" width="1" height="1" fill="rgb(238,197,53)"/>
<rect x="36" y="33" width="1" height="1" fill="rgb(34,15,19)"/>
<rect x="13" y="34" width="1" height="1" fill="rgb(36,15,22)"/>
<rect x="14" y="34" width="1" height="1" fill="rgb(236,198,51)"/>
<rect x="15" y="34" width="1" height="1" fill="rgb(238,196,52)"/>
<rect x="16" y="34" width="1" height="1" fill="rgb(235,197,52)"/>
<rect x="17" y="34" width="1" height="1" fill="rgb(63,25,0)"/>
<rect x="18" y="34" width="1" height="1" fill="rgb(36,6,0)"/>
<rect x="19" y="34" width="1" height="1" fill="rgb(227,143,71)"/>
<rect x="20" y="34" width="1" height="1" fill="rgb(232,138,64)"/>
<rect x="21" y="34" width="1" height="1" fill="rgb(246,127,25)"/>
<rect x="22" y="34" width="1" height="1" fill="rgb(244,127,31)"/>
<rect x="23" y="34" width="3" height="1" fill="rgb(245,127,31)"/>
<rect x="26" y="34" width="1" height="1" fill="rgb(244,127,32)"/>
<rect x="27" y="34" width="1" height="1" fill="rgb(245,128,33)"/>
<rect x="28" y="34" width="1" height="1" fill="rgb(230,137,68)"/>
<rect x="29" y="34" width="1" height="1" fill="rgb(232,140,67)"/>
<rect x="30" y="34" width="1" height="1" fill="rgb(229,131,32)"/>
<rect x="31" y="34" width="1" height="1" fill="rgb(40,5,0)"/>
<rect x="32" y="34" width="2" height="1" fill="rgb(234,202,93)"/>
<rect x="34" y="34" width="1" height="1" fill="rgb(234,197,44)"/>
<rect x="35" y="34" width="1" height="1" fill="rgb(236,198,51)"/>
<rect x="36" y="34" width="1" height="1" fill="rgb(34,15,17)"/>
<rect x="13" y="35" width="1" height="1" fill="rgb(35,14,19)"/>
<rect x="14" y="35" width="1" height="1" fill="rgb(241,195,57)"/>
<rect x="15" y="35" width="1" height="1" fill="rgb(234,190,57)"/>
<rect x="16" y="35" width="1" height="1" fill="rgb(170,139,59)"/>
<rect x="17" y="35" width="1" height="1" fill="rgb(168,139,63)"/>
<rect x="18" y="35" width="1" height="1" fill="rgb(171,140,75)"/>
<rect x="19" y="35" width="1" height="1" fill="rgb(97,67,15)"/>
<rect x="20" y="35" width="1" height="1" fill="rgb(91,61,23)"/>
<rect x="21" y="35" width="1" height="1" fill="rgb(238,160,34)"/>
<rect x="22" y="35" width="2" height="1" fill="rgb(169,96,45)"/>
<rect x="24" y="35" width="2" height="1" fill="rgb(168,97,45)"/>
<rect x="26" y="35" width="1" height="1" fill="rgb(169,95,48)"/>
<rect x="27" y="35" width="1" height="1" fill="rgb(236,153,35)"/>
<rect x="28" y="35" width="1" height="1" fill="rgb(90,62,23)"/>
<rect x="29" y="35" width="1" height="1" fill="rgb(93,59,13)"/>
<rect x="30" y="35" width="1" height="1" fill="rgb(237,197,48)"/>
<rect x="31" y="35" width="1" height="1" fill="rgb(163,149,102)" fill-opacity="0.933"/>
<rect x="32" y="35" width="1" height="1" fill="rgb(70,68,78)" fill-opacity="0.412"/>
<rect x="33" y="35" width="1" height="1" fill="rgb(70,70,76)" fill-opacity="0.329"/>
<rect x="34" y="35" width="1" height="1" fill="rgb(163,137,78)"/>
<rect x="35" y="35" width="1" height="1" fill="rgb(172,139,68)"/>
<rect x="36" y="35" width="1" height="1" fill="rgb(38,11,28)"/>
<rect x="13" y="36" width="1" height="1" fill="rgb(35,14,19)"/>
<rect x="14" y="36" width="1" height="1" fill="rgb(22,8,0)"/>
<rect x="19" y="36" width="1" height="1" fill="rgb(237,194,55)"/>
<rect x="20" y="36" width="1" height="1" fill="rgb(238,195,57)"/>
<rect x="21" y="36" width="1" height="1" fill="rgb(235,197,50)"/>
<rect x="22" y="36" width="1" height="1" fill="rgb(233,200,67)"/>
<rect x="23" y="36" width="1" height="1" fill="rgb(237,199,74)"/>
<rect x="24" y="36" width="2" height="1" fill="rgb(236,198,73)"/>
<rect x="26" y="36" width="1" height="1" fill="rgb(234,198,76)"/>
<rect x="27" y="36" width="1" height="1" fill="rgb(242,196,58)"/>
<rect x="28" y="36" width="1" height="1" fill="rgb(235,197,52)"/>
<rect x="29" y="36" width="1" height="1" fill="rgb(235,196,56)"/>
<rect x="30" y="36" width="1" height="1" fill="rgb(232,197,51)"/>
<rect x="31" y="36" width="1" height="1" fill="rgb(18,7,13)" fill-opacity="0.945"/>
<rect x="19" y="37" width="1" height="1" fill="rgb(34,12,14)"/>
<rect x="20" y="37" width="1" height="1" fill="rgb(230,193,43)"/>
<rect x="21" y="37" width="1" height="1" fill="rgb(235,196,57)"/>
<rect x="22" y="37" width="1" height="1" fill="rgb(237,196,54)"/>
<rect x="23" y="37" width="1" height="1" fill="rgb(231,201,55)"/>
<rect x="24" y="37" width="1" height="1" fill="rgb(39,15,15)"/>
<rect x="25" y="37" width="1" height="1" fill="rgb(36,14,16)"/>
<rect x="26" y="37" width="1" height="1" fill="rgb(235,199,61)"/>
<rect x="27" y="37" width="1" height="1" fill="rgb(238,196,48)"/>
<rect x="28" y="37" width="1" height="1" fill="rgb(235,197,54)"/>
<rect x="29" y="37" width="1" height="1" fill="rgb(244,204,57)"/>
<rect x="30" y="37" width="1" height="1" fill="rgb(33,12,19)"/>
<rect x="20" y="38" width="1" height="1" fill="rgb(235,190,47)"/>
<rect x="21" y="38" width="1" height="1" fill="rgb(236,190,52)"/>
<rect x="22" y="38" width="1" height="1" fill="rgb(233,196,53)"/>
<rect x="23" y="38" width="1" height="1" fill="rgb(34,19,24)"/>
<rect x="26" y="38" width="1" height="1" fill="rgb(32,17,24)" fill-opacity="0.996"/>
<rect x="27" y="38" width="1" height="1" fill="rgb(35,12,20)"/>
<rect x="28" y="38" width="1" height="1" fill="rgb(239,198,48)"/>
<rect x="29" y="38" width="1" height="1" fill="rgb(241,197,46)"/>
<rect x="30" y="38" width="1" height="1" fill="rgb(32,17,14)"/>
<rect x="20" y="39" width="1" height="1" fill="rgb(41,10,28)"/>
<rect x="21" y="39" width="1" height="1" fill="rgb(234,197,47)"/>
<rect x="22" y="39" width="1" height="1" fill="rgb(33,14,18)"/>
<rect x="28" y="39" width="1" height="1" fill="rgb(36,14,17)"/>
<rect x="29" y="39" width="1" height="1" fill="rgb(34,14,16)"/>
<rect x="21" y="40" width="1" height="1" fill="rgb(31,14,22)"/>
<rect x="29" y="40" width="1" height="1" fill="rgb(31,16,23)"/>
</svg>