<svg version="1.1" xmlns="http://www.w3.org/2000/svg" style="display: block;" viewBox="0 0 2000 2000" width="500" height="500">
<defs>
	<linearGradient id="Gradient1" gradientUnits="userSpaceOnUse" x1="1076.77" y1="1598.45" x2="922.151" y2="367.944">
		<stop class="stop0" offset="0" stop-opacity="1" stop-color="rgb(17,132,58)"/>
		<stop class="stop1" offset="1" stop-opacity="1" stop-color="rgb(26,161,71)"/>
	</linearGradient>
</defs>
<path transform="translate(0,0)" fill="url(#Gradient1)" d="M 733.369 395.492 L 1103.42 395.426 L 1231.04 395.36 C 1277.47 395.567 1327.84 394.311 1372.64 406.401 C 1474.59 433.909 1557.04 521.81 1577.43 625.517 C 1582.06 649.077 1583.29 677.517 1583.52 701.503 L 1583.7 1107.86 L 1583.72 1226.25 C 1583.71 1262.81 1584.89 1308.22 1577.51 1343.72 C 1554.97 1452.14 1464.57 1542.5 1356.07 1564.63 C 1330.22 1569.91 1307.27 1570.86 1280.99 1570.89 L 891.156 1570.92 L 770.109 1570.93 C 725.25 1570.93 674.893 1572.84 631.625 1561.72 C 584.442 1549.6 541.479 1524.67 506.308 1491.31 C 462.322 1449.98 432.674 1395.69 421.679 1336.34 C 418.934 1320.82 417.284 1297.69 417.156 1281.46 C 416.797 1236.01 416.977 1190.35 416.961 1144.89 L 416.993 879.386 L 417.037 745.083 C 417.015 710.5 415.711 658.647 422.94 625.556 C 434.457 571.534 460.947 521.845 499.38 482.171 C 544.81 435.478 604.967 405.9 669.685 398.435 C 690.156 395.947 712.63 395.885 733.369 395.492 z"/>
<path transform="translate(0,0)" fill="rgb(251,251,250)" d="M 832.723 659.262 C 855.168 658.303 879.103 658.792 901.685 658.804 L 1011.69 658.833 L 1089.78 658.76 C 1114.31 658.735 1143.46 657.825 1167.02 663.008 C 1209.07 671.961 1247.91 692.166 1279.38 721.468 C 1328.97 767.214 1358.51 830.686 1361.57 898.089 C 1362.05 911.461 1362.04 924.972 1360.62 938.73 C 1348.76 1053.26 1253.17 1148.89 1137.29 1155.06 C 1137.04 1155.07 1136.79 1155.07 1136.53 1155.07 C 1129.16 1156.32 1120.68 1156.05 1113.12 1156.06 C 1113.29 1116.11 1113.25 1076.16 1113 1036.22 C 1118.89 1035.91 1127.17 1034.38 1133.21 1033.45 C 1168.34 1024.25 1194.94 1005.1 1213.42 973.369 C 1230.46 943.774 1234.87 908.565 1225.65 875.684 C 1212.6 827.345 1171.18 786.494 1120.39 781.256 C 1097.22 778.867 1071.59 780.05 1048.13 780.075 L 922.467 780.002 C 905.486 780.054 880.402 781.839 864.642 777.275 C 854.536 774.348 842.44 761.214 834.234 754.444 C 830.835 751.64 827.179 749.489 823.609 746.837 C 820.085 732.796 818.637 682.592 823.308 667.67 C 823.948 665.627 830.462 660.814 832.723 659.262 z"/>
<path transform="translate(0,0)" fill="rgb(189,202,193)" d="M 1113 1036.22 C 1118.89 1035.91 1127.17 1034.38 1133.21 1033.45 L 1130.31 1037.81 L 1122.19 1037.41 L 1121.47 1038.07 L 1121.73 1040.55 L 1123.08 1039.74 L 1124.78 1042.3 L 1126 1042.35 L 1126.77 1045.51 L 1128.83 1044.79 C 1127.32 1059.34 1126.58 1073.96 1126.61 1088.58 C 1126.65 1107.72 1128.97 1133.42 1123.58 1151.23 C 1127.22 1155.82 1131.13 1154.94 1136.53 1155.07 C 1129.16 1156.32 1120.68 1156.05 1113.12 1156.06 C 1113.29 1116.11 1113.25 1076.16 1113 1036.22 z"/>
<path transform="translate(0,0)" fill="rgb(251,251,250)" d="M 1050.85 836.438 C 1062.74 836.01 1077.11 835.356 1088.63 837.408 C 1092.62 840.927 1093.57 842.37 1096.7 846.733 C 1097.22 850.482 1097.52 854.259 1097.58 858.043 C 1098.18 882.139 1097.55 908.761 1097.57 933.144 L 1097.81 1084.67 L 1097.83 1172.36 C 1097.84 1188.25 1098.05 1204.37 1097.51 1220.21 C 1096.83 1225.94 1097.69 1232.47 1092.18 1236.11 C 1080.66 1243.74 1059.13 1241.09 1045.5 1240.9 L 995.87 1240.81 L 995.98 996.177 L 996 926.673 C 996.041 881.606 990.998 839.309 1050.85 836.438 z"/>
<path transform="translate(0,0)" fill="rgb(251,251,250)" d="M 929.222 916.37 C 935.87 916.138 942.519 915.964 949.17 915.847 C 968.401 915.642 975.738 917.965 975.946 938.512 C 976.299 973.366 976.148 1008.23 976.166 1043.09 L 975.976 1240.74 C 959.062 1240.81 932.582 1240.07 916.798 1242.98 C 901.139 1246.27 893.366 1249.44 879.083 1256.23 C 879.836 1187.64 879.056 1117.65 879.12 1048.92 L 879.179 995.373 C 879.179 966.571 875.646 939.187 905.966 922.845 C 913.813 918.616 920.489 917.483 929.222 916.37 z"/>
<path transform="translate(0,0)" fill="rgb(251,251,250)" d="M 782.228 1066.62 C 786.048 1049.69 792.32 1035.23 807.577 1025.49 C 817.995 1018.84 835.668 1013.84 847.938 1016.64 C 851.049 1017.35 855.434 1019.37 856.789 1022.51 C 859.898 1029.74 859.484 1246.91 858.603 1272.66 C 836.812 1294.51 802.981 1330.73 781.01 1349.9 C 780.438 1338.79 780.161 1327.79 780.287 1316.65 C 780.92 1260.93 779.961 1205.06 780.652 1149.36 C 780.629 1139.07 781.488 1120.34 780.539 1111.56 L 778.116 1109.67 C 780.029 1101.03 779.995 1092.07 778.015 1083.44 C 781.368 1079.34 781.333 1072.64 782.228 1066.62 z"/>
<path transform="translate(0,0)" fill="rgb(189,202,193)" d="M 778.015 1083.44 C 781.368 1079.34 781.333 1072.64 782.228 1066.62 C 783.472 1073.32 792.391 1077.21 796.904 1089.28 L 796.169 1090.57 C 793.983 1085.6 790.599 1076.22 785.951 1073.79 C 783.179 1074.19 784.101 1073.5 782.689 1075.29 C 783.751 1086.44 791.941 1089.79 793.44 1100.02 C 795.298 1112.71 794.7 1122.33 788.656 1133.84 C 788.113 1134.87 788.609 1141.03 787.301 1142.38 C 785.448 1144.72 782.772 1147.29 780.652 1149.36 C 780.629 1139.07 781.488 1120.34 780.539 1111.56 L 778.116 1109.67 C 780.029 1101.03 779.995 1092.07 778.015 1083.44 z"/>
<path transform="translate(0,0)" fill="rgb(251,251,250)" d="M 784.293 759.481 C 817.759 757.028 846.833 782.269 849.106 815.747 C 851.379 849.226 825.983 878.164 792.492 880.257 C 759.255 882.334 730.583 857.172 728.328 823.947 C 726.072 790.721 751.08 761.915 784.293 759.481 z"/>
<path transform="translate(0,0)" fill="rgb(30,137,68)" d="M 811.313 794.527 C 816.405 795.856 819.589 797.545 820.776 802.836 C 819.081 809.547 787.525 843.742 780.585 849.04 C 773.685 845.308 770.777 842.262 765.502 836.816 C 761.538 832.614 758.959 829.584 755.381 825.067 C 757.908 821.476 761.075 818.241 764.054 814.988 C 770.342 820.189 774.313 823.436 779.798 829.372 C 787.602 820.417 802.883 801.281 811.313 794.527 z"/>
<path transform="translate(0,0)" fill="rgb(251,251,250)" d="M 751.833 899.454 C 785.028 896.132 814.607 920.406 817.826 953.612 C 821.045 986.817 796.678 1016.32 763.463 1019.44 C 730.394 1022.54 701.048 998.301 697.844 965.242 C 694.639 932.183 718.784 902.761 751.833 899.454 z"/>
<path transform="translate(0,0)" fill="rgb(30,137,68)" d="M 773.696 949.348 C 777.345 948.428 781.205 949.587 783.744 952.366 C 786.282 955.145 787.087 959.094 785.84 962.646 C 784.594 966.197 781.496 968.776 777.778 969.358 C 772.38 970.203 767.272 966.655 766.18 961.302 C 765.088 955.95 768.399 950.684 773.696 949.348 z"/>
<path transform="translate(0,0)" fill="rgb(30,137,68)" d="M 733.556 950.895 C 736.667 949.068 740.522 949.067 743.634 950.893 C 746.746 952.718 748.626 956.084 748.548 959.691 C 748.471 963.298 746.448 966.58 743.261 968.271 C 738.479 970.807 732.547 969.057 729.907 964.331 C 727.268 959.605 728.889 953.637 733.556 950.895 z"/>
<path transform="translate(0,0)" fill="rgb(251,251,250)" d="M 778.116 1109.67 C 771.548 1139.33 743.734 1159.31 713.533 1156.06 C 683.331 1152.82 660.398 1127.38 660.282 1097.01 C 660.166 1066.63 682.904 1041.03 713.08 1037.55 C 743.255 1034.07 771.221 1053.84 778.015 1083.44 C 779.995 1092.07 780.029 1101.03 778.116 1109.67 z"/>
<path transform="translate(0,0)" fill="rgb(30,137,68)" d="M 741.757 1072.53 C 746.413 1074.31 748.854 1077.54 752.301 1081.15 C 742.578 1091.81 721.647 1118.11 711.639 1125.4 C 705.689 1121.17 703.04 1119.09 697.746 1114.09 C 693.262 1109.18 685.871 1103.51 690.385 1096.23 C 699.22 1091.39 706.504 1100.73 711.632 1106.56 C 721.53 1094.02 729.509 1082.88 741.757 1072.53 z"/>
</svg>