<svg xmlns="http://www.w3.org/2000/svg" viewBox="0 0 32 32">
<rect x="14" y="9" width="3" height="1" fill="rgb(0,0,0)"/>
<rect x="13" y="10" width="1" height="1" fill="rgb(0,0,0)"/>
<rect x="14" y="10" width="3" height="1" fill="rgb(158,158,158)"/>
<rect x="17" y="10" width="1" height="1" fill="rgb(0,0,0)"/>
<rect x="8" y="11" width="3" height="1" fill="rgb(0,0,0)"/>
<rect x="13" y="11" width="1" height="1" fill="rgb(0,0,0)"/>
<rect x="14" y="11" width="3" height="1" fill="rgb(158,158,158)"/>
<rect x="17" y="11" width="1" height="1" fill="rgb(0,1,0)"/>
<rect x="20" y="11" width="3" height="1" fill="rgb(0,0,0)"/>
<rect x="7" y="12" width="1" height="1" fill="rgb(0,0,0)"/>
<rect x="8" y="12" width="3" height="1" fill="rgb(158,158,158)"/>
<rect x="11" y="12" width="2" height="1" fill="rgb(0,0,0)"/>
<rect x="13" y="12" width="5" height="1" fill="rgb(158,158,158)"/>
<rect x="18" y="12" width="2" height="1" fill="rgb(0,0,0)"/>
<rect x="20" y="12" width="3" height="1" fill="rgb(158,158,158)"/>
<rect x="23" y="12" width="1" height="1" fill="rgb(0,0,0)"/>
<rect x="7" y="13" width="1" height="1" fill="rgb(0,0,0)"/>
<rect x="8" y="13" width="15" height="1" fill="rgb(158,158,158)"/>
<rect x="23" y="13" width="1" height="1" fill="rgb(0,0,0)"/>
<rect x="7" y="14" width="1" height="1" fill="rgb(0,0,0)"/>
<rect x="8" y="14" width="15" height="1" fill="rgb(158,158,158)"/>
<rect x="23" y="14" width="1" height="1" fill="rgb(0,0,0)"/>
<rect x="8" y="15" width="1" height="1" fill="rgb(0,0,0)"/>
<rect x="9" y="15" width="13" height="1" fill="rgb(158,158,158)"/>
<rect x="22" y="15" width="1" height="1" fill="rgb(0,0,0)"/>
<rect x="8" y="16" width="1" height="1" fill="rgb(0,0,0)"/>
<rect x="9" y="16" width="13" height="1" fill="rgb(158,158,158)"/>
<rect x="22" y="16" width="1" height="1" fill="rgb(0,0,0)"/>
<rect x="6" y="17" width="2" height="1" fill="rgb(0,0,0)"/>
<rect x="8" y="17" width="5" height="1" fill="rgb(158,158,158)"/>
<rect x="13" y="17" width="1" height="1" fill="rgb(157,159,158)"/>
<rect x="14" y="17" width="2" height="1" fill="rgb(0,0,0)"/>
<rect x="16" y="17" width="1" height="1" fill="rgb(0,1,0)"/>
<rect x="17" y="17" width="6" height="1" fill="rgb(158,158,158)"/>
<rect x="23" y="17" width="2" height="1" fill="rgb(0,0,0)"/>
<rect x="5" y="18" width="1" height="1" fill="rgb(0,0,0)"/>
<rect x="6" y="18" width="7" height="1" fill="rgb(158,158,158)"/>
<rect x="13" y="18" width="1" height="1" fill="rgb(0,0,0)"/>
<rect x="17" y="18" width="1" height="1" fill="rgb(0,0,0)"/>
<rect x="18" y="18" width="7" height="1" fill="rgb(158,158,158)"/>
<rect x="25" y="18" width="1" height="1" fill="rgb(0,0,0)"/>
<rect x="5" y="19" width="1" height="1" fill="rgb(0,0,0)"/>
<rect x="6" y="19" width="7" height="1" fill="rgb(158,158,158)"/>
<rect x="13" y="19" width="1" height="1" fill="rgb(0,0,0)"/>
<rect x="17" y="19" width="1" height="1" fill="rgb(0,0,0)"/>
<rect x="18" y="19" width="7" height="1" fill="rgb(158,158,158)"/>
<rect x="25" y="19" width="1" height="1" fill="rgb(0,0,0)"/>
<rect x="5" y="20" width="1" height="1" fill="rgb(0,1,0)"/>
<rect x="6" y="20" width="7" height="1" fill="rgb(158,158,158)"/>
<rect x="13" y="20" width="1" height="1" fill="rgb(0,0,0)"/>
<rect x="17" y="20" width="1" height="1" fill="rgb(0,0,0)"/>
<rect x="18" y="20" width="7" height="1" fill="rgb(158,158,158)"/>
<rect x="25" y="20" width="1" height="1" fill="rgb(0,0,0)"/>
<rect x="6" y="21" width="2" height="1" fill="rgb(0,0,0)"/>
<rect x="8" y="21" width="5" height="1" fill="rgb(158,158,158)"/>
<rect x="13" y="21" width="1" height="1" fill="rgb(157,159,158)"/>
<rect x="14" y="21" width="2" height="1" fill="rgb(0,0,0)"/>
<rect x="16" y="21" width="1" height="1" fill="rgb(0,1,0)"/>
<rect x="17" y="21" width="6" height="1" fill="rgb(158,158,158)"/>
<rect x="23" y="21" width="1" height="1" fill="rgb(0,1,0)"/>
<rect x="24" y="21" width="1" height="1" fill="rgb(0,0,0)"/>
<rect x="8" y="22" width="1" height="1" fill="rgb(0,0,0)"/>
<rect x="9" y="22" width="13" height="1" fill="rgb(158,158,158)"/>
<rect x="22" y="22" width="1" height="1" fill="rgb(0,0,0)"/>
<rect x="8" y="23" width="1" height="1" fill="rgb(0,0,0)"/>
<rect x="9" y="23" width="13" height="1" fill="rgb(158,158,158)"/>
<rect x="22" y="23" width="1" height="1" fill="rgb(0,0,0)"/>
<rect x="7" y="24" width="1" height="1" fill="rgb(0,1,0)"/>
<rect x="8" y="24" width="10" height="1" fill="rgb(158,158,158)"/>
<rect x="18" y="24" width="1" height="1" fill="rgb(158,159,158)"/>
<rect x="19" y="24" width="4" height="1" fill="rgb(158,158,158)"/>
<rect x="23" y="24" width="1" height="1" fill="rgb(0,1,0)"/>
<rect x="7" y="25" width="1" height="1" fill="rgb(0,0,0)"/>
<rect x="8" y="25" width="15" height="1" fill="rgb(158,158,158)"/>
<rect x="23" y="25" width="1" height="1" fill="rgb(0,0,0)"/>
<rect x="7" y="26" width="1" height="1" fill="rgb(0,0,0)"/>
<rect x="8" y="26" width="3" height="1" fill="rgb(158,158,158)"/>
<rect x="11" y="26" width="2" height="1" fill="rgb(0,0,0)"/>
<rect x="13" y="26" width="5" height="1" fill="rgb(158,158,158)"/>
<rect x="18" y="26" width="2" height="1" fill="rgb(0,0,0)"/>
<rect x="20" y="26" width="3" height="1" fill="rgb(158,158,158)"/>
<rect x="23" y="26" width="1" height="1" fill="rgb(1,0,0)"/>
<rect x="8" y="27" width="3" height="1" fill="rgb(0,0,0)"/>
<rect x="13" y="27" width="1" height="1" fill="rgb(0,0,0)"/>
<rect x="14" y="27" width="3" height="1" fill="rgb(158,158,158)"/>
<rect x="17" y="27" width="1" height="1" fill="rgb(0,1,0)"/>
<rect x="20" y="27" width="3" height="1" fill="rgb(0,0,0)"/>
<rect x="13" y="28" width="1" height="1" fill="rgb(0,0,0)"/>
<rect x="14" y="28" width="3" height="1" fill="rgb(158,158,158)"/>
<rect x="17" y="28" width="1" height="1" fill="rgb(0,0,0)"/>
<rect x="14" y="29" width="2" height="1" fill="rgb(0,0,0)"/>
<rect x="16" y="29" width="1" height="1" fill="rgb(0,1,0)"/>
</svg>