<svg xmlns="http://www.w3.org/2000/svg" viewBox="0 0 32 32">
<rect x="3" y="1" width="1" height="1" fill="rgb(33,21,25)"/>
<rect x="4" y="1" width="12" height="1" fill="rgb(32,19,26)"/>
<rect x="16" y="1" width="1" height="1" fill="rgb(31,20,26)"/>
<rect x="17" y="1" width="1" height="1" fill="rgb(32,21,27)"/>
<rect x="18" y="1" width="1" height="1" fill="rgb(33,27,29)"/>
<rect x="3" y="2" width="1" height="1" fill="rgb(35,20,27)"/>
<rect x="4" y="2" width="1" height="1" fill="rgb(28,16,20)"/>
<rect x="5" y="2" width="1" height="1" fill="rgb(19,10,13)"/>
<rect x="6" y="2" width="2" height="1" fill="rgb(20,9,13)"/>
<rect x="8" y="2" width="1" height="1" fill="rgb(19,9,10)"/>
<rect x="9" y="2" width="3" height="1" fill="rgb(20,10,11)"/>
<rect x="12" y="2" width="2" height="1" fill="rgb(20,10,9)"/>
<rect x="14" y="2" width="2" height="1" fill="rgb(20,9,13)"/>
<rect x="16" y="2" width="1" height="1" fill="rgb(15,3,5)"/>
<rect x="17" y="2" width="1" height="1" fill="rgb(22,11,14)"/>
<rect x="18" y="2" width="1" height="1" fill="rgb(23,13,14)"/>
<rect x="3" y="3" width="1" height="1" fill="rgb(35,20,27)"/>
<rect x="4" y="3" width="1" height="1" fill="rgb(16,7,8)"/>
<rect x="5" y="3" width="1" height="1" fill="rgb(242,240,225)"/>
<rect x="6" y="3" width="1" height="1" fill="rgb(241,239,226)"/>
<rect x="7" y="3" width="1" height="1" fill="rgb(242,240,227)"/>
<rect x="8" y="3" width="1" height="1" fill="rgb(242,238,226)"/>
<rect x="9" y="3" width="7" height="1" fill="rgb(243,239,227)"/>
<rect x="16" y="3" width="1" height="1" fill="rgb(241,237,226)"/>
<rect x="17" y="3" width="1" height="1" fill="rgb(216,209,201)"/>
<rect x="18" y="3" width="1" height="1" fill="rgb(214,207,199)"/>
<rect x="19" y="3" width="1" height="1" fill="rgb(33,20,29)"/>
<rect x="20" y="3" width="1" height="1" fill="rgb(4,0,2)" fill-opacity="0.925"/>
<rect x="3" y="4" width="1" height="1" fill="rgb(35,20,27)"/>
<rect x="4" y="4" width="1" height="1" fill="rgb(17,7,8)"/>
<rect x="5" y="4" width="1" height="1" fill="rgb(242,239,224)"/>
<rect x="6" y="4" width="1" height="1" fill="rgb(238,234,223)"/>
<rect x="7" y="4" width="6" height="1" fill="rgb(246,244,232)"/>
<rect x="13" y="4" width="1" height="1" fill="rgb(247,245,232)"/>
<rect x="14" y="4" width="1" height="1" fill="rgb(249,245,233)"/>
<rect x="15" y="4" width="1" height="1" fill="rgb(242,238,226)"/>
<rect x="16" y="4" width="1" height="1" fill="rgb(240,238,223)"/>
<rect x="17" y="4" width="1" height="1" fill="rgb(217,208,201)"/>
<rect x="18" y="4" width="1" height="1" fill="rgb(224,213,211)"/>
<rect x="19" y="4" width="1" height="1" fill="rgb(27,12,15)"/>
<rect x="20" y="4" width="1" height="1" fill="rgb(10,0,0)" fill-opacity="0.973"/>
<rect x="3" y="5" width="1" height="1" fill="rgb(35,20,27)"/>
<rect x="4" y="5" width="1" height="1" fill="rgb(17,7,8)"/>
<rect x="5" y="5" width="1" height="1" fill="rgb(242,239,224)"/>
<rect x="6" y="5" width="1" height="1" fill="rgb(185,183,171)"/>
<rect x="7" y="5" width="1" height="1" fill="rgb(143,143,131)"/>
<rect x="8" y="5" width="6" height="1" fill="rgb(142,143,135)"/>
<rect x="14" y="5" width="1" height="1" fill="rgb(243,239,227)"/>
<rect x="15" y="5" width="1" height="1" fill="rgb(242,238,226)"/>
<rect x="16" y="5" width="1" height="1" fill="rgb(239,237,222)"/>
<rect x="17" y="5" width="1" height="1" fill="rgb(217,208,201)"/>
<rect x="18" y="5" width="1" height="1" fill="rgb(217,208,199)"/>
<rect x="19" y="5" width="1" height="1" fill="rgb(216,207,198)"/>
<rect x="20" y="5" width="1" height="1" fill="rgb(233,222,220)"/>
<rect x="21" y="5" width="1" height="1" fill="rgb(26,15,21)"/>
<rect x="26" y="5" width="1" height="1" fill="rgb(27,16,20)"/>
<rect x="27" y="5" width="2" height="1" fill="rgb(31,21,29)"/>
<rect x="29" y="5" width="1" height="1" fill="rgb(30,19,25)"/>
<rect x="30" y="5" width="1" height="1" fill="rgb(33,20,27)"/>
<rect x="3" y="6" width="1" height="1" fill="rgb(35,20,27)"/>
<rect x="4" y="6" width="1" height="1" fill="rgb(17,7,8)"/>
<rect x="5" y="6" width="1" height="1" fill="rgb(242,239,224)"/>
<rect x="6" y="6" width="1" height="1" fill="rgb(200,198,186)"/>
<rect x="7" y="6" width="1" height="1" fill="rgb(182,182,170)"/>
<rect x="8" y="6" width="6" height="1" fill="rgb(184,182,170)"/>
<rect x="14" y="6" width="1" height="1" fill="rgb(246,242,230)"/>
<rect x="15" y="6" width="1" height="1" fill="rgb(242,238,226)"/>
<rect x="16" y="6" width="1" height="1" fill="rgb(241,239,224)"/>
<rect x="17" y="6" width="2" height="1" fill="rgb(227,220,210)"/>
<rect x="19" y="6" width="1" height="1" fill="rgb(227,220,212)"/>
<rect x="20" y="6" width="1" height="1" fill="rgb(231,222,215)"/>
<rect x="21" y="6" width="1" height="1" fill="rgb(117,107,106)"/>
<rect x="22" y="6" width="1" height="1" fill="rgb(43,31,35)" fill-opacity="0.259"/>
<rect x="23" y="6" width="1" height="1" fill="rgb(38,29,34)" fill-opacity="0.208"/>
<rect x="24" y="6" width="1" height="1" fill="rgb(32,32,37)" fill-opacity="0.188"/>
<rect x="25" y="6" width="1" height="1" fill="rgb(44,28,28)" fill-opacity="0.18"/>
<rect x="26" y="6" width="1" height="1" fill="rgb(125,64,72)"/>
<rect x="27" y="6" width="1" height="1" fill="rgb(121,65,68)"/>
<rect x="28" y="6" width="1" height="1" fill="rgb(123,64,70)"/>
<rect x="29" y="6" width="1" height="1" fill="rgb(39,10,14)"/>
<rect x="30" y="6" width="1" height="1" fill="rgb(33,20,27)"/>
<rect x="3" y="7" width="1" height="1" fill="rgb(35,20,27)"/>
<rect x="4" y="7" width="1" height="1" fill="rgb(17,7,8)"/>
<rect x="5" y="7" width="1" height="1" fill="rgb(242,239,224)"/>
<rect x="6" y="7" width="14" height="1" fill="rgb(242,238,226)"/>
<rect x="20" y="7" width="1" height="1" fill="rgb(241,237,225)"/>
<rect x="21" y="7" width="1" height="1" fill="rgb(240,236,224)"/>
<rect x="22" y="7" width="1" height="1" fill="rgb(18,9,4)"/>
<rect x="23" y="7" width="1" height="1" fill="rgb(30,21,24)"/>
<rect x="24" y="7" width="1" height="1" fill="rgb(35,18,34)"/>
<rect x="25" y="7" width="1" height="1" fill="rgb(49,18,24)"/>
<rect x="26" y="7" width="1" height="1" fill="rgb(255,110,127)"/>
<rect x="27" y="7" width="1" height="1" fill="rgb(251,115,125)"/>
<rect x="28" y="7" width="1" height="1" fill="rgb(255,116,125)"/>
<rect x="29" y="7" width="1" height="1" fill="rgb(50,6,7)"/>
<rect x="30" y="7" width="1" height="1" fill="rgb(36,19,25)"/>
<rect x="3" y="8" width="1" height="1" fill="rgb(35,20,27)"/>
<rect x="4" y="8" width="1" height="1" fill="rgb(17,7,8)"/>
<rect x="5" y="8" width="1" height="1" fill="rgb(242,239,224)"/>
<rect x="6" y="8" width="14" height="1" fill="rgb(242,238,226)"/>
<rect x="20" y="8" width="1" height="1" fill="rgb(242,238,227)"/>
<rect x="21" y="8" width="1" height="1" fill="rgb(242,239,222)"/>
<rect x="22" y="8" width="1" height="1" fill="rgb(16,12,13)"/>
<rect x="23" y="8" width="1" height="1" fill="rgb(27,12,31)"/>
<rect x="24" y="8" width="1" height="1" fill="rgb(146,121,64)"/>
<rect x="25" y="8" width="1" height="1" fill="rgb(151,118,67)"/>
<rect x="26" y="8" width="1" height="1" fill="rgb(144,67,74)"/>
<rect x="27" y="8" width="1" height="1" fill="rgb(156,67,69)"/>
<rect x="28" y="8" width="1" height="1" fill="rgb(250,115,121)"/>
<rect x="29" y="8" width="1" height="1" fill="rgb(52,3,6)"/>
<rect x="30" y="8" width="1" height="1" fill="rgb(36,19,25)"/>
<rect x="3" y="9" width="1" height="1" fill="rgb(35,20,27)"/>
<rect x="4" y="9" width="1" height="1" fill="rgb(17,7,8)"/>
<rect x="5" y="9" width="1" height="1" fill="rgb(242,239,224)"/>
<rect x="6" y="9" width="1" height="1" fill="rgb(183,181,169)"/>
<rect x="7" y="9" width="3" height="1" fill="rgb(139,137,125)"/>
<rect x="10" y="9" width="1" height="1" fill="rgb(139,137,124)"/>
<rect x="11" y="9" width="7" height="1" fill="rgb(139,137,125)"/>
<rect x="18" y="9" width="1" height="1" fill="rgb(136,134,122)"/>
<rect x="19" y="9" width="1" height="1" fill="rgb(242,238,226)"/>
<rect x="20" y="9" width="1" height="1" fill="rgb(243,237,223)"/>
<rect x="21" y="9" width="1" height="1" fill="rgb(243,240,225)"/>
<rect x="22" y="9" width="1" height="1" fill="rgb(25,11,10)"/>
<rect x="23" y="9" width="1" height="1" fill="rgb(32,19,26)"/>
<rect x="24" y="9" width="1" height="1" fill="rgb(250,204,46)"/>
<rect x="25" y="9" width="1" height="1" fill="rgb(244,202,68)"/>
<rect x="26" y="9" width="1" height="1" fill="rgb(37,25,27)"/>
<rect x="27" y="9" width="1" height="1" fill="rgb(48,5,14)"/>
<rect x="28" y="9" width="1" height="1" fill="rgb(250,116,123)"/>
<rect x="29" y="9" width="1" height="1" fill="rgb(51,4,10)"/>
<rect x="30" y="9" width="1" height="1" fill="rgb(32,20,30)"/>
<rect x="3" y="10" width="1" height="1" fill="rgb(35,20,27)"/>
<rect x="4" y="10" width="1" height="1" fill="rgb(17,7,8)"/>
<rect x="5" y="10" width="1" height="1" fill="rgb(242,239,224)"/>
<rect x="6" y="10" width="1" height="1" fill="rgb(183,180,171)"/>
<rect x="7" y="10" width="1" height="1" fill="rgb(144,141,132)"/>
<rect x="8" y="10" width="10" height="1" fill="rgb(142,142,132)"/>
<rect x="18" y="10" width="1" height="1" fill="rgb(148,146,134)"/>
<rect x="19" y="10" width="1" height="1" fill="rgb(242,238,226)"/>
<rect x="20" y="10" width="1" height="1" fill="rgb(251,244,234)"/>
<rect x="21" y="10" width="1" height="1" fill="rgb(15,3,13)"/>
<rect x="22" y="10" width="1" height="1" fill="rgb(242,213,145)"/>
<rect x="23" y="10" width="1" height="1" fill="rgb(249,207,107)"/>
<rect x="24" y="10" width="1" height="1" fill="rgb(253,202,59)"/>
<rect x="25" y="10" width="1" height="1" fill="rgb(248,201,59)"/>
<rect x="26" y="10" width="1" height="1" fill="rgb(243,208,106)"/>
<rect x="27" y="10" width="1" height="1" fill="rgb(248,210,137)"/>
<rect x="28" y="10" width="1" height="1" fill="rgb(45,5,13)"/>
<rect x="3" y="11" width="1" height="1" fill="rgb(35,20,27)"/>
<rect x="4" y="11" width="1" height="1" fill="rgb(17,7,8)"/>
<rect x="5" y="11" width="1" height="1" fill="rgb(242,239,224)"/>
<rect x="6" y="11" width="1" height="1" fill="rgb(243,241,229)"/>
<rect x="7" y="11" width="11" height="1" fill="rgb(244,242,230)"/>
<rect x="18" y="11" width="1" height="1" fill="rgb(245,243,231)"/>
<rect x="19" y="11" width="1" height="1" fill="rgb(241,238,223)"/>
<rect x="20" y="11" width="1" height="1" fill="rgb(255,250,240)"/>
<rect x="21" y="11" width="1" height="1" fill="rgb(38,22,22)"/>
<rect x="22" y="11" width="1" height="1" fill="rgb(252,205,97)"/>
<rect x="23" y="11" width="1" height="1" fill="rgb(254,203,52)"/>
<rect x="24" y="11" width="1" height="1" fill="rgb(254,203,62)"/>
<rect x="25" y="11" width="1" height="1" fill="rgb(255,202,50)"/>
<rect x="26" y="11" width="1" height="1" fill="rgb(253,199,65)"/>
<rect x="27" y="11" width="1" height="1" fill="rgb(247,206,98)"/>
<rect x="28" y="11" width="1" height="1" fill="rgb(31,20,18)"/>
<rect x="3" y="12" width="1" height="1" fill="rgb(35,20,27)"/>
<rect x="4" y="12" width="1" height="1" fill="rgb(17,7,8)"/>
<rect x="5" y="12" width="1" height="1" fill="rgb(242,239,224)"/>
<rect x="6" y="12" width="2" height="1" fill="rgb(242,238,226)"/>
<rect x="8" y="12" width="8" height="1" fill="rgb(242,239,224)"/>
<rect x="16" y="12" width="2" height="1" fill="rgb(242,238,226)"/>
<rect x="18" y="12" width="1" height="1" fill="rgb(237,233,222)"/>
<rect x="19" y="12" width="1" height="1" fill="rgb(33,22,26)"/>
<rect x="20" y="12" width="1" height="1" fill="rgb(44,20,0)"/>
<rect x="21" y="12" width="1" height="1" fill="rgb(248,199,62)"/>
<rect x="22" y="12" width="1" height="1" fill="rgb(252,203,62)"/>
<rect x="23" y="12" width="1" height="1" fill="rgb(255,203,57)"/>
<rect x="24" y="12" width="1" height="1" fill="rgb(255,204,50)"/>
<rect x="25" y="12" width="1" height="1" fill="rgb(243,201,67)"/>
<rect x="26" y="12" width="1" height="1" fill="rgb(35,20,23)"/>
<rect x="27" y="12" width="1" height="1" fill="rgb(24,9,12)" fill-opacity="0.965"/>
<rect x="3" y="13" width="1" height="1" fill="rgb(35,20,27)"/>
<rect x="4" y="13" width="1" height="1" fill="rgb(17,7,8)"/>
<rect x="5" y="13" width="1" height="1" fill="rgb(242,239,224)"/>
<rect x="6" y="13" width="10" height="1" fill="rgb(241,237,225)"/>
<rect x="16" y="13" width="1" height="1" fill="rgb(243,237,225)"/>
<rect x="17" y="13" width="1" height="1" fill="rgb(243,239,227)"/>
<rect x="18" y="13" width="1" height="1" fill="rgb(236,229,221)"/>
<rect x="19" y="13" width="1" height="1" fill="rgb(32,20,22)"/>
<rect x="20" y="13" width="1" height="1" fill="rgb(42,15,0)"/>
<rect x="21" y="13" width="1" height="1" fill="rgb(255,201,57)"/>
<rect x="22" y="13" width="1" height="1" fill="rgb(255,202,60)"/>
<rect x="23" y="13" width="1" height="1" fill="rgb(251,200,59)"/>
<rect x="24" y="13" width="1" height="1" fill="rgb(255,203,47)"/>
<rect x="25" y="13" width="1" height="1" fill="rgb(255,205,72)"/>
<rect x="26" y="13" width="1" height="1" fill="rgb(36,20,23)"/>
<rect x="27" y="13" width="1" height="1" fill="rgb(19,10,13)" fill-opacity="0.976"/>
<rect x="3" y="14" width="1" height="1" fill="rgb(35,20,27)"/>
<rect x="4" y="14" width="1" height="1" fill="rgb(17,7,8)"/>
<rect x="5" y="14" width="1" height="1" fill="rgb(243,239,224)"/>
<rect x="6" y="14" width="1" height="1" fill="rgb(184,182,170)"/>
<rect x="7" y="14" width="1" height="1" fill="rgb(144,142,130)"/>
<rect x="8" y="14" width="6" height="1" fill="rgb(144,141,132)"/>
<rect x="14" y="14" width="1" height="1" fill="rgb(144,142,130)"/>
<rect x="15" y="14" width="1" height="1" fill="rgb(145,143,131)"/>
<rect x="16" y="14" width="1" height="1" fill="rgb(141,142,128)"/>
<rect x="17" y="14" width="1" height="1" fill="rgb(33,23,24)"/>
<rect x="18" y="14" width="1" height="1" fill="rgb(39,22,12)"/>
<rect x="19" y="14" width="1" height="1" fill="rgb(247,207,57)"/>
<rect x="20" y="14" width="1" height="1" fill="rgb(249,204,79)"/>
<rect x="21" y="14" width="1" height="1" fill="rgb(255,204,51)"/>
<rect x="22" y="14" width="1" height="1" fill="rgb(255,205,48)"/>
<rect x="23" y="14" width="1" height="1" fill="rgb(253,203,56)"/>
<rect x="24" y="14" width="1" height="1" fill="rgb(42,18,16)"/>
<rect x="25" y="14" width="1" height="1" fill="rgb(39,21,11)"/>
<rect x="3" y="15" width="1" height="1" fill="rgb(35,20,27)"/>
<rect x="4" y="15" width="1" height="1" fill="rgb(17,7,8)"/>
<rect x="5" y="15" width="1" height="1" fill="rgb(242,239,224)"/>
<rect x="6" y="15" width="1" height="1" fill="rgb(186,182,173)"/>
<rect x="7" y="15" width="1" height="1" fill="rgb(145,142,133)"/>
<rect x="8" y="15" width="6" height="1" fill="rgb(143,143,133)"/>
<rect x="14" y="15" width="1" height="1" fill="rgb(144,144,134)"/>
<rect x="15" y="15" width="1" height="1" fill="rgb(147,144,135)"/>
<rect x="16" y="15" width="1" height="1" fill="rgb(141,137,125)"/>
<rect x="17" y="15" width="1" height="1" fill="rgb(32,20,24)"/>
<rect x="18" y="15" width="1" height="1" fill="rgb(37,24,25)"/>
<rect x="19" y="15" width="1" height="1" fill="rgb(254,204,53)"/>
<rect x="20" y="15" width="1" height="1" fill="rgb(255,203,55)"/>
<rect x="21" y="15" width="1" height="1" fill="rgb(251,199,54)"/>
<rect x="22" y="15" width="1" height="1" fill="rgb(253,206,54)"/>
<rect x="23" y="15" width="1" height="1" fill="rgb(253,206,56)"/>
<rect x="24" y="15" width="1" height="1" fill="rgb(37,16,25)"/>
<rect x="25" y="15" width="1" height="1" fill="rgb(35,25,33)"/>
<rect x="3" y="16" width="1" height="1" fill="rgb(35,20,27)"/>
<rect x="4" y="16" width="1" height="1" fill="rgb(17,7,8)"/>
<rect x="5" y="16" width="1" height="1" fill="rgb(242,239,224)"/>
<rect x="6" y="16" width="1" height="1" fill="rgb(242,238,226)"/>
<rect x="7" y="16" width="1" height="1" fill="rgb(241,239,226)"/>
<rect x="8" y="16" width="5" height="1" fill="rgb(244,238,226)"/>
<rect x="13" y="16" width="1" height="1" fill="rgb(241,235,223)"/>
<rect x="14" y="16" width="1" height="1" fill="rgb(245,241,229)"/>
<rect x="15" y="16" width="1" height="1" fill="rgb(29,19,20)"/>
<rect x="16" y="16" width="1" height="1" fill="rgb(34,21,28)"/>
<rect x="17" y="16" width="1" height="1" fill="rgb(248,206,60)"/>
<rect x="18" y="16" width="1" height="1" fill="rgb(252,205,55)"/>
<rect x="19" y="16" width="1" height="1" fill="rgb(252,205,53)"/>
<rect x="20" y="16" width="1" height="1" fill="rgb(255,199,58)"/>
<rect x="21" y="16" width="1" height="1" fill="rgb(252,200,54)"/>
<rect x="22" y="16" width="1" height="1" fill="rgb(30,12,0)"/>
<rect x="23" y="16" width="1" height="1" fill="rgb(31,18,25)"/>
<rect x="3" y="17" width="1" height="1" fill="rgb(35,20,27)"/>
<rect x="4" y="17" width="1" height="1" fill="rgb(17,7,8)"/>
<rect x="5" y="17" width="1" height="1" fill="rgb(242,239,224)"/>
<rect x="6" y="17" width="1" height="1" fill="rgb(244,237,227)"/>
<rect x="7" y="17" width="5" height="1" fill="rgb(242,238,227)"/>
<rect x="12" y="17" width="1" height="1" fill="rgb(242,238,227)" fill-opacity="0.996"/>
<rect x="13" y="17" width="1" height="1" fill="rgb(245,241,230)"/>
<rect x="14" y="17" width="1" height="1" fill="rgb(237,235,222)"/>
<rect x="15" y="17" width="1" height="1" fill="rgb(32,21,17)"/>
<rect x="16" y="17" width="1" height="1" fill="rgb(31,20,16)"/>
<rect x="17" y="17" width="1" height="1" fill="rgb(254,202,56)"/>
<rect x="18" y="17" width="1" height="1" fill="rgb(254,204,57)"/>
<rect x="19" y="17" width="1" height="1" fill="rgb(255,202,54)"/>
<rect x="20" y="17" width="1" height="1" fill="rgb(251,201,50)"/>
<rect x="21" y="17" width="1" height="1" fill="rgb(250,199,58)"/>
<rect x="22" y="17" width="1" height="1" fill="rgb(33,13,0)"/>
<rect x="23" y="17" width="1" height="1" fill="rgb(32,23,18)"/>
<rect x="3" y="18" width="1" height="1" fill="rgb(35,20,27)"/>
<rect x="4" y="18" width="1" height="1" fill="rgb(17,7,8)"/>
<rect x="5" y="18" width="1" height="1" fill="rgb(242,239,224)"/>
<rect x="6" y="18" width="1" height="1" fill="rgb(241,239,226)"/>
<rect x="7" y="18" width="1" height="1" fill="rgb(240,238,225)"/>
<rect x="8" y="18" width="4" height="1" fill="rgb(241,237,225)"/>
<rect x="12" y="18" width="1" height="1" fill="rgb(241,239,226)"/>
<rect x="13" y="18" width="1" height="1" fill="rgb(220,215,211)"/>
<rect x="14" y="18" width="1" height="1" fill="rgb(31,21,20)"/>
<rect x="15" y="18" width="1" height="1" fill="rgb(237,202,72)"/>
<rect x="16" y="18" width="1" height="1" fill="rgb(255,202,61)"/>
<rect x="17" y="18" width="1" height="1" fill="rgb(255,200,56)"/>
<rect x="18" y="18" width="1" height="1" fill="rgb(255,203,55)"/>
<rect x="19" y="18" width="1" height="1" fill="rgb(254,204,55)"/>
<rect x="20" y="18" width="1" height="1" fill="rgb(248,216,105)"/>
<rect x="21" y="18" width="1" height="1" fill="rgb(29,20,23)"/>
<rect x="22" y="18" width="1" height="1" fill="rgb(32,20,22)"/>
<rect x="23" y="18" width="1" height="1" fill="rgb(35,20,27)"/>
<rect x="3" y="19" width="1" height="1" fill="rgb(35,20,27)"/>
<rect x="4" y="19" width="1" height="1" fill="rgb(17,7,8)"/>
<rect x="5" y="19" width="1" height="1" fill="rgb(242,239,224)"/>
<rect x="6" y="19" width="1" height="1" fill="rgb(185,182,173)"/>
<rect x="7" y="19" width="1" height="1" fill="rgb(145,142,133)"/>
<rect x="8" y="19" width="3" height="1" fill="rgb(143,143,133)"/>
<rect x="11" y="19" width="1" height="1" fill="rgb(142,142,132)"/>
<rect x="12" y="19" width="1" height="1" fill="rgb(146,146,136)"/>
<rect x="13" y="19" width="1" height="1" fill="rgb(126,121,115)"/>
<rect x="14" y="19" width="1" height="1" fill="rgb(39,19,30)"/>
<rect x="15" y="19" width="1" height="1" fill="rgb(243,205,88)"/>
<rect x="16" y="19" width="1" height="1" fill="rgb(248,201,69)"/>
<rect x="17" y="19" width="1" height="1" fill="rgb(254,204,43)"/>
<rect x="18" y="19" width="1" height="1" fill="rgb(251,206,55)"/>
<rect x="19" y="19" width="1" height="1" fill="rgb(251,205,67)"/>
<rect x="20" y="19" width="1" height="1" fill="rgb(241,213,113)"/>
<rect x="21" y="19" width="1" height="1" fill="rgb(29,24,21)"/>
<rect x="22" y="19" width="1" height="1" fill="rgb(33,21,25)"/>
<rect x="23" y="19" width="1" height="1" fill="rgb(35,20,27)"/>
<rect x="3" y="20" width="1" height="1" fill="rgb(35,20,27)"/>
<rect x="4" y="20" width="1" height="1" fill="rgb(17,7,8)"/>
<rect x="5" y="20" width="1" height="1" fill="rgb(242,239,224)"/>
<rect x="6" y="20" width="1" height="1" fill="rgb(186,184,172)"/>
<rect x="7" y="20" width="3" height="1" fill="rgb(143,143,133)"/>
<rect x="10" y="20" width="1" height="1" fill="rgb(142,144,131)"/>
<rect x="11" y="20" width="1" height="1" fill="rgb(149,144,140)"/>
<rect x="12" y="20" width="1" height="1" fill="rgb(32,21,29)"/>
<rect x="13" y="20" width="1" height="1" fill="rgb(64,45,38)"/>
<rect x="14" y="20" width="1" height="1" fill="rgb(245,221,187)"/>
<rect x="15" y="20" width="1" height="1" fill="rgb(36,21,18)"/>
<rect x="16" y="20" width="1" height="1" fill="rgb(35,21,21)"/>
<rect x="17" y="20" width="1" height="1" fill="rgb(254,203,50)"/>
<rect x="18" y="20" width="1" height="1" fill="rgb(244,200,67)"/>
<rect x="19" y="20" width="1" height="1" fill="rgb(31,19,39)"/>
<rect x="20" y="20" width="1" height="1" fill="rgb(20,9,7)"/>
<rect x="21" y="20" width="1" height="1" fill="rgb(242,239,224)"/>
<rect x="22" y="20" width="1" height="1" fill="rgb(21,9,13)"/>
<rect x="23" y="20" width="1" height="1" fill="rgb(36,21,28)"/>
<rect x="3" y="21" width="1" height="1" fill="rgb(35,20,27)"/>
<rect x="4" y="21" width="1" height="1" fill="rgb(17,7,8)"/>
<rect x="5" y="21" width="1" height="1" fill="rgb(242,239,224)"/>
<rect x="6" y="21" width="1" height="1" fill="rgb(245,239,225)"/>
<rect x="7" y="21" width="1" height="1" fill="rgb(242,238,227)"/>
<rect x="8" y="21" width="3" height="1" fill="rgb(242,238,226)"/>
<rect x="11" y="21" width="1" height="1" fill="rgb(245,236,229)"/>
<rect x="12" y="21" width="1" height="1" fill="rgb(33,21,21)"/>
<rect x="13" y="21" width="1" height="1" fill="rgb(66,49,41)"/>
<rect x="14" y="21" width="1" height="1" fill="rgb(252,224,184)"/>
<rect x="15" y="21" width="1" height="1" fill="rgb(35,18,8)"/>
<rect x="16" y="21" width="1" height="1" fill="rgb(40,23,33)"/>
<rect x="17" y="21" width="1" height="1" fill="rgb(246,202,79)"/>
<rect x="18" y="21" width="1" height="1" fill="rgb(240,204,92)"/>
<rect x="19" y="21" width="1" height="1" fill="rgb(36,18,34)"/>
<rect x="20" y="21" width="1" height="1" fill="rgb(11,4,0)"/>
<rect x="21" y="21" width="1" height="1" fill="rgb(242,238,226)"/>
<rect x="22" y="21" width="1" height="1" fill="rgb(20,9,13)"/>
<rect x="23" y="21" width="1" height="1" fill="rgb(35,20,27)"/>
<rect x="3" y="22" width="1" height="1" fill="rgb(35,20,27)"/>
<rect x="4" y="22" width="1" height="1" fill="rgb(17,7,8)"/>
<rect x="5" y="22" width="1" height="1" fill="rgb(242,239,224)"/>
<rect x="6" y="22" width="5" height="1" fill="rgb(242,238,226)"/>
<rect x="11" y="22" width="1" height="1" fill="rgb(246,239,229)"/>
<rect x="12" y="22" width="1" height="1" fill="rgb(33,21,23)"/>
<rect x="13" y="22" width="1" height="1" fill="rgb(66,49,41)"/>
<rect x="14" y="22" width="1" height="1" fill="rgb(250,223,193)"/>
<rect x="15" y="22" width="1" height="1" fill="rgb(250,225,194)"/>
<rect x="16" y="22" width="1" height="1" fill="rgb(252,225,196)"/>
<rect x="17" y="22" width="1" height="1" fill="rgb(32,20,22)"/>
<rect x="18" y="22" width="1" height="1" fill="rgb(37,25,29)"/>
<rect x="19" y="22" width="1" height="1" fill="rgb(244,238,224)"/>
<rect x="20" y="22" width="1" height="1" fill="rgb(243,239,227)"/>
<rect x="21" y="22" width="1" height="1" fill="rgb(242,238,226)"/>
<rect x="22" y="22" width="1" height="1" fill="rgb(20,10,11)"/>
<rect x="23" y="22" width="1" height="1" fill="rgb(35,19,29)"/>
<rect x="3" y="23" width="1" height="1" fill="rgb(35,20,27)"/>
<rect x="4" y="23" width="1" height="1" fill="rgb(17,7,8)"/>
<rect x="5" y="23" width="1" height="1" fill="rgb(242,239,224)"/>
<rect x="6" y="23" width="1" height="1" fill="rgb(243,239,227)"/>
<rect x="7" y="23" width="1" height="1" fill="rgb(247,243,231)"/>
<rect x="8" y="23" width="2" height="1" fill="rgb(247,243,232)"/>
<rect x="10" y="23" width="1" height="1" fill="rgb(246,244,232)"/>
<rect x="11" y="23" width="1" height="1" fill="rgb(253,246,238)"/>
<rect x="12" y="23" width="1" height="1" fill="rgb(32,22,21)"/>
<rect x="13" y="23" width="1" height="1" fill="rgb(73,58,53)"/>
<rect x="14" y="23" width="1" height="1" fill="rgb(251,235,210)"/>
<rect x="15" y="23" width="1" height="1" fill="rgb(252,234,210)"/>
<rect x="16" y="23" width="1" height="1" fill="rgb(255,240,219)"/>
<rect x="17" y="23" width="1" height="1" fill="rgb(21,11,12)"/>
<rect x="18" y="23" width="1" height="1" fill="rgb(20,9,5)"/>
<rect x="19" y="23" width="3" height="1" fill="rgb(242,238,226)"/>
<rect x="22" y="23" width="1" height="1" fill="rgb(20,10,11)"/>
<rect x="23" y="23" width="1" height="1" fill="rgb(35,19,29)"/>
<rect x="3" y="24" width="1" height="1" fill="rgb(35,20,27)"/>
<rect x="4" y="24" width="1" height="1" fill="rgb(17,7,8)"/>
<rect x="5" y="24" width="1" height="1" fill="rgb(242,239,224)"/>
<rect x="6" y="24" width="1" height="1" fill="rgb(188,184,173)"/>
<rect x="7" y="24" width="1" height="1" fill="rgb(144,144,134)"/>
<rect x="8" y="24" width="3" height="1" fill="rgb(144,144,136)"/>
<rect x="11" y="24" width="1" height="1" fill="rgb(144,141,136)"/>
<rect x="12" y="24" width="1" height="1" fill="rgb(32,19,26)"/>
<rect x="13" y="24" width="1" height="1" fill="rgb(32,21,25)"/>
<rect x="14" y="24" width="2" height="1" fill="rgb(34,23,27)"/>
<rect x="16" y="24" width="1" height="1" fill="rgb(35,18,26)"/>
<rect x="17" y="24" width="1" height="1" fill="rgb(242,238,227)"/>
<rect x="18" y="24" width="1" height="1" fill="rgb(241,237,225)"/>
<rect x="19" y="24" width="3" height="1" fill="rgb(242,238,226)"/>
<rect x="22" y="24" width="1" height="1" fill="rgb(20,10,11)"/>
<rect x="23" y="24" width="1" height="1" fill="rgb(35,19,29)"/>
<rect x="3" y="25" width="1" height="1" fill="rgb(35,20,27)"/>
<rect x="4" y="25" width="1" height="1" fill="rgb(17,7,8)"/>
<rect x="5" y="25" width="1" height="1" fill="rgb(242,239,224)"/>
<rect x="6" y="25" width="1" height="1" fill="rgb(183,181,169)"/>
<rect x="7" y="25" width="1" height="1" fill="rgb(138,140,129)"/>
<rect x="8" y="25" width="2" height="1" fill="rgb(139,139,127)"/>
<rect x="10" y="25" width="1" height="1" fill="rgb(139,140,126)"/>
<rect x="11" y="25" width="1" height="1" fill="rgb(145,138,128)"/>
<rect x="12" y="25" width="2" height="1" fill="rgb(20,10,9)"/>
<rect x="14" y="25" width="2" height="1" fill="rgb(21,9,11)"/>
<rect x="16" y="25" width="1" height="1" fill="rgb(18,6,6)"/>
<rect x="17" y="25" width="1" height="1" fill="rgb(242,238,227)"/>
<rect x="18" y="25" width="4" height="1" fill="rgb(242,238,226)"/>
<rect x="22" y="25" width="1" height="1" fill="rgb(20,10,11)"/>
<rect x="23" y="25" width="1" height="1" fill="rgb(34,18,28)"/>
<rect x="3" y="26" width="1" height="1" fill="rgb(36,19,27)"/>
<rect x="4" y="26" width="1" height="1" fill="rgb(18,7,11)"/>
<rect x="5" y="26" width="1" height="1" fill="rgb(242,239,224)"/>
<rect x="6" y="26" width="1" height="1" fill="rgb(242,238,226)"/>
<rect x="7" y="26" width="1" height="1" fill="rgb(241,239,226)"/>
<rect x="8" y="26" width="3" height="1" fill="rgb(242,238,226)"/>
<rect x="11" y="26" width="1" height="1" fill="rgb(241,239,226)"/>
<rect x="12" y="26" width="1" height="1" fill="rgb(241,239,227)"/>
<rect x="13" y="26" width="1" height="1" fill="rgb(241,239,226)"/>
<rect x="14" y="26" width="2" height="1" fill="rgb(241,239,227)"/>
<rect x="16" y="26" width="1" height="1" fill="rgb(242,238,226)"/>
<rect x="17" y="26" width="2" height="1" fill="rgb(241,239,226)"/>
<rect x="19" y="26" width="1" height="1" fill="rgb(240,238,225)"/>
<rect x="20" y="26" width="1" height="1" fill="rgb(241,237,226)"/>
<rect x="21" y="26" width="1" height="1" fill="rgb(242,238,226)"/>
<rect x="22" y="26" width="1" height="1" fill="rgb(20,10,11)"/>
<rect x="23" y="26" width="1" height="1" fill="rgb(34,19,26)"/>
<rect x="3" y="27" width="1" height="1" fill="rgb(36,19,27)"/>
<rect x="4" y="27" width="1" height="1" fill="rgb(30,19,23)"/>
<rect x="5" y="27" width="13" height="1" fill="rgb(71,61,60)"/>
<rect x="18" y="27" width="1" height="1" fill="rgb(69,59,58)"/>
<rect x="19" y="27" width="2" height="1" fill="rgb(67,57,56)"/>
<rect x="21" y="27" width="1" height="1" fill="rgb(69,59,58)"/>
<rect x="22" y="27" width="1" height="1" fill="rgb(32,19,26)"/>
<rect x="23" y="27" width="1" height="1" fill="rgb(35,20,27)"/>
<rect x="3" y="28" width="1" height="1" fill="rgb(36,19,27)"/>
<rect x="4" y="28" width="1" height="1" fill="rgb(32,20,24)"/>
<rect x="5" y="28" width="1" height="1" fill="rgb(33,20,27)"/>
<rect x="6" y="28" width="3" height="1" fill="rgb(35,20,27)"/>
<rect x="9" y="28" width="1" height="1" fill="rgb(35,20,26)"/>
<rect x="10" y="28" width="9" height="1" fill="rgb(35,20,27)"/>
<rect x="19" y="28" width="1" height="1" fill="rgb(36,21,28)"/>
<rect x="20" y="28" width="1" height="1" fill="rgb(34,21,28)"/>
<rect x="21" y="28" width="1" height="1" fill="rgb(34,22,26)"/>
<rect x="22" y="28" width="1" height="1" fill="rgb(32,19,26)"/>
<rect x="23" y="28" width="1" height="1" fill="rgb(35,20,27)"/>
</svg>